<?xml version="1.0" encoding="UTF-8"?>
<svg id="Layer_1" xmlns="http://www.w3.org/2000/svg" version="1.1" viewBox="0 0 1024 1024">
  <!-- Generator: Adobe Illustrator 30.3.0, SVG Export Plug-In . SVG Version: 2.1.3 Build 182)  -->
  <defs>
    <style>
      .st0 {
        stroke: #000;
        stroke-miterlimit: 10;
        stroke-width: 16px;
      }
    </style>
  </defs>
  <path class="st0" d="M408.5,855.37c-22.29-.37-38.59-1.06-41-1.73-2.2-.62-5.21-1.13-6.68-1.15-1.48-.01-3.96-.54-5.5-1.17-1.55-.64-3.68-1.32-4.73-1.52-20.77-3.97-44.4-19.24-57.04-36.85-10.85-15.11-19.51-37.58-21.18-54.98-.21-2.2-.83-7.59-1.38-11.97-1.4-11.26-1.34-446.89.07-470.64,1.47-25.01,3.04-39.82,4.7-44.36.3-.82.6-1.95.67-2.5.58-4.5,2-10.51,3.07-13,.71-1.65,2.05-5.47,2.99-8.48,4.01-12.91,12.17-26.81,21.51-36.66,13.29-14.01,28.95-22.61,51-28.01,10.86-2.66,44.76-2.62,53.5.07,23.34,7.17,40.87,19.93,53.08,38.63,8.11,12.42,17.03,33.36,20.02,46.95.42,1.93.89,3.95,1.04,4.5,1.41,5.2,3.23,14.96,2.85,15.34-.26.26-.03,1.01.52,1.67.54.66,1.26,4.3,1.59,8.09.33,3.8.77,7.19.99,7.54.61,1,3.34,53.12,3.36,64.36.02,5.5-.47,14.73-1.07,20.5-.61,5.77-1.11,11.17-1.1,12,0,.83-.37,3.3-.81,5.5-.45,2.2-1.06,5.58-1.36,7.5-.55,3.52-5.99,20.07-9.05,27.5-2.65,6.44-10.56,20.66-12.53,22.5-.29.27-2.3,2.75-4.47,5.5-5.2,6.59-12.55,13.95-20.59,20.6-8.95,7.4-14.76,11.9-15.35,11.9-.83,0-19.09,12.44-19.45,13.25-.19.41-.74.75-1.23.75-.8,0-4.22,2.03-15.94,9.45-22.26,14.1-25.34,16.42-19.25,14.52,1.51-.48,5.23-1.33,8.25-1.9,3.02-.56,9.77-1.9,15-2.96,15.78-3.2,44.96-6.72,60.5-7.31,20.99-.79,67.49-.14,74.5,1.05,15.73,2.65,34.24,7.92,44.78,12.74,2.9,1.32,5.53,2.41,5.85,2.41s4.93,2.45,10.26,5.44c12.84,7.21,20.1,9.24,27.62,7.73,6.6-1.33,10.51-3.85,13.53-8.73,3.17-5.14,2.91-22.22-.53-34.94-2.61-9.64-6.94-21.05-8.9-23.5-.67-.83-2.05-3.14-3.08-5.15-1.03-2.01-3.6-5.57-5.7-7.92-2.11-2.35-3.83-4.61-3.83-5.04,0-1.47-14.57-12.58-21.09-16.08-13.96-7.49-28.21-10.77-50.91-11.72l-15.5-.64-3.86-3.58c-4.92-4.57-6.05-9.62-3.71-16.54,1.44-4.26,2.27-5.15,7.03-7.58,4.85-2.47,6.44-2.75,15.65-2.75,14.1,0,32.06,2.4,42.39,5.66,44.06,13.92,72.04,45.99,83.64,95.84,1.96,8.45,2.21,32.74,1.67,162-.21,48.95.97,72.21,2.62,85.47,2.39,19.19,3.23,25.16,4.16,29.5.53,2.47,1.14,5.46,1.36,6.64,1.03,5.58,8.01,24.46,11.2,30.31,1.96,3.6,4.18,7.67,4.93,9.05,2.26,4.16,12.6,14.4,17.92,17.73,8.16,5.1,14.23,6.95,26.85,8.18,12.83,1.24,14.68,2.04,18.8,8.02,4.68,6.81,2.1,17.1-5.37,21.38-3.96,2.27-20.72,2.33-28.63.1-7.79-2.2-18.58-6.07-22.29-7.98-6.85-3.54-30.16-21.46-36.36-27.94-3.3-3.45-16.22-14.49-16.95-14.49-.38,0-2.65-1.35-5.05-3-3.97-2.73-5.09-3-12.51-3s-8.64.26-15.82,4.09c-4.22,2.25-10.01,5.85-12.88,8-2.86,2.15-5.45,3.91-5.75,3.91s-4.56,2.7-9.46,6c-4.9,3.3-9.24,6-9.63,6s-2.8,1.28-5.34,2.83c-3.94,2.43-12.39,6.44-24.61,11.7-5.05,2.17-14.42,5.44-18.31,6.38-2.03.49-7.97,2-13.19,3.35-23.17,5.99-35.92,6.71-100.5,5.64ZM493,822.03c37.58-9.12,64.68-24.02,90.01-49.49,11.78-11.84,20.79-22.91,23.67-29.07.38-.83,2.57-4.65,4.87-8.5,2.29-3.85,5.18-9.7,6.42-13,1.25-3.3,2.65-6.76,3.12-7.7.48-.93,1.55-4.98,2.38-9,2.24-10.7,2.24-99.63.01-109.1-3.42-14.52-12.92-29.76-26.43-42.42-3.96-3.71-7.44-6.75-7.74-6.75s-2.72-1.6-5.37-3.55c-11.11-8.15-33.29-17.23-50.94-20.85-20.22-4.15-44.72-4.99-77.72-2.67-21.54,1.51-51.05,5.05-59.78,7.17-2.2.54-5.35,1.18-7,1.43-11,1.66-32.21,7.34-38.5,10.3-6.49,3.06-16.06,8.22-17,9.18-.27.27-2.3,1.82-4.5,3.42-12.98,9.48-21.69,23.34-23.94,38.07-.34,2.2-1.05,6.7-1.57,10-1.27,7.89-1.35,145.8-.09,152.47.52,2.75,1.25,7.03,1.63,9.5.77,5.1.94,5.9,1.72,8,.31.83,1.3,3.91,2.21,6.86.91,2.94,2.65,6.99,3.87,9,1.22,2,2.85,4.89,3.62,6.41,1.29,2.54,13.63,15.73,14.71,15.73.26,0,1.91,1.06,3.66,2.36,8.72,6.46,26.44,11.98,43.68,13.62,4.67.44,30.77.71,58,.6,44-.18,50.33-.4,57-2.02ZM399.36,172.44c-6.33-1.54-33.92-7.52-58.86,7.85-5.34,3.29-16.63,10.64-22.61,22.21-2.66,5.15-7.7,18.2-8.88,23-.14.55-.61,1.94-1.04,3.08-.9,2.36-1.68,6.78-3,16.92-.51,3.85-1.19,8.8-1.53,11-.33,2.2-.81,61.13-1.06,130.95l-.46,126.95,2.1-2.45c1.16-1.35,2.9-3.35,3.88-4.45,5.88-6.62,26.5-22.54,42.1-32.5.83-.52,5.83-3.78,11.13-7.23,10.67-6.95,17.22-11.07,23.32-14.66,2.23-1.32,6.44-4.02,9.36-6,2.91-1.99,7.43-4.96,10.03-6.61,8.35-5.3,20.47-15.06,27.49-22.12,6.85-6.91,18.27-23.71,19.28-28.38.3-1.38.93-3.4,1.4-4.5.8-1.89,3.21-9.12,3.57-10.75.09-.41.26-.86.37-1,.3-.37.92-3.51,2.04-10.25.55-3.3,1.21-7.12,1.48-8.5,1.29-6.68,1.64-34.43.64-50.5-1.4-22.62-3.61-48-4.17-48-.11,0-.33-.9-.5-2-3.84-24.86-9.2-36.59-13.31-45.5-3.15-6.82-8.73-16.14-19.31-25.76-6.93-5.23-16.23-8.88-23.46-10.8Z"/>
</svg>