<svg width="442" height="217" viewBox="0 0 442 217" fill="none" xmlns="http://www.w3.org/2000/svg">
<path d="M110.463 148.9C106.063 148.9 102.163 148.1 98.7629 146.5C95.3629 144.9 92.6962 142.7 90.7629 139.9C88.8962 137.033 87.9629 133.8 87.9629 130.2V116.9C87.9629 113.033 88.8962 109.6 90.7629 106.6C92.6962 103.6 95.3629 101.267 98.7629 99.6C102.163 97.9333 106.03 97.1 110.363 97.1C114.43 97.1 118.03 97.7 121.163 98.9C124.296 100.033 126.73 101.633 128.463 103.7C130.263 105.767 131.163 108.133 131.163 110.8C131.163 113 130.296 114.767 128.563 116.1C126.83 117.433 124.53 118.1 121.663 118.1C120.796 118.1 120.163 118.067 119.763 118C119.763 115.333 118.93 113.167 117.263 111.5C115.596 109.767 113.43 108.9 110.763 108.9C108.096 108.9 105.896 109.733 104.163 111.4C102.496 113 101.663 115.067 101.663 117.6V129.2C101.663 131.533 102.496 133.433 104.163 134.9C105.896 136.367 108.13 137.1 110.863 137.1C113.53 137.1 115.696 136.267 117.363 134.6C119.096 132.933 119.963 130.767 119.963 128.1C120.43 128.033 121.096 128 121.963 128C124.83 128 127.13 128.667 128.863 130C130.596 131.267 131.463 133 131.463 135.2C131.463 137.867 130.563 140.233 128.763 142.3C127.03 144.367 124.563 146 121.363 147.2C118.163 148.333 114.53 148.9 110.463 148.9ZM162 148.9C156.334 148.9 152.167 147.267 149.5 144C146.834 140.733 145.5 136.533 145.5 131.4V108.1H134.9C134.9 104.7 135.534 102.167 136.8 100.5C138.067 98.8333 139.734 98 141.8 98H145.7V90.1C145.7 87.2333 146.8 85.2 149 84C151.2 82.7333 154.534 82.1 159 82.1V98H172.3C172.3 101.6 171.634 104.2 170.3 105.8C168.967 107.333 166.767 108.1 163.7 108.1H159.2V130.9C159.2 133.1 159.634 134.7 160.5 135.7C161.367 136.633 162.867 137.1 165 137.1C167.334 137.1 169.734 136.433 172.2 135.1C172.934 135.767 173.5 136.6 173.9 137.6C174.367 138.6 174.6 139.6 174.6 140.6C174.6 141.933 174.134 143.233 173.2 144.5C172.267 145.767 170.834 146.833 168.9 147.7C167.034 148.5 164.734 148.9 162 148.9ZM192.48 93.3C189.947 93.3 187.813 92.5667 186.08 91.1C184.413 89.5667 183.58 87.6 183.58 85.2C183.58 82.8 184.413 80.8667 186.08 79.4C187.813 77.8667 189.947 77.1 192.48 77.1C195.013 77.1 197.113 77.8667 198.78 79.4C200.513 80.8667 201.38 82.8 201.38 85.2C201.38 87.6 200.513 89.5667 198.78 91.1C197.113 92.5667 195.013 93.3 192.48 93.3ZM185.58 105.1C185.58 102.233 186.713 100.2 188.98 99C191.247 97.7333 194.68 97.1 199.28 97.1V140.9C199.28 143.767 198.147 145.833 195.88 147.1C193.613 148.3 190.18 148.9 185.58 148.9V105.1ZM298.632 93.3C296.099 93.3 293.966 92.5667 292.232 91.1C290.566 89.5667 289.732 87.6 289.732 85.2C289.732 82.8 290.566 80.8667 292.232 79.4C293.966 77.8667 296.099 77.1 298.632 77.1C301.166 77.1 303.266 77.8667 304.932 79.4C306.666 80.8667 307.532 82.8 307.532 85.2C307.532 87.6 306.666 89.5667 304.932 91.1C303.266 92.5667 301.166 93.3 298.632 93.3ZM291.732 105.1C291.732 102.233 292.866 100.2 295.132 99C297.399 97.7333 300.832 97.1 305.432 97.1V140.9C305.432 143.767 304.299 145.833 302.032 147.1C299.766 148.3 296.332 148.9 291.732 148.9V105.1ZM340.941 148.9C336.808 148.9 332.974 148.067 329.441 146.4C325.974 144.733 323.208 142.467 321.141 139.6C319.074 136.733 318.041 133.533 318.041 130V117.2C318.041 113.467 319.074 110.067 321.141 107C323.274 103.867 326.108 101.433 329.641 99.7C333.174 97.9667 336.974 97.1 341.041 97.1C345.041 97.1 348.708 97.9333 352.041 99.6C355.441 101.2 358.108 103.5 360.041 106.5C361.974 109.433 362.941 112.767 362.941 116.5V121.9C362.941 123.5 362.341 124.867 361.141 126C359.941 127.067 358.408 127.6 356.541 127.6H331.341V129C331.341 131.667 332.141 133.867 333.741 135.6C335.408 137.267 337.841 138.1 341.041 138.1C344.174 138.1 346.474 137.433 347.941 136.1C349.408 134.7 350.141 132.967 350.141 130.9C351.474 130.767 352.474 130.7 353.141 130.7C355.874 130.7 357.974 131.267 359.441 132.4C360.908 133.533 361.641 135.2 361.641 137.4C361.641 139.2 360.741 141 358.941 142.8C357.141 144.6 354.641 146.067 351.441 147.2C348.308 148.333 344.808 148.9 340.941 148.9ZM350.541 117.9V116.5C350.541 113.833 349.641 111.733 347.841 110.2C346.108 108.6 343.808 107.8 340.941 107.8C338.074 107.8 335.741 108.6 333.941 110.2C332.208 111.733 331.341 113.833 331.341 116.5V117.9H350.541ZM389.667 148.9C386.2 148.9 383.333 148.233 381.067 146.9C378.8 145.567 377.333 143.667 376.667 141.2L365.467 98.3C366.067 97.9667 366.967 97.7 368.167 97.5C369.367 97.2333 370.5 97.1 371.567 97.1C373.767 97.1 375.6 97.6 377.067 98.6C378.6 99.5333 379.533 100.767 379.867 102.3L384.867 127.1L383.467 133.1L384.167 133.3L392.567 101.6C392.967 100.267 393.733 99.2 394.867 98.4C396 97.5333 397.433 97.1 399.167 97.1C400.967 97.1 402.467 97.5333 403.667 98.4C404.867 99.2 405.633 100.267 405.967 101.6L412.367 127.9L410.767 134.2L411.467 134.4L418.467 102.3C418.8 100.767 419.733 99.5333 421.267 98.6C422.8 97.6 424.633 97.1 426.767 97.1C427.9 97.1 429.033 97.2333 430.167 97.5C431.367 97.7 432.267 97.9667 432.867 98.3L421.767 141.2C421.167 143.6 419.567 145.5 416.967 146.9C414.367 148.233 411.333 148.9 407.867 148.9L398.267 109.7L397.667 109.9L398.867 114.5L389.667 148.9Z" fill="#FF6600"/>
<path d="M34.5626 74.7707C36.8814 68.9184 38.0408 65.9923 39.7026 65.1326C41.1435 64.3872 42.8565 64.3872 44.2974 65.1326C45.9592 65.9923 47.1186 68.9184 49.4375 74.7707L74.8116 138.81C77.5965 145.839 78.9889 149.353 78.254 151.198C77.6186 152.793 76.2092 153.951 74.5209 154.264C72.5679 154.627 69.3913 152.578 63.038 148.48L46.3361 137.708C44.7659 136.695 43.9808 136.189 43.1357 135.992C42.3886 135.817 41.6114 135.817 40.8643 135.992C40.0192 136.189 39.2341 136.695 37.6639 137.708L20.962 148.48C14.6087 152.578 11.4321 154.627 9.47914 154.264C7.79084 153.951 6.38135 152.793 5.74601 151.198C5.01109 149.353 6.40353 145.839 9.18841 138.81L34.5626 74.7707Z" fill="#FF6600"/>
<path d="M238.563 143.229C240.881 149.082 242.041 152.008 243.703 152.867C245.143 153.613 246.857 153.613 248.297 152.867C249.959 152.008 251.119 149.082 253.437 143.229L278.812 79.1898C281.596 72.1613 282.989 68.6471 282.254 66.8018C281.619 65.2065 280.209 64.0489 278.521 63.7357C276.568 63.3734 273.391 65.4222 267.038 69.5199L250.336 80.2922C248.766 81.305 247.981 81.8113 247.136 82.0084C246.389 82.1827 245.611 82.1827 244.864 82.0084C244.019 81.8113 243.234 81.305 241.664 80.2922L224.962 69.5199C218.609 65.4222 215.432 63.3734 213.479 63.7357C211.791 64.0489 210.381 65.2065 209.746 66.8018C209.011 68.647 210.404 72.1613 213.188 79.1898L238.563 143.229Z" fill="#FF6600"/>
</svg>
