<svg width="442" height="498" viewBox="0 0 442 498" fill="none" xmlns="http://www.w3.org/2000/svg">
<path d="M110.463 429.9C106.063 429.9 102.163 429.1 98.7629 427.5C95.3629 425.9 92.6962 423.7 90.7629 420.9C88.8962 418.033 87.9629 414.8 87.9629 411.2V397.9C87.9629 394.033 88.8962 390.6 90.7629 387.6C92.6962 384.6 95.3629 382.267 98.7629 380.6C102.163 378.933 106.03 378.1 110.363 378.1C114.43 378.1 118.03 378.7 121.163 379.9C124.296 381.033 126.73 382.633 128.463 384.7C130.263 386.767 131.163 389.133 131.163 391.8C131.163 394 130.296 395.767 128.563 397.1C126.83 398.433 124.53 399.1 121.663 399.1C120.796 399.1 120.163 399.067 119.763 399C119.763 396.333 118.93 394.167 117.263 392.5C115.596 390.767 113.43 389.9 110.763 389.9C108.096 389.9 105.896 390.733 104.163 392.4C102.496 394 101.663 396.067 101.663 398.6V410.2C101.663 412.533 102.496 414.433 104.163 415.9C105.896 417.367 108.13 418.1 110.863 418.1C113.53 418.1 115.696 417.267 117.363 415.6C119.096 413.933 119.963 411.767 119.963 409.1C120.43 409.033 121.096 409 121.963 409C124.83 409 127.13 409.667 128.863 411C130.596 412.267 131.463 414 131.463 416.2C131.463 418.867 130.563 421.233 128.763 423.3C127.03 425.367 124.563 427 121.363 428.2C118.163 429.333 114.53 429.9 110.463 429.9ZM162 429.9C156.334 429.9 152.167 428.267 149.5 425C146.834 421.733 145.5 417.533 145.5 412.4V389.1H134.9C134.9 385.7 135.534 383.167 136.8 381.5C138.067 379.833 139.734 379 141.8 379H145.7V371.1C145.7 368.233 146.8 366.2 149 365C151.2 363.733 154.534 363.1 159 363.1V379H172.3C172.3 382.6 171.634 385.2 170.3 386.8C168.967 388.333 166.767 389.1 163.7 389.1H159.2V411.9C159.2 414.1 159.634 415.7 160.5 416.7C161.367 417.633 162.867 418.1 165 418.1C167.334 418.1 169.734 417.433 172.2 416.1C172.934 416.767 173.5 417.6 173.9 418.6C174.367 419.6 174.6 420.6 174.6 421.6C174.6 422.933 174.134 424.233 173.2 425.5C172.267 426.767 170.834 427.833 168.9 428.7C167.034 429.5 164.734 429.9 162 429.9ZM192.48 374.3C189.947 374.3 187.813 373.567 186.08 372.1C184.413 370.567 183.58 368.6 183.58 366.2C183.58 363.8 184.413 361.867 186.08 360.4C187.813 358.867 189.947 358.1 192.48 358.1C195.013 358.1 197.113 358.867 198.78 360.4C200.513 361.867 201.38 363.8 201.38 366.2C201.38 368.6 200.513 370.567 198.78 372.1C197.113 373.567 195.013 374.3 192.48 374.3ZM185.58 386.1C185.58 383.233 186.713 381.2 188.98 380C191.247 378.733 194.68 378.1 199.28 378.1V421.9C199.28 424.767 198.147 426.833 195.88 428.1C193.613 429.3 190.18 429.9 185.58 429.9V386.1ZM298.632 374.3C296.099 374.3 293.966 373.567 292.232 372.1C290.566 370.567 289.732 368.6 289.732 366.2C289.732 363.8 290.566 361.867 292.232 360.4C293.966 358.867 296.099 358.1 298.632 358.1C301.166 358.1 303.266 358.867 304.932 360.4C306.666 361.867 307.532 363.8 307.532 366.2C307.532 368.6 306.666 370.567 304.932 372.1C303.266 373.567 301.166 374.3 298.632 374.3ZM291.732 386.1C291.732 383.233 292.866 381.2 295.132 380C297.399 378.733 300.832 378.1 305.432 378.1V421.9C305.432 424.767 304.299 426.833 302.032 428.1C299.766 429.3 296.332 429.9 291.732 429.9V386.1ZM340.941 429.9C336.808 429.9 332.974 429.067 329.441 427.4C325.974 425.733 323.208 423.467 321.141 420.6C319.074 417.733 318.041 414.533 318.041 411V398.2C318.041 394.467 319.074 391.067 321.141 388C323.274 384.867 326.108 382.433 329.641 380.7C333.174 378.967 336.974 378.1 341.041 378.1C345.041 378.1 348.708 378.933 352.041 380.6C355.441 382.2 358.108 384.5 360.041 387.5C361.974 390.433 362.941 393.767 362.941 397.5V402.9C362.941 404.5 362.341 405.867 361.141 407C359.941 408.067 358.408 408.6 356.541 408.6H331.341V410C331.341 412.667 332.141 414.867 333.741 416.6C335.408 418.267 337.841 419.1 341.041 419.1C344.174 419.1 346.474 418.433 347.941 417.1C349.408 415.7 350.141 413.967 350.141 411.9C351.474 411.767 352.474 411.7 353.141 411.7C355.874 411.7 357.974 412.267 359.441 413.4C360.908 414.533 361.641 416.2 361.641 418.4C361.641 420.2 360.741 422 358.941 423.8C357.141 425.6 354.641 427.067 351.441 428.2C348.308 429.333 344.808 429.9 340.941 429.9ZM350.541 398.9V397.5C350.541 394.833 349.641 392.733 347.841 391.2C346.108 389.6 343.808 388.8 340.941 388.8C338.074 388.8 335.741 389.6 333.941 391.2C332.208 392.733 331.341 394.833 331.341 397.5V398.9H350.541ZM389.667 429.9C386.2 429.9 383.333 429.233 381.067 427.9C378.8 426.567 377.333 424.667 376.667 422.2L365.467 379.3C366.067 378.967 366.967 378.7 368.167 378.5C369.367 378.233 370.5 378.1 371.567 378.1C373.767 378.1 375.6 378.6 377.067 379.6C378.6 380.533 379.533 381.767 379.867 383.3L384.867 408.1L383.467 414.1L384.167 414.3L392.567 382.6C392.967 381.267 393.733 380.2 394.867 379.4C396 378.533 397.433 378.1 399.167 378.1C400.967 378.1 402.467 378.533 403.667 379.4C404.867 380.2 405.633 381.267 405.967 382.6L412.367 408.9L410.767 415.2L411.467 415.4L418.467 383.3C418.8 381.767 419.733 380.533 421.267 379.6C422.8 378.6 424.633 378.1 426.767 378.1C427.9 378.1 429.033 378.233 430.167 378.5C431.367 378.7 432.267 378.967 432.867 379.3L421.767 422.2C421.167 424.6 419.567 426.5 416.967 427.9C414.367 429.233 411.333 429.9 407.867 429.9L398.267 390.7L397.667 390.9L398.867 395.5L389.667 429.9Z" fill="#FF6600"/>
<path d="M34.5626 355.771C36.8814 349.918 38.0408 346.992 39.7026 346.133C41.1435 345.387 42.8565 345.387 44.2974 346.133C45.9592 346.992 47.1186 349.918 49.4375 355.771L74.8116 419.81C77.5965 426.839 78.9889 430.353 78.254 432.198C77.6186 433.793 76.2092 434.951 74.5209 435.264C72.5679 435.627 69.3913 433.578 63.038 429.48L46.3361 418.708C44.7659 417.695 43.9808 417.189 43.1357 416.992C42.3886 416.817 41.6114 416.817 40.8643 416.992C40.0192 417.189 39.2341 417.695 37.6639 418.708L20.962 429.48C14.6087 433.578 11.4321 435.627 9.47914 435.264C7.79084 434.951 6.38135 433.793 5.74601 432.198C5.01109 430.353 6.40353 426.839 9.18841 419.81L34.5626 355.771Z" fill="#FF6600"/>
<path d="M238.563 424.229C240.881 430.082 242.041 433.008 243.703 433.867C245.143 434.613 246.857 434.613 248.297 433.867C249.959 433.008 251.119 430.082 253.437 424.229L278.812 360.19C281.596 353.161 282.989 349.647 282.254 347.802C281.619 346.207 280.209 345.049 278.521 344.736C276.568 344.373 273.391 346.422 267.038 350.52L250.336 361.292C248.766 362.305 247.981 362.811 247.136 363.008C246.389 363.183 245.611 363.183 244.864 363.008C244.019 362.811 243.234 362.305 241.664 361.292L224.962 350.52C218.609 346.422 215.432 344.373 213.479 344.736C211.791 345.049 210.381 346.207 209.746 347.802C209.011 349.647 210.404 353.161 213.188 360.19L238.563 424.229Z" fill="#FF6600"/>
<path d="M255.536 283.064C249.461 296.917 246.423 303.844 242.765 305.395C239.604 306.736 235.974 306.36 233.154 304.4C229.892 302.133 228.336 294.732 225.225 279.929L216.05 236.264H276.061L255.536 283.064ZM192.149 168.399C195.808 169.201 197.638 169.602 199.111 170.526C200.413 171.343 201.51 172.449 202.315 173.759C203.226 175.24 203.611 177.073 204.382 180.738L216.05 236.264H175.388C161.386 236.264 154.386 236.263 149.038 233.538C144.334 231.141 140.509 227.317 138.112 222.613C135.387 217.265 135.388 210.265 135.388 196.264V155.96L192.149 168.399ZM335.388 196.264C335.388 210.265 335.388 217.265 332.663 222.613C330.266 227.317 326.441 231.141 321.737 233.538C316.389 236.263 309.389 236.264 295.388 236.264H276.061L335.388 100.991V196.264ZM135.388 155.96L93.1424 146.703C78.3664 143.465 70.9782 141.846 68.7391 138.564C66.8034 135.727 66.4598 132.096 67.8279 128.945C69.4107 125.301 76.3627 122.323 90.2674 116.367L135.388 97.04V155.96ZM346.572 6.58004C358.17 1.61229 363.969 -0.871799 367.533 0.277301C370.623 1.27383 373.038 3.70882 374.008 6.80757C375.126 10.3815 372.593 16.1592 367.525 27.7138L335.388 100.991V76.2636C335.388 62.2623 335.388 55.2608 332.663 49.913C330.266 45.2091 326.441 41.3851 321.737 38.9882C316.389 36.2634 309.389 36.2636 295.388 36.2636H277.274L346.572 6.58004ZM135.388 97.04V76.2636C135.388 62.2623 135.387 55.2608 138.112 49.913C140.509 45.2091 144.334 41.385 149.038 38.9882C154.386 36.2635 161.386 36.2636 175.388 36.2636H277.274L135.388 97.04Z" fill="#FF6600"/>
</svg>
