<svg width="1111" height="412" viewBox="0 0 1111 412" fill="none" xmlns="http://www.w3.org/2000/svg">
<rect width="1111" height="412" fill="url(#paint0_linear_50_26)"/>
<g clip-path="url(#clip0_50_26)">
<path d="M300.282 148.229L171.862 103.581C162.997 100.499 153.311 105.187 150.229 114.053L105.581 242.473C102.499 251.338 107.187 261.024 116.053 264.106L244.473 308.754C253.338 311.836 263.024 307.148 266.106 298.282L310.754 169.862C313.836 160.996 309.148 151.311 300.282 148.229Z" fill="#F8760C"/>
<path d="M278.511 169.448L175.774 133.73C174.001 133.113 172.064 134.051 171.448 135.824L135.73 238.56C135.113 240.333 136.051 242.271 137.824 242.887L240.56 278.605C242.333 279.222 244.27 278.284 244.887 276.511L280.605 173.775C281.221 172.001 280.284 170.064 278.511 169.448Z" fill="#DB4B09"/>
<path d="M191.275 182.302L159.17 171.14L148.008 203.245L180.113 214.407L191.275 182.302Z" fill="black"/>
<path d="M268.327 209.09L236.222 197.928L225.06 230.033L257.165 241.195L268.327 209.09Z" fill="black"/>
</g>
<g filter="url(#filter0_d_50_26)">
<mask id="path-6-outside-1_50_26" maskUnits="userSpaceOnUse" x="399" y="158" width="635" height="95" fill="black">
<rect fill="white" x="399" y="158" width="635" height="95"/>
<path d="M450.972 192C450.783 189.633 449.895 187.786 448.309 186.46C446.746 185.134 444.367 184.472 441.171 184.472C439.135 184.472 437.466 184.72 436.164 185.217C434.885 185.691 433.939 186.342 433.323 187.17C432.707 187.999 432.388 188.946 432.364 190.011C432.317 190.887 432.471 191.68 432.826 192.391C433.205 193.077 433.796 193.705 434.601 194.273C435.406 194.817 436.436 195.314 437.691 195.764C438.946 196.214 440.437 196.616 442.165 196.972L448.131 198.25C452.156 199.102 455.6 200.227 458.465 201.624C461.33 203.02 463.673 204.666 465.496 206.56C467.319 208.43 468.657 210.537 469.509 212.881C470.385 215.224 470.835 217.781 470.858 220.551C470.835 225.333 469.639 229.382 467.272 232.696C464.904 236.01 461.519 238.532 457.116 240.26C452.736 241.988 447.468 242.852 441.313 242.852C434.992 242.852 429.476 241.917 424.765 240.047C420.077 238.177 416.431 235.3 413.827 231.418C411.247 227.511 409.945 222.516 409.921 216.432H428.671C428.789 218.657 429.346 220.527 430.34 222.043C431.334 223.558 432.731 224.706 434.53 225.487C436.353 226.268 438.519 226.659 441.029 226.659C443.136 226.659 444.9 226.399 446.32 225.878C447.741 225.357 448.818 224.635 449.552 223.712C450.286 222.788 450.664 221.735 450.688 220.551C450.664 219.438 450.297 218.468 449.587 217.639C448.901 216.787 447.764 216.029 446.178 215.366C444.592 214.68 442.449 214.041 439.751 213.449L432.506 211.886C426.067 210.49 420.989 208.158 417.272 204.891C413.579 201.6 411.744 197.114 411.768 191.432C411.744 186.815 412.975 182.779 415.461 179.322C417.97 175.842 421.439 173.132 425.866 171.19C430.316 169.249 435.418 168.278 441.171 168.278C447.042 168.278 452.12 169.261 456.405 171.226C460.69 173.191 463.993 175.961 466.313 179.536C468.657 183.087 469.84 187.241 469.864 192H450.972ZM498.256 211.318V242H478.653V169.273H497.545V197.824H498.113C499.345 194.344 501.392 191.633 504.257 189.692C507.122 187.727 510.566 186.744 514.591 186.744C518.45 186.744 521.8 187.62 524.64 189.372C527.505 191.124 529.719 193.539 531.281 196.616C532.867 199.694 533.648 203.222 533.625 207.199V242H514.023V211.318C514.046 208.619 513.372 206.5 511.998 204.962C510.649 203.423 508.72 202.653 506.21 202.653C504.624 202.653 503.227 203.009 502.02 203.719C500.836 204.405 499.913 205.4 499.25 206.702C498.611 207.98 498.279 209.519 498.256 211.318ZM558.501 242.852C555.02 242.852 551.943 242.284 549.268 241.148C546.616 239.988 544.533 238.236 543.018 235.892C541.502 233.548 540.745 230.565 540.745 226.943C540.745 223.96 541.254 221.415 542.272 219.308C543.29 217.178 544.71 215.438 546.533 214.088C548.356 212.739 550.475 211.709 552.89 210.999C555.328 210.288 557.956 209.827 560.773 209.614C563.827 209.377 566.278 209.093 568.124 208.761C569.994 208.406 571.344 207.921 572.172 207.305C573.001 206.666 573.415 205.826 573.415 204.784V204.642C573.415 203.222 572.871 202.133 571.782 201.375C570.693 200.617 569.296 200.239 567.591 200.239C565.721 200.239 564.194 200.653 563.01 201.482C561.85 202.286 561.152 203.529 560.915 205.21H542.876C543.112 201.896 544.166 198.842 546.036 196.048C547.93 193.231 550.688 190.982 554.31 189.301C557.932 187.597 562.454 186.744 567.876 186.744C571.782 186.744 575.286 187.206 578.387 188.129C581.488 189.029 584.128 190.295 586.306 191.929C588.484 193.539 590.141 195.433 591.278 197.611C592.438 199.765 593.018 202.109 593.018 204.642V242H574.694V234.33H574.268C573.179 236.366 571.853 238.011 570.29 239.266C568.751 240.52 566.988 241.432 564.999 242C563.034 242.568 560.868 242.852 558.501 242.852ZM564.893 230.494C566.384 230.494 567.781 230.187 569.083 229.571C570.409 228.955 571.486 228.068 572.314 226.908C573.143 225.748 573.557 224.339 573.557 222.682V218.136C573.037 218.349 572.48 218.551 571.888 218.74C571.32 218.929 570.705 219.107 570.042 219.273C569.403 219.438 568.716 219.592 567.982 219.734C567.272 219.876 566.526 220.007 565.745 220.125C564.23 220.362 562.987 220.752 562.016 221.297C561.069 221.818 560.359 222.469 559.885 223.25C559.436 224.008 559.211 224.86 559.211 225.807C559.211 227.322 559.743 228.482 560.809 229.287C561.874 230.092 563.235 230.494 564.893 230.494ZM622.128 242.71C618.245 242.71 614.671 241.692 611.404 239.656C608.16 237.62 605.556 234.531 603.591 230.388C601.65 226.245 600.679 221.025 600.679 214.727C600.679 208.146 601.697 202.795 603.733 198.676C605.793 194.557 608.444 191.538 611.688 189.621C614.955 187.703 618.387 186.744 621.986 186.744C624.685 186.744 627.052 187.218 629.088 188.165C631.124 189.088 632.829 190.331 634.202 191.893C635.575 193.432 636.617 195.125 637.327 196.972H637.611V169.273H657.213V242H637.753V233.051H637.327C636.569 234.898 635.48 236.555 634.06 238.023C632.663 239.467 630.959 240.615 628.946 241.467C626.958 242.296 624.685 242.71 622.128 242.71ZM629.372 227.653C631.172 227.653 632.71 227.133 633.989 226.091C635.291 225.026 636.285 223.534 636.972 221.616C637.682 219.675 638.037 217.379 638.037 214.727C638.037 212.028 637.682 209.72 636.972 207.803C636.285 205.861 635.291 204.382 633.989 203.364C632.71 202.322 631.172 201.801 629.372 201.801C627.573 201.801 626.034 202.322 624.756 203.364C623.501 204.382 622.53 205.861 621.844 207.803C621.181 209.72 620.85 212.028 620.85 214.727C620.85 217.426 621.181 219.746 621.844 221.688C622.53 223.605 623.501 225.085 624.756 226.126C626.034 227.144 627.573 227.653 629.372 227.653ZM693.115 242.994C687.197 242.994 682.13 241.822 677.916 239.479C673.702 237.111 670.471 233.821 668.222 229.607C665.973 225.369 664.848 220.456 664.848 214.869C664.848 209.282 665.973 204.382 668.222 200.168C670.471 195.93 673.702 192.639 677.916 190.295C682.13 187.928 687.197 186.744 693.115 186.744C699.034 186.744 704.1 187.928 708.314 190.295C712.528 192.639 715.76 195.93 718.009 200.168C720.258 204.382 721.382 209.282 721.382 214.869C721.382 220.456 720.258 225.369 718.009 229.607C715.76 233.821 712.528 237.111 708.314 239.479C704.1 241.822 699.034 242.994 693.115 242.994ZM693.257 228.506C694.914 228.506 696.347 227.949 697.554 226.837C698.762 225.724 699.697 224.138 700.36 222.078C701.022 220.018 701.354 217.568 701.354 214.727C701.354 211.863 701.022 209.412 700.36 207.376C699.697 205.317 698.762 203.731 697.554 202.618C696.347 201.505 694.914 200.949 693.257 200.949C691.505 200.949 690.002 201.505 688.747 202.618C687.493 203.731 686.534 205.317 685.871 207.376C685.208 209.412 684.877 211.863 684.877 214.727C684.877 217.568 685.208 220.018 685.871 222.078C686.534 224.138 687.493 225.724 688.747 226.837C690.002 227.949 691.505 228.506 693.257 228.506ZM738.019 242L724.383 187.455H743.985L750.235 220.693H750.661L757.622 187.455H776.656L783.9 220.409H784.326L790.292 187.455H809.894L796.258 242H775.093L767.423 212.739H766.855L759.184 242H738.019ZM835.498 242V169.273H867.032C872.572 169.273 877.224 170.018 880.988 171.51C884.776 173.001 887.629 175.108 889.546 177.831C891.488 180.554 892.458 183.761 892.458 187.455C892.458 190.13 891.866 192.568 890.683 194.77C889.523 196.972 887.889 198.818 885.782 200.31C883.675 201.777 881.213 202.795 878.396 203.364V204.074C881.521 204.192 884.362 204.985 886.919 206.453C889.475 207.897 891.511 209.898 893.026 212.455C894.542 214.988 895.299 217.971 895.299 221.403C895.299 225.381 894.258 228.92 892.174 232.021C890.115 235.123 887.179 237.561 883.367 239.337C879.556 241.112 875.01 242 869.731 242H835.498ZM855.242 226.233H864.475C867.79 226.233 870.276 225.617 871.933 224.386C873.59 223.132 874.419 221.285 874.419 218.847C874.419 217.142 874.028 215.698 873.247 214.514C872.465 213.33 871.353 212.431 869.909 211.815C868.488 211.2 866.772 210.892 864.759 210.892H855.242V226.233ZM855.242 198.676H863.339C865.067 198.676 866.594 198.404 867.92 197.859C869.246 197.315 870.276 196.534 871.009 195.516C871.767 194.474 872.146 193.207 872.146 191.716C872.146 189.467 871.341 187.75 869.731 186.567C868.121 185.359 866.085 184.756 863.623 184.756H855.242V198.676ZM928.857 242.994C922.939 242.994 917.873 241.822 913.659 239.479C909.445 237.111 906.213 233.821 903.964 229.607C901.715 225.369 900.59 220.456 900.59 214.869C900.59 209.282 901.715 204.382 903.964 200.168C906.213 195.93 909.445 192.639 913.659 190.295C917.873 187.928 922.939 186.744 928.857 186.744C934.776 186.744 939.842 187.928 944.056 190.295C948.27 192.639 951.502 195.93 953.751 200.168C956 204.382 957.124 209.282 957.124 214.869C957.124 220.456 956 225.369 953.751 229.607C951.502 233.821 948.27 237.111 944.056 239.479C939.842 241.822 934.776 242.994 928.857 242.994ZM928.999 228.506C930.657 228.506 932.089 227.949 933.296 226.837C934.504 225.724 935.439 224.138 936.102 222.078C936.765 220.018 937.096 217.568 937.096 214.727C937.096 211.863 936.765 209.412 936.102 207.376C935.439 205.317 934.504 203.731 933.296 202.618C932.089 201.505 930.657 200.949 928.999 200.949C927.248 200.949 925.744 201.505 924.49 202.618C923.235 203.731 922.276 205.317 921.613 207.376C920.95 209.412 920.619 211.863 920.619 214.727C920.619 217.568 920.95 220.018 921.613 222.078C922.276 224.138 923.235 225.724 924.49 226.837C925.744 227.949 927.248 228.506 928.999 228.506ZM980.127 187.455L988.081 204.358L996.462 187.455H1015.92L1001.29 214.727L1016.63 242H997.314L988.081 224.67L979.133 242H959.53L975.013 214.727L960.525 187.455H980.127Z"/>
</mask>
<path d="M450.972 192C450.783 189.633 449.895 187.786 448.309 186.46C446.746 185.134 444.367 184.472 441.171 184.472C439.135 184.472 437.466 184.72 436.164 185.217C434.885 185.691 433.939 186.342 433.323 187.17C432.707 187.999 432.388 188.946 432.364 190.011C432.317 190.887 432.471 191.68 432.826 192.391C433.205 193.077 433.796 193.705 434.601 194.273C435.406 194.817 436.436 195.314 437.691 195.764C438.946 196.214 440.437 196.616 442.165 196.972L448.131 198.25C452.156 199.102 455.6 200.227 458.465 201.624C461.33 203.02 463.673 204.666 465.496 206.56C467.319 208.43 468.657 210.537 469.509 212.881C470.385 215.224 470.835 217.781 470.858 220.551C470.835 225.333 469.639 229.382 467.272 232.696C464.904 236.01 461.519 238.532 457.116 240.26C452.736 241.988 447.468 242.852 441.313 242.852C434.992 242.852 429.476 241.917 424.765 240.047C420.077 238.177 416.431 235.3 413.827 231.418C411.247 227.511 409.945 222.516 409.921 216.432H428.671C428.789 218.657 429.346 220.527 430.34 222.043C431.334 223.558 432.731 224.706 434.53 225.487C436.353 226.268 438.519 226.659 441.029 226.659C443.136 226.659 444.9 226.399 446.32 225.878C447.741 225.357 448.818 224.635 449.552 223.712C450.286 222.788 450.664 221.735 450.688 220.551C450.664 219.438 450.297 218.468 449.587 217.639C448.901 216.787 447.764 216.029 446.178 215.366C444.592 214.68 442.449 214.041 439.751 213.449L432.506 211.886C426.067 210.49 420.989 208.158 417.272 204.891C413.579 201.6 411.744 197.114 411.768 191.432C411.744 186.815 412.975 182.779 415.461 179.322C417.97 175.842 421.439 173.132 425.866 171.19C430.316 169.249 435.418 168.278 441.171 168.278C447.042 168.278 452.12 169.261 456.405 171.226C460.69 173.191 463.993 175.961 466.313 179.536C468.657 183.087 469.84 187.241 469.864 192H450.972ZM498.256 211.318V242H478.653V169.273H497.545V197.824H498.113C499.345 194.344 501.392 191.633 504.257 189.692C507.122 187.727 510.566 186.744 514.591 186.744C518.45 186.744 521.8 187.62 524.64 189.372C527.505 191.124 529.719 193.539 531.281 196.616C532.867 199.694 533.648 203.222 533.625 207.199V242H514.023V211.318C514.046 208.619 513.372 206.5 511.998 204.962C510.649 203.423 508.72 202.653 506.21 202.653C504.624 202.653 503.227 203.009 502.02 203.719C500.836 204.405 499.913 205.4 499.25 206.702C498.611 207.98 498.279 209.519 498.256 211.318ZM558.501 242.852C555.02 242.852 551.943 242.284 549.268 241.148C546.616 239.988 544.533 238.236 543.018 235.892C541.502 233.548 540.745 230.565 540.745 226.943C540.745 223.96 541.254 221.415 542.272 219.308C543.29 217.178 544.71 215.438 546.533 214.088C548.356 212.739 550.475 211.709 552.89 210.999C555.328 210.288 557.956 209.827 560.773 209.614C563.827 209.377 566.278 209.093 568.124 208.761C569.994 208.406 571.344 207.921 572.172 207.305C573.001 206.666 573.415 205.826 573.415 204.784V204.642C573.415 203.222 572.871 202.133 571.782 201.375C570.693 200.617 569.296 200.239 567.591 200.239C565.721 200.239 564.194 200.653 563.01 201.482C561.85 202.286 561.152 203.529 560.915 205.21H542.876C543.112 201.896 544.166 198.842 546.036 196.048C547.93 193.231 550.688 190.982 554.31 189.301C557.932 187.597 562.454 186.744 567.876 186.744C571.782 186.744 575.286 187.206 578.387 188.129C581.488 189.029 584.128 190.295 586.306 191.929C588.484 193.539 590.141 195.433 591.278 197.611C592.438 199.765 593.018 202.109 593.018 204.642V242H574.694V234.33H574.268C573.179 236.366 571.853 238.011 570.29 239.266C568.751 240.52 566.988 241.432 564.999 242C563.034 242.568 560.868 242.852 558.501 242.852ZM564.893 230.494C566.384 230.494 567.781 230.187 569.083 229.571C570.409 228.955 571.486 228.068 572.314 226.908C573.143 225.748 573.557 224.339 573.557 222.682V218.136C573.037 218.349 572.48 218.551 571.888 218.74C571.32 218.929 570.705 219.107 570.042 219.273C569.403 219.438 568.716 219.592 567.982 219.734C567.272 219.876 566.526 220.007 565.745 220.125C564.23 220.362 562.987 220.752 562.016 221.297C561.069 221.818 560.359 222.469 559.885 223.25C559.436 224.008 559.211 224.86 559.211 225.807C559.211 227.322 559.743 228.482 560.809 229.287C561.874 230.092 563.235 230.494 564.893 230.494ZM622.128 242.71C618.245 242.71 614.671 241.692 611.404 239.656C608.16 237.62 605.556 234.531 603.591 230.388C601.65 226.245 600.679 221.025 600.679 214.727C600.679 208.146 601.697 202.795 603.733 198.676C605.793 194.557 608.444 191.538 611.688 189.621C614.955 187.703 618.387 186.744 621.986 186.744C624.685 186.744 627.052 187.218 629.088 188.165C631.124 189.088 632.829 190.331 634.202 191.893C635.575 193.432 636.617 195.125 637.327 196.972H637.611V169.273H657.213V242H637.753V233.051H637.327C636.569 234.898 635.48 236.555 634.06 238.023C632.663 239.467 630.959 240.615 628.946 241.467C626.958 242.296 624.685 242.71 622.128 242.71ZM629.372 227.653C631.172 227.653 632.71 227.133 633.989 226.091C635.291 225.026 636.285 223.534 636.972 221.616C637.682 219.675 638.037 217.379 638.037 214.727C638.037 212.028 637.682 209.72 636.972 207.803C636.285 205.861 635.291 204.382 633.989 203.364C632.71 202.322 631.172 201.801 629.372 201.801C627.573 201.801 626.034 202.322 624.756 203.364C623.501 204.382 622.53 205.861 621.844 207.803C621.181 209.72 620.85 212.028 620.85 214.727C620.85 217.426 621.181 219.746 621.844 221.688C622.53 223.605 623.501 225.085 624.756 226.126C626.034 227.144 627.573 227.653 629.372 227.653ZM693.115 242.994C687.197 242.994 682.13 241.822 677.916 239.479C673.702 237.111 670.471 233.821 668.222 229.607C665.973 225.369 664.848 220.456 664.848 214.869C664.848 209.282 665.973 204.382 668.222 200.168C670.471 195.93 673.702 192.639 677.916 190.295C682.13 187.928 687.197 186.744 693.115 186.744C699.034 186.744 704.1 187.928 708.314 190.295C712.528 192.639 715.76 195.93 718.009 200.168C720.258 204.382 721.382 209.282 721.382 214.869C721.382 220.456 720.258 225.369 718.009 229.607C715.76 233.821 712.528 237.111 708.314 239.479C704.1 241.822 699.034 242.994 693.115 242.994ZM693.257 228.506C694.914 228.506 696.347 227.949 697.554 226.837C698.762 225.724 699.697 224.138 700.36 222.078C701.022 220.018 701.354 217.568 701.354 214.727C701.354 211.863 701.022 209.412 700.36 207.376C699.697 205.317 698.762 203.731 697.554 202.618C696.347 201.505 694.914 200.949 693.257 200.949C691.505 200.949 690.002 201.505 688.747 202.618C687.493 203.731 686.534 205.317 685.871 207.376C685.208 209.412 684.877 211.863 684.877 214.727C684.877 217.568 685.208 220.018 685.871 222.078C686.534 224.138 687.493 225.724 688.747 226.837C690.002 227.949 691.505 228.506 693.257 228.506ZM738.019 242L724.383 187.455H743.985L750.235 220.693H750.661L757.622 187.455H776.656L783.9 220.409H784.326L790.292 187.455H809.894L796.258 242H775.093L767.423 212.739H766.855L759.184 242H738.019ZM835.498 242V169.273H867.032C872.572 169.273 877.224 170.018 880.988 171.51C884.776 173.001 887.629 175.108 889.546 177.831C891.488 180.554 892.458 183.761 892.458 187.455C892.458 190.13 891.866 192.568 890.683 194.77C889.523 196.972 887.889 198.818 885.782 200.31C883.675 201.777 881.213 202.795 878.396 203.364V204.074C881.521 204.192 884.362 204.985 886.919 206.453C889.475 207.897 891.511 209.898 893.026 212.455C894.542 214.988 895.299 217.971 895.299 221.403C895.299 225.381 894.258 228.92 892.174 232.021C890.115 235.123 887.179 237.561 883.367 239.337C879.556 241.112 875.01 242 869.731 242H835.498ZM855.242 226.233H864.475C867.79 226.233 870.276 225.617 871.933 224.386C873.59 223.132 874.419 221.285 874.419 218.847C874.419 217.142 874.028 215.698 873.247 214.514C872.465 213.33 871.353 212.431 869.909 211.815C868.488 211.2 866.772 210.892 864.759 210.892H855.242V226.233ZM855.242 198.676H863.339C865.067 198.676 866.594 198.404 867.92 197.859C869.246 197.315 870.276 196.534 871.009 195.516C871.767 194.474 872.146 193.207 872.146 191.716C872.146 189.467 871.341 187.75 869.731 186.567C868.121 185.359 866.085 184.756 863.623 184.756H855.242V198.676ZM928.857 242.994C922.939 242.994 917.873 241.822 913.659 239.479C909.445 237.111 906.213 233.821 903.964 229.607C901.715 225.369 900.59 220.456 900.59 214.869C900.59 209.282 901.715 204.382 903.964 200.168C906.213 195.93 909.445 192.639 913.659 190.295C917.873 187.928 922.939 186.744 928.857 186.744C934.776 186.744 939.842 187.928 944.056 190.295C948.27 192.639 951.502 195.93 953.751 200.168C956 204.382 957.124 209.282 957.124 214.869C957.124 220.456 956 225.369 953.751 229.607C951.502 233.821 948.27 237.111 944.056 239.479C939.842 241.822 934.776 242.994 928.857 242.994ZM928.999 228.506C930.657 228.506 932.089 227.949 933.296 226.837C934.504 225.724 935.439 224.138 936.102 222.078C936.765 220.018 937.096 217.568 937.096 214.727C937.096 211.863 936.765 209.412 936.102 207.376C935.439 205.317 934.504 203.731 933.296 202.618C932.089 201.505 930.657 200.949 928.999 200.949C927.248 200.949 925.744 201.505 924.49 202.618C923.235 203.731 922.276 205.317 921.613 207.376C920.95 209.412 920.619 211.863 920.619 214.727C920.619 217.568 920.95 220.018 921.613 222.078C922.276 224.138 923.235 225.724 924.49 226.837C925.744 227.949 927.248 228.506 928.999 228.506ZM980.127 187.455L988.081 204.358L996.462 187.455H1015.92L1001.29 214.727L1016.63 242H997.314L988.081 224.67L979.133 242H959.53L975.013 214.727L960.525 187.455H980.127Z" fill="url(#paint1_linear_50_26)"/>
<path d="M450.972 192L441.004 192.797L441.74 202H450.972V192ZM448.309 186.46L441.839 194.085L441.867 194.109L441.896 194.133L448.309 186.46ZM436.164 185.217L439.637 194.595L439.684 194.577L439.731 194.56L436.164 185.217ZM433.323 187.17L425.296 181.207L425.296 181.207L433.323 187.17ZM432.364 190.011L442.35 190.551L442.358 190.392L442.362 190.234L432.364 190.011ZM432.826 192.391L423.882 196.863L423.972 197.044L424.07 197.221L432.826 192.391ZM434.601 194.273L428.835 202.442L428.916 202.5L428.998 202.556L434.601 194.273ZM442.165 196.972L444.261 187.194L444.219 187.185L444.178 187.176L442.165 196.972ZM448.131 198.25L446.036 208.028L446.048 208.031L446.06 208.033L448.131 198.25ZM458.465 201.624L454.082 210.612L458.465 201.624ZM465.496 206.56L458.291 213.494L458.313 213.517L458.335 213.539L465.496 206.56ZM469.509 212.881L460.111 216.298L460.126 216.34L460.142 216.382L469.509 212.881ZM470.858 220.551L480.858 220.601L480.859 220.533L480.858 220.466L470.858 220.551ZM467.272 232.696L475.409 238.508V238.508L467.272 232.696ZM457.116 240.26L453.462 230.951L453.454 230.955L453.445 230.958L457.116 240.26ZM424.765 240.047L421.059 249.335L421.067 249.338L421.075 249.341L424.765 240.047ZM413.827 231.418L405.483 236.93L405.503 236.959L405.522 236.988L413.827 231.418ZM409.921 216.432V206.432H399.882L399.921 216.471L409.921 216.432ZM428.671 216.432L438.657 215.901L438.153 206.432H428.671V216.432ZM430.34 222.043L421.98 227.529H421.98L430.34 222.043ZM434.53 225.487L430.548 234.66L430.569 234.669L430.591 234.679L434.53 225.487ZM446.32 225.878L449.763 235.267H449.763L446.32 225.878ZM449.552 223.712L457.38 229.934L457.38 229.934L449.552 223.712ZM450.688 220.551L460.686 220.751L460.69 220.545L460.686 220.338L450.688 220.551ZM449.587 217.639L441.8 223.912L441.895 224.031L441.995 224.147L449.587 217.639ZM446.178 215.366L442.206 224.544L442.264 224.569L442.322 224.593L446.178 215.366ZM439.751 213.449L441.893 203.681L441.876 203.677L441.859 203.674L439.751 213.449ZM432.506 211.886L430.386 221.659L430.398 221.662L432.506 211.886ZM417.272 204.891L410.619 212.357L410.645 212.379L410.67 212.402L417.272 204.891ZM411.768 191.432L421.767 191.473L421.768 191.427L421.767 191.381L411.768 191.432ZM415.461 179.322L407.35 173.474L407.342 173.484L415.461 179.322ZM425.866 171.19L421.868 162.024L421.859 162.028L421.85 162.032L425.866 171.19ZM456.405 171.226L452.237 180.316H452.237L456.405 171.226ZM466.313 179.536L457.925 184.98L457.946 185.012L457.967 185.044L466.313 179.536ZM469.864 192V202H479.914L479.864 191.95L469.864 192ZM450.972 192L460.94 191.203C460.571 186.592 458.679 182.095 454.722 178.787L448.309 186.46L441.896 194.133C441.604 193.889 441.332 193.547 441.152 193.172C440.984 192.824 440.992 192.649 441.004 192.797L450.972 192ZM448.309 186.46L454.779 178.835C450.637 175.321 445.477 174.472 441.171 174.472V184.472V194.472C441.628 194.472 441.978 194.496 442.234 194.526C442.491 194.556 442.628 194.59 442.669 194.602C442.747 194.624 442.362 194.529 441.839 194.085L448.309 186.46ZM441.171 184.472V174.472C438.428 174.472 435.434 174.792 432.597 175.875L436.164 185.217L439.731 194.56C439.582 194.616 439.602 194.588 439.865 194.549C440.125 194.51 440.549 194.472 441.171 194.472V184.472ZM436.164 185.217L432.691 175.84C430.167 176.774 427.383 178.397 425.296 181.207L433.323 187.17L441.35 193.134C440.932 193.697 440.492 194.073 440.16 194.301C439.998 194.413 439.866 194.486 439.777 194.531C439.689 194.575 439.639 194.594 439.637 194.595L436.164 185.217ZM433.323 187.17L425.296 181.207C423.402 183.756 422.435 186.724 422.367 189.789L432.364 190.011L442.362 190.234C442.353 190.646 442.281 191.152 442.097 191.7C441.911 192.251 441.646 192.735 441.35 193.134L433.323 187.17ZM432.364 190.011L422.379 189.472C422.248 191.894 422.671 194.442 423.882 196.863L432.826 192.391L441.77 187.918C442.27 188.919 442.386 189.88 442.35 190.551L432.364 190.011ZM432.826 192.391L424.07 197.221C425.343 199.528 427.102 201.22 428.835 202.442L434.601 194.273L440.368 186.103C440.491 186.19 441.067 186.626 441.582 187.56L432.826 192.391ZM434.601 194.273L428.998 202.556C430.698 203.706 432.543 204.542 434.316 205.178L437.691 195.764L441.065 186.351C440.717 186.226 440.476 186.122 440.325 186.048C440.172 185.974 440.144 185.949 440.204 185.99L434.601 194.273ZM437.691 195.764L434.316 205.178C436.131 205.828 438.1 206.345 440.153 206.767L442.165 196.972L444.178 187.176C442.774 186.888 441.76 186.6 441.065 186.351L437.691 195.764ZM442.165 196.972L440.07 206.75L446.036 208.028L448.131 198.25L450.227 188.472L444.261 187.194L442.165 196.972ZM448.131 198.25L446.06 208.033C449.503 208.762 452.129 209.66 454.082 210.612L458.465 201.624L462.848 192.635C459.072 190.794 454.809 189.442 450.203 188.467L448.131 198.25ZM458.465 201.624L454.082 210.612C456.11 211.601 457.434 212.603 458.291 213.494L465.496 206.56L472.701 199.625C469.913 196.728 466.549 194.44 462.848 192.635L458.465 201.624ZM465.496 206.56L458.335 213.539C459.216 214.443 459.766 215.35 460.111 216.298L469.509 212.881L478.907 209.463C477.547 205.724 475.422 202.417 472.657 199.58L465.496 206.56ZM469.509 212.881L460.142 216.382C460.568 217.522 460.844 218.909 460.859 220.637L470.858 220.551L480.858 220.466C480.826 216.654 480.202 212.927 478.876 209.38L469.509 212.881ZM470.858 220.551L460.859 220.502C460.843 223.587 460.102 225.529 459.135 226.884L467.272 232.696L475.409 238.508C479.177 233.234 480.826 227.08 480.858 220.601L470.858 220.551ZM467.272 232.696L459.135 226.884C458.064 228.382 456.361 229.813 453.462 230.951L457.116 240.26L460.769 249.569C466.677 247.25 471.745 243.639 475.409 238.508L467.272 232.696ZM457.116 240.26L453.445 230.958C450.532 232.107 446.578 232.852 441.313 232.852V242.852V252.852C448.358 252.852 454.939 251.869 460.786 249.562L457.116 240.26ZM441.313 242.852V232.852C435.954 232.852 431.741 232.057 428.454 230.752L424.765 240.047L421.075 249.341C427.211 251.777 434.03 252.852 441.313 252.852V242.852ZM424.765 240.047L428.471 230.759C425.499 229.573 423.523 227.921 422.132 225.847L413.827 231.418L405.522 236.988C409.34 242.68 414.655 246.78 421.059 249.335L424.765 240.047ZM413.827 231.418L422.171 225.906C420.942 224.045 419.939 221.106 419.921 216.393L409.921 216.432L399.921 216.471C399.95 223.926 401.551 230.977 405.483 236.93L413.827 231.418ZM409.921 216.432V226.432H428.671V216.432V206.432H409.921V216.432ZM428.671 216.432L418.685 216.963C418.876 220.552 419.815 224.23 421.98 227.529L430.34 222.043L438.701 216.556C438.777 216.673 438.784 216.725 438.762 216.652C438.737 216.57 438.68 216.336 438.657 215.901L428.671 216.432ZM430.34 222.043L421.98 227.529C424.131 230.808 427.115 233.169 430.548 234.66L434.53 225.487L438.513 216.315C438.394 216.263 438.406 216.251 438.484 216.315C438.52 216.345 438.561 216.384 438.602 216.43C438.644 216.476 438.677 216.52 438.701 216.556L430.34 222.043ZM434.53 225.487L430.591 234.679C433.942 236.115 437.511 236.659 441.029 236.659V226.659V216.659C439.527 216.659 438.765 216.422 438.47 216.296L434.53 225.487ZM441.029 226.659V236.659C443.884 236.659 446.9 236.316 449.763 235.267L446.32 225.878L442.878 216.489C442.9 216.481 442.388 216.659 441.029 216.659V226.659ZM446.32 225.878L449.763 235.267C452.428 234.289 455.222 232.649 457.38 229.934L449.552 223.712L441.723 217.489C442.414 216.621 443.053 216.425 442.878 216.489L446.32 225.878ZM449.552 223.712L457.38 229.934C459.483 227.288 460.619 224.117 460.686 220.751L450.688 220.551L440.69 220.351C440.699 219.92 440.777 219.399 440.976 218.846C441.175 218.292 441.448 217.835 441.723 217.489L449.552 223.712ZM450.688 220.551L460.686 220.338C460.614 216.962 459.428 213.754 457.18 211.131L449.587 217.639L441.995 224.147C441.634 223.727 441.289 223.18 441.041 222.525C440.794 221.872 440.701 221.261 440.69 220.764L450.688 220.551ZM449.587 217.639L457.375 211.366C455.212 208.682 452.363 207.113 450.034 206.14L446.178 215.366L442.322 224.593C442.668 224.738 442.754 224.806 442.673 224.752C442.595 224.7 442.23 224.447 441.8 223.912L449.587 217.639ZM446.178 215.366L450.15 206.189C447.732 205.143 444.894 204.339 441.893 203.681L439.751 213.449L437.608 223.217C440.004 223.742 441.451 224.217 442.206 224.544L446.178 215.366ZM439.751 213.449L441.859 203.674L434.615 202.111L432.506 211.886L430.398 221.662L437.642 223.224L439.751 213.449ZM432.506 211.886L434.626 202.114C429.317 200.962 425.959 199.213 423.874 197.38L417.272 204.891L410.67 212.402C416.018 217.103 422.816 220.017 430.386 221.659L432.506 211.886ZM417.272 204.891L423.924 197.424C422.7 196.334 421.754 194.76 421.767 191.473L411.768 191.432L401.768 191.39C401.734 199.467 404.457 206.866 410.619 212.357L417.272 204.891ZM411.768 191.432L421.767 191.381C421.754 188.689 422.433 186.756 423.579 185.161L415.461 179.322L407.342 173.484C403.517 178.802 401.734 184.942 401.768 191.483L411.768 191.432ZM415.461 179.322L423.572 185.171C424.909 183.317 426.879 181.665 429.881 180.349L425.866 171.19L421.85 162.032C415.998 164.598 411.031 168.368 407.35 173.474L415.461 179.322ZM425.866 171.19L429.864 180.356C432.842 179.057 436.544 178.278 441.171 178.278V168.278V158.278C434.293 158.278 427.79 159.441 421.868 162.024L425.866 171.19ZM441.171 168.278V178.278C445.947 178.278 449.54 179.079 452.237 180.316L456.405 171.226L460.574 162.136C454.701 159.443 448.137 158.278 441.171 158.278V168.278ZM456.405 171.226L452.237 180.316C454.988 181.577 456.745 183.162 457.925 184.98L466.313 179.536L474.701 174.091C471.241 168.76 466.393 164.805 460.574 162.136L456.405 171.226ZM466.313 179.536L457.967 185.044C459.117 186.787 459.849 188.995 459.864 192.05L469.864 192L479.864 191.95C479.832 185.488 478.196 179.386 474.659 174.027L466.313 179.536ZM469.864 192V182H450.972V192V202H469.864V192ZM498.256 211.318L488.256 211.187L488.256 211.252V211.318H498.256ZM498.256 242V252H508.256V242H498.256ZM478.653 242H468.653V252H478.653V242ZM478.653 169.273V159.273H468.653V169.273H478.653ZM497.545 169.273H507.545V159.273H497.545V169.273ZM497.545 197.824H487.545V207.824H497.545V197.824ZM498.113 197.824V207.824H505.183L507.541 201.159L498.113 197.824ZM504.257 189.692L509.867 197.97L509.89 197.954L509.914 197.938L504.257 189.692ZM524.64 189.372L519.392 197.884L519.407 197.894L519.423 197.903L524.64 189.372ZM531.281 196.616L522.364 201.143L522.378 201.171L522.392 201.198L531.281 196.616ZM533.625 207.199L523.625 207.139L523.625 207.169V207.199H533.625ZM533.625 242V252H543.625V242H533.625ZM514.023 242H504.023V252H514.023V242ZM514.023 211.318L504.023 211.23L504.023 211.274V211.318H514.023ZM511.998 204.962L504.48 211.555L504.508 211.587L504.537 211.62L511.998 204.962ZM502.02 203.719L507.037 212.369L507.063 212.354L507.09 212.338L502.02 203.719ZM499.25 206.702L490.338 202.165L490.322 202.197L490.306 202.23L499.25 206.702ZM498.256 211.318H488.256V242H498.256H508.256V211.318H498.256ZM498.256 242V232H478.653V242V252H498.256V242ZM478.653 242H488.653V169.273H478.653H468.653V242H478.653ZM478.653 169.273V179.273H497.545V169.273V159.273H478.653V169.273ZM497.545 169.273H487.545V197.824H497.545H507.545V169.273H497.545ZM497.545 197.824V207.824H498.113V197.824V187.824H497.545V197.824ZM498.113 197.824L507.541 201.159C508.11 199.549 508.891 198.631 509.867 197.97L504.257 189.692L498.647 181.414C493.893 184.635 490.579 189.139 488.686 194.489L498.113 197.824ZM504.257 189.692L509.914 197.938C510.86 197.289 512.256 196.744 514.591 196.744V186.744V176.744C508.876 176.744 503.383 178.165 498.6 181.445L504.257 189.692ZM514.591 186.744V196.744C516.891 196.744 518.362 197.249 519.392 197.884L524.64 189.372L529.889 180.86C525.237 177.992 520.009 176.744 514.591 176.744V186.744ZM524.64 189.372L519.423 197.903C520.662 198.661 521.616 199.669 522.364 201.143L531.281 196.616L540.198 192.09C537.821 187.409 534.348 183.587 529.858 180.841L524.64 189.372ZM531.281 196.616L522.392 201.198C523.136 202.64 523.641 204.534 523.625 207.139L533.625 207.199L543.625 207.258C543.656 201.909 542.599 196.748 540.17 192.035L531.281 196.616ZM533.625 207.199H523.625V242H533.625H543.625V207.199H533.625ZM533.625 242V232H514.023V242V252H533.625V242ZM514.023 242H524.023V211.318H514.023H504.023V242H514.023ZM514.023 211.318L524.022 211.406C524.061 207.008 522.946 202.211 519.46 198.304L511.998 204.962L504.537 211.62C504.388 211.452 504.266 211.277 504.172 211.11C504.079 210.944 504.029 210.813 504.006 210.739C503.962 210.6 504.027 210.722 504.023 211.23L514.023 211.318ZM511.998 204.962L519.517 198.368C515.848 194.184 510.892 192.653 506.21 192.653V202.653V212.653C506.453 212.653 506.266 212.691 505.835 212.519C505.356 212.328 504.862 211.991 504.48 211.555L511.998 204.962ZM506.21 202.653V192.653C503.082 192.653 499.889 193.37 496.95 195.099L502.02 203.719L507.09 212.338C506.857 212.475 506.627 212.563 506.437 212.611C506.254 212.658 506.165 212.653 506.21 212.653V202.653ZM502.02 203.719L497.003 195.068C494.037 196.789 491.814 199.267 490.338 202.165L499.25 206.702L508.161 211.239C508.105 211.35 507.983 211.552 507.767 211.784C507.549 212.019 507.295 212.219 507.037 212.369L502.02 203.719ZM499.25 206.702L490.306 202.23C488.841 205.16 488.295 208.259 488.256 211.187L498.256 211.318L508.255 211.45C508.259 211.122 508.29 210.956 508.298 210.92C508.304 210.889 508.286 210.991 508.194 211.174L499.25 206.702ZM549.268 241.148L545.259 250.309L545.309 250.331L545.358 250.352L549.268 241.148ZM543.018 235.892L534.62 241.321V241.321L543.018 235.892ZM542.272 219.308L551.276 223.659L551.285 223.639L551.295 223.619L542.272 219.308ZM546.533 214.088L552.483 222.125V222.125L546.533 214.088ZM552.89 210.999L550.093 201.398L550.081 201.401L550.068 201.405L552.89 210.999ZM560.773 209.614L561.527 219.585L561.537 219.584L561.546 219.584L560.773 209.614ZM568.124 208.761L569.891 218.604L569.94 218.595L569.99 218.586L568.124 208.761ZM572.172 207.305L578.136 215.333L578.209 215.279L578.28 215.223L572.172 207.305ZM571.782 201.375L566.071 209.584V209.584L571.782 201.375ZM563.01 201.482L568.711 209.697L568.728 209.686L568.745 209.674L563.01 201.482ZM560.915 205.21V215.21H569.606L570.818 206.605L560.915 205.21ZM542.876 205.21L532.901 204.498L532.136 215.21H542.876V205.21ZM546.036 196.048L537.737 190.469L537.732 190.477L537.726 190.485L546.036 196.048ZM554.31 189.301L558.52 198.372L558.544 198.361L558.568 198.349L554.31 189.301ZM578.387 188.129L575.534 197.714L575.567 197.724L575.601 197.733L578.387 188.129ZM586.306 191.929L580.306 199.929L580.334 199.95L580.362 199.971L586.306 191.929ZM591.278 197.611L582.412 202.236L582.442 202.294L582.473 202.352L591.278 197.611ZM593.018 242V252H603.018V242H593.018ZM574.694 242H564.694V252H574.694V242ZM574.694 234.33H584.694V224.33H574.694V234.33ZM574.268 234.33V224.33H568.276L565.45 229.613L574.268 234.33ZM570.29 239.266L564.029 231.468L564 231.492L563.971 231.515L570.29 239.266ZM564.999 242L562.252 232.385L562.237 232.389L562.221 232.394L564.999 242ZM569.083 229.571L564.872 220.501L564.84 220.516L564.809 220.53L569.083 229.571ZM572.314 226.908L564.177 221.095V221.095L572.314 226.908ZM573.557 218.136H583.557V203.241L569.771 208.881L573.557 218.136ZM571.888 218.74L568.841 209.216L568.783 209.234L568.726 209.253L571.888 218.74ZM570.042 219.273L567.616 209.571L567.574 209.582L567.532 209.593L570.042 219.273ZM567.982 219.734L566.082 209.917L566.051 209.922L566.021 209.929L567.982 219.734ZM565.745 220.125L564.247 210.238L564.224 210.241L564.201 210.245L565.745 220.125ZM562.016 221.297L566.835 230.059L566.872 230.039L566.909 230.018L562.016 221.297ZM559.885 223.25L551.333 218.067L551.31 218.106L551.287 218.145L559.885 223.25ZM560.809 229.287L566.837 221.308V221.308L560.809 229.287ZM558.501 242.852V232.852C556.104 232.852 554.397 232.462 553.177 231.944L549.268 241.148L545.358 250.352C549.488 252.106 553.937 252.852 558.501 252.852V242.852ZM549.268 241.148L553.276 231.986C552.352 231.582 551.824 231.095 551.416 230.463L543.018 235.892L534.62 241.321C537.241 245.376 540.88 248.394 545.259 250.309L549.268 241.148ZM543.018 235.892L551.416 230.463C551.216 230.154 550.745 229.205 550.745 226.943H540.745H530.745C530.745 231.926 531.789 236.942 534.62 241.321L543.018 235.892ZM540.745 226.943H550.745C550.745 225.066 551.068 224.089 551.276 223.659L542.272 219.308L533.268 214.958C531.44 218.741 530.745 222.854 530.745 226.943H540.745ZM542.272 219.308L551.295 223.619C551.638 222.9 552.028 222.462 552.483 222.125L546.533 214.088L540.583 206.051C537.392 208.413 534.941 211.455 533.249 214.997L542.272 219.308ZM546.533 214.088L552.483 222.125C553.265 221.547 554.3 221.007 555.711 220.592L552.89 210.999L550.068 201.405C546.65 202.41 543.448 203.93 540.583 206.051L546.533 214.088ZM552.89 210.999L555.686 220.6C557.389 220.104 559.326 219.752 561.527 219.585L560.773 209.614L560.019 199.642C556.586 199.902 553.267 200.473 550.093 201.398L552.89 210.999ZM560.773 209.614L561.546 219.584C564.754 219.335 567.576 219.02 569.891 218.604L568.124 208.761L566.357 198.919C564.979 199.166 562.901 199.419 560 199.644L560.773 209.614ZM568.124 208.761L569.99 218.586C572.295 218.148 575.459 217.322 578.136 215.333L572.172 207.305L566.209 199.278C566.533 199.037 566.795 198.892 566.942 198.818C567.092 198.742 567.172 198.715 567.155 198.721C567.14 198.726 567.061 198.754 566.903 198.795C566.748 198.835 566.535 198.884 566.259 198.937L568.124 208.761ZM572.172 207.305L578.28 215.223C581.55 212.701 583.415 208.942 583.415 204.784H573.415H563.415C563.415 203.945 563.592 202.877 564.135 201.774C564.678 200.673 565.413 199.89 566.064 199.388L572.172 207.305ZM573.415 204.784H583.415V204.642H573.415H563.415V204.784H573.415ZM573.415 204.642H583.415C583.415 200.221 581.485 195.944 577.492 193.166L571.782 201.375L566.071 209.584C565.368 209.095 564.604 208.316 564.063 207.232C563.534 206.174 563.415 205.226 563.415 204.642H573.415ZM571.782 201.375L577.492 193.166C574.307 190.95 570.758 190.239 567.591 190.239V200.239V210.239C567.834 210.239 567.078 210.285 566.071 209.584L571.782 201.375ZM567.591 200.239V190.239C564.271 190.239 560.574 190.981 557.276 193.289L563.01 201.482L568.745 209.674C567.815 210.325 567.172 210.239 567.591 210.239V200.239ZM563.01 201.482L557.31 193.266C553.402 195.977 551.553 199.979 551.013 203.816L560.915 205.21L570.818 206.605C570.795 206.766 570.699 207.268 570.335 207.916C569.95 208.601 569.388 209.228 568.711 209.697L563.01 201.482ZM560.915 205.21V195.21H542.876V205.21V215.21H560.915V205.21ZM542.876 205.21L552.85 205.923C552.961 204.364 553.431 202.978 554.346 201.612L546.036 196.048L537.726 190.485C534.901 194.706 533.263 199.428 532.901 204.498L542.876 205.21ZM546.036 196.048L554.335 201.627C555.043 200.575 556.258 199.421 558.52 198.372L554.31 189.301L550.101 180.23C545.118 182.543 540.817 185.887 537.737 190.469L546.036 196.048ZM554.31 189.301L558.568 198.349C560.474 197.452 563.432 196.744 567.876 196.744V186.744V176.744C561.476 176.744 555.391 177.741 550.052 180.253L554.31 189.301ZM567.876 186.744V196.744C571.008 196.744 573.527 197.116 575.534 197.714L578.387 188.129L581.24 178.545C577.045 177.296 572.555 176.744 567.876 176.744V186.744ZM578.387 188.129L575.601 197.733C577.754 198.358 579.255 199.141 580.306 199.929L586.306 191.929L592.306 183.929C589.001 181.45 585.223 179.7 581.173 178.525L578.387 188.129ZM586.306 191.929L580.362 199.971C581.446 200.772 582.047 201.537 582.412 202.236L591.278 197.611L600.143 192.985C598.235 189.328 595.522 186.306 592.25 183.887L586.306 191.929ZM591.278 197.611L582.473 202.352C582.82 202.997 583.018 203.703 583.018 204.642H593.018H603.018C603.018 200.515 602.055 196.534 600.082 192.87L591.278 197.611ZM593.018 204.642H583.018V242H593.018H603.018V204.642H593.018ZM593.018 242V232H574.694V242V252H593.018V242ZM574.694 242H584.694V234.33H574.694H564.694V242H574.694ZM574.694 234.33V224.33H574.268V234.33V244.33H574.694V234.33ZM574.268 234.33L565.45 229.613C564.901 230.64 564.392 231.177 564.029 231.468L570.29 239.266L576.552 247.063C579.313 244.845 581.457 242.091 583.085 239.046L574.268 234.33ZM570.29 239.266L563.971 231.515C563.528 231.877 562.991 232.174 562.252 232.385L564.999 242L567.746 251.615C570.984 250.69 573.975 249.164 576.61 247.016L570.29 239.266ZM564.999 242L562.221 232.394C561.288 232.663 560.072 232.852 558.501 232.852V242.852V252.852C561.663 252.852 564.78 252.473 567.777 251.606L564.999 242ZM564.893 230.494V240.494C567.808 240.494 570.67 239.882 573.357 238.612L569.083 229.571L564.809 220.53C564.818 220.526 564.832 220.52 564.852 220.513C564.871 220.507 564.89 220.501 564.907 220.498C564.915 220.496 564.922 220.495 564.927 220.494C564.931 220.493 564.934 220.493 564.934 220.493C564.934 220.493 564.931 220.493 564.924 220.494C564.917 220.494 564.907 220.494 564.893 220.494V230.494ZM569.083 229.571L573.294 238.641C576.147 237.317 578.592 235.324 580.452 232.72L572.314 226.908L564.177 221.095C564.259 220.981 564.376 220.849 564.525 220.727C564.673 220.605 564.8 220.534 564.872 220.501L569.083 229.571ZM572.314 226.908L580.452 232.72C582.68 229.6 583.557 226.074 583.557 222.682H573.557H563.557C563.557 222.676 563.559 222.481 563.653 222.16C563.751 221.825 563.923 221.451 564.177 221.095L572.314 226.908ZM573.557 222.682H583.557V218.136H573.557H563.557V222.682H573.557ZM573.557 218.136L569.771 208.881C569.516 208.985 569.208 209.098 568.841 209.216L571.888 218.74L574.936 228.264C575.752 228.003 576.557 227.714 577.344 227.392L573.557 218.136ZM571.888 218.74L568.726 209.253C568.432 209.351 568.065 209.459 567.616 209.571L570.042 219.273L572.467 228.974C573.344 228.755 574.209 228.508 575.051 228.227L571.888 218.74ZM570.042 219.273L567.532 209.593C567.119 209.7 566.637 209.809 566.082 209.917L567.982 219.734L569.882 229.552C570.795 229.376 571.686 229.177 572.551 228.953L570.042 219.273ZM567.982 219.734L566.021 209.929C565.477 210.037 564.887 210.141 564.247 210.238L565.745 220.125L567.243 230.012C568.165 229.872 569.066 229.716 569.943 229.54L567.982 219.734ZM565.745 220.125L564.201 210.245C561.923 210.601 559.444 211.274 557.124 212.575L562.016 221.297L566.909 230.018C566.701 230.135 566.603 230.158 566.675 230.135C566.746 230.113 566.94 230.06 567.289 230.005L565.745 220.125ZM562.016 221.297L557.197 212.535C554.996 213.745 552.87 215.532 551.333 218.067L559.885 223.25L568.437 228.433C567.848 229.405 567.142 229.89 566.835 230.059L562.016 221.297ZM559.885 223.25L551.287 218.145C549.851 220.563 549.211 223.202 549.211 225.807H559.211H569.211C569.211 226.517 569.02 227.452 568.484 228.355L559.885 223.25ZM559.211 225.807H549.211C549.211 229.975 550.852 234.298 554.78 237.266L560.809 229.287L566.837 221.308C567.56 221.855 568.243 222.648 568.698 223.64C569.135 224.591 569.211 225.39 569.211 225.807H559.211ZM560.809 229.287L554.78 237.266C557.965 239.671 561.594 240.494 564.893 240.494V230.494V220.494C564.867 220.494 565.085 220.491 565.464 220.603C565.862 220.721 566.352 220.941 566.837 221.308L560.809 229.287ZM611.404 239.656L606.087 248.126L606.101 248.134L606.115 248.143L611.404 239.656ZM603.591 230.388L594.536 234.631L594.546 234.652L594.556 234.673L603.591 230.388ZM603.733 198.676L594.789 194.204L594.779 194.225L594.768 194.245L603.733 198.676ZM611.688 189.621L606.626 180.997L606.612 181.005L606.598 181.013L611.688 189.621ZM629.088 188.165L624.871 197.232L624.914 197.252L624.958 197.272L629.088 188.165ZM634.202 191.893L626.69 198.495L626.715 198.523L626.74 198.551L634.202 191.893ZM637.327 196.972L627.993 200.561L630.459 206.972H637.327V196.972ZM637.611 196.972V206.972H647.611V196.972H637.611ZM637.611 169.273V159.273H627.611V169.273H637.611ZM657.213 169.273H667.213V159.273H657.213V169.273ZM657.213 242V252H667.213V242H657.213ZM637.753 242H627.753V252H637.753V242ZM637.753 233.051H647.753V223.051H637.753V233.051ZM637.327 233.051V223.051H630.621L628.075 229.256L637.327 233.051ZM634.06 238.023L626.874 231.069L626.872 231.07L634.06 238.023ZM628.946 241.467L632.792 250.698L632.819 250.687L632.846 250.676L628.946 241.467ZM633.989 226.091L640.306 233.843L640.313 233.837L640.321 233.83L633.989 226.091ZM636.972 221.616L627.581 218.181L627.569 218.213L627.557 218.246L636.972 221.616ZM636.972 207.803L627.544 211.137L627.569 211.206L627.594 211.276L636.972 207.803ZM633.989 203.364L627.672 211.116L627.75 211.18L627.83 211.242L633.989 203.364ZM624.756 203.364L631.056 211.129L631.064 211.123L631.073 211.116L624.756 203.364ZM621.844 207.803L612.416 204.468L612.404 204.502L612.393 204.535L621.844 207.803ZM621.844 221.688L612.38 224.919L612.404 224.989L612.429 225.058L621.844 221.688ZM624.756 226.126L618.368 233.821L618.447 233.886L618.527 233.949L624.756 226.126ZM622.128 242.71V232.71C620.098 232.71 618.358 232.207 616.693 231.169L611.404 239.656L606.115 248.143C610.983 251.177 616.393 252.71 622.128 252.71V242.71ZM611.404 239.656L616.72 231.187C615.384 230.348 613.938 228.868 612.626 226.102L603.591 230.388L594.556 234.673C597.174 240.193 600.937 244.893 606.087 248.126L611.404 239.656ZM603.591 230.388L612.646 226.145C611.515 223.731 610.679 220.078 610.679 214.727H600.679H590.679C590.679 221.972 591.784 228.758 594.536 234.631L603.591 230.388ZM600.679 214.727H610.679C610.679 209.064 611.572 205.384 612.698 203.107L603.733 198.676L594.768 194.245C591.822 200.206 590.679 207.228 590.679 214.727H600.679ZM603.733 198.676L612.677 203.148C614.069 200.365 615.525 198.969 616.777 198.229L611.688 189.621L606.598 181.013C601.364 184.108 597.517 188.749 594.789 194.204L603.733 198.676ZM611.688 189.621L616.75 198.245C618.566 197.179 620.262 196.744 621.986 196.744V186.744V176.744C616.513 176.744 611.343 178.228 606.626 180.997L611.688 189.621ZM621.986 186.744V196.744C623.518 196.744 624.396 197.011 624.871 197.232L629.088 188.165L633.306 179.098C629.709 177.425 625.852 176.744 621.986 176.744V186.744ZM629.088 188.165L624.958 197.272C625.8 197.654 626.322 198.076 626.69 198.495L634.202 191.893L641.714 185.292C639.335 182.586 636.448 180.522 633.218 179.057L629.088 188.165ZM634.202 191.893L626.74 198.551C627.344 199.228 627.735 199.89 627.993 200.561L637.327 196.972L646.66 193.382C645.498 190.36 643.806 187.637 641.663 185.236L634.202 191.893ZM637.327 196.972V206.972H637.611V196.972V186.972H637.327V196.972ZM637.611 196.972H647.611V169.273H637.611H627.611V196.972H637.611ZM637.611 169.273V179.273H657.213V169.273V159.273H637.611V169.273ZM657.213 169.273H647.213V242H657.213H667.213V169.273H657.213ZM657.213 242V232H637.753V242V252H657.213V242ZM637.753 242H647.753V233.051H637.753H627.753V242H637.753ZM637.753 233.051V223.051H637.327V233.051V243.051H637.753V233.051ZM637.327 233.051L628.075 229.256C627.811 229.9 627.433 230.491 626.874 231.069L634.06 238.023L641.246 244.977C643.528 242.619 645.328 239.895 646.579 236.847L637.327 233.051ZM634.06 238.023L626.872 231.07C626.488 231.468 625.932 231.884 625.046 232.259L628.946 241.467L632.846 250.676C635.985 249.346 638.838 247.466 641.248 244.975L634.06 238.023ZM628.946 241.467L625.1 232.237C624.535 232.472 623.607 232.71 622.128 232.71V242.71V252.71C625.763 252.71 629.38 252.12 632.792 250.698L628.946 241.467ZM629.372 227.653V237.653C633.249 237.653 637.077 236.474 640.306 233.843L633.989 226.091L627.672 218.339C627.945 218.117 628.291 217.919 628.67 217.791C629.038 217.666 629.298 217.653 629.372 217.653V227.653ZM633.989 226.091L640.321 233.83C643.298 231.395 645.217 228.253 646.387 224.987L636.972 221.616L627.557 218.246C627.452 218.539 627.379 218.643 627.391 218.626C627.397 218.617 627.421 218.582 627.468 218.53C627.515 218.477 627.578 218.416 627.656 218.351L633.989 226.091ZM636.972 221.616L646.363 225.052C647.572 221.749 648.037 218.235 648.037 214.727H638.037H628.037C628.037 216.522 627.792 217.602 627.581 218.181L636.972 221.616ZM638.037 214.727H648.037C648.037 211.201 647.579 207.651 646.349 204.329L636.972 207.803L627.594 211.276C627.785 211.79 628.037 212.856 628.037 214.727H638.037ZM636.972 207.803L646.4 204.468C645.234 201.173 643.28 197.934 640.148 195.486L633.989 203.364L627.83 211.242C627.714 211.151 627.619 211.061 627.546 210.982C627.474 210.903 627.431 210.843 627.411 210.814C627.374 210.759 627.439 210.839 627.544 211.137L636.972 207.803ZM633.989 203.364L640.306 195.611C637.077 192.98 633.249 191.801 629.372 191.801V201.801V211.801C629.298 211.801 629.038 211.788 628.67 211.664C628.291 211.536 627.945 211.338 627.672 211.116L633.989 203.364ZM629.372 201.801V191.801C625.496 191.801 621.668 192.98 618.439 195.611L624.756 203.364L631.073 211.116C630.8 211.338 630.454 211.536 630.075 211.664C629.707 211.788 629.447 211.801 629.372 211.801V201.801ZM624.756 203.364L618.455 195.598C615.427 198.055 613.551 201.26 612.416 204.468L621.844 207.803L631.272 211.137C631.39 210.803 631.468 210.691 631.448 210.722C631.437 210.739 631.401 210.791 631.334 210.866C631.267 210.942 631.175 211.033 631.056 211.129L624.756 203.364ZM621.844 207.803L612.393 204.535C611.269 207.787 610.85 211.261 610.85 214.727H620.85H630.85C630.85 212.796 631.093 211.654 631.295 211.07L621.844 207.803ZM620.85 214.727H610.85C610.85 218.199 611.27 221.668 612.38 224.919L621.844 221.688L631.307 218.456C631.092 217.825 630.85 216.653 630.85 214.727H620.85ZM621.844 221.688L612.429 225.058C613.571 228.246 615.431 231.382 618.368 233.821L624.756 226.126L631.143 218.432C631.239 218.512 631.313 218.586 631.365 218.646C631.418 218.705 631.444 218.743 631.448 218.75C631.456 218.762 631.375 218.641 631.259 218.317L621.844 221.688ZM624.756 226.126L618.527 233.949C621.756 236.521 625.553 237.653 629.372 237.653V227.653V217.653C629.423 217.653 629.661 217.662 630.009 217.778C630.369 217.897 630.709 218.084 630.985 218.304L624.756 226.126ZM677.916 239.479L673.018 248.197L673.037 248.208L673.056 248.218L677.916 239.479ZM668.222 229.607L659.389 234.294L659.394 234.305L659.4 234.315L668.222 229.607ZM668.222 200.168L677.044 204.876L677.049 204.866L677.055 204.856L668.222 200.168ZM677.916 190.295L682.777 199.035L682.796 199.024L682.814 199.014L677.916 190.295ZM708.314 190.295L703.416 199.014L703.435 199.024L703.453 199.035L708.314 190.295ZM718.009 200.168L709.176 204.856L709.181 204.866L709.187 204.876L718.009 200.168ZM718.009 229.607L726.831 234.315L726.836 234.305L726.842 234.294L718.009 229.607ZM708.314 239.479L713.175 248.218L713.193 248.208L713.212 248.197L708.314 239.479ZM697.554 226.837L704.331 234.19V234.19L697.554 226.837ZM700.36 222.078L709.879 225.142V225.142L700.36 222.078ZM700.36 207.376L690.84 210.44L690.846 210.456L690.851 210.472L700.36 207.376ZM697.554 202.618L704.331 195.264V195.264L697.554 202.618ZM685.871 207.376L695.38 210.472L695.385 210.456L695.39 210.44L685.871 207.376ZM685.871 222.078L695.39 219.014V219.014L685.871 222.078ZM688.747 226.837L682.112 234.319L688.747 226.837ZM693.115 242.994V232.994C688.514 232.994 685.202 232.088 682.777 230.739L677.916 239.479L673.056 248.218C679.059 251.557 685.879 252.994 693.115 252.994V242.994ZM677.916 239.479L682.814 230.76C680.243 229.316 678.383 227.407 677.044 224.898L668.222 229.607L659.4 234.315C662.559 240.234 667.161 244.907 673.018 248.197L677.916 239.479ZM668.222 229.607L677.055 224.919C675.689 222.346 674.848 219.092 674.848 214.869H664.848H654.848C654.848 221.821 656.256 228.392 659.389 234.294L668.222 229.607ZM664.848 214.869H674.848C674.848 210.645 675.69 207.413 677.044 204.876L668.222 200.168L659.4 195.459C656.256 201.35 654.848 207.919 654.848 214.869H664.848ZM668.222 200.168L677.055 204.856C678.394 202.333 680.241 200.445 682.777 199.035L677.916 190.295L673.056 181.556C667.163 184.833 662.548 189.527 659.389 195.48L668.222 200.168ZM677.916 190.295L682.814 199.014C685.231 197.656 688.53 196.744 693.115 196.744V186.744V176.744C685.863 176.744 679.029 178.2 673.018 181.577L677.916 190.295ZM693.115 186.744V196.744C697.7 196.744 700.999 197.656 703.416 199.014L708.314 190.295L713.212 181.577C707.201 178.2 700.367 176.744 693.115 176.744V186.744ZM708.314 190.295L703.453 199.035C705.989 200.445 707.837 202.333 709.176 204.856L718.009 200.168L726.842 195.48C723.683 189.527 719.067 184.833 713.175 181.556L708.314 190.295ZM718.009 200.168L709.187 204.876C710.541 207.413 711.382 210.645 711.382 214.869H721.382H731.382C731.382 207.919 729.975 201.35 726.831 195.459L718.009 200.168ZM721.382 214.869H711.382C711.382 219.092 710.541 222.346 709.176 224.919L718.009 229.607L726.842 234.294C729.974 228.392 731.382 221.821 731.382 214.869H721.382ZM718.009 229.607L709.187 224.898C707.847 227.407 705.987 229.316 703.416 230.76L708.314 239.479L713.212 248.197C719.069 244.907 723.672 240.234 726.831 234.315L718.009 229.607ZM708.314 239.479L703.453 230.739C701.029 232.088 697.716 232.994 693.115 232.994V242.994V252.994C700.352 252.994 707.172 251.557 713.175 248.218L708.314 239.479ZM693.257 228.506V238.506C697.4 238.506 701.258 237.022 704.331 234.19L697.554 226.837L690.777 219.483C691.03 219.251 691.426 218.972 691.954 218.767C692.48 218.563 692.945 218.506 693.257 218.506V228.506ZM697.554 226.837L704.331 234.19C707.148 231.594 708.85 228.338 709.879 225.142L700.36 222.078L690.84 219.014C690.697 219.46 690.581 219.676 690.547 219.734C690.517 219.784 690.579 219.666 690.777 219.483L697.554 226.837ZM700.36 222.078L709.879 225.142C710.942 221.838 711.354 218.302 711.354 214.727H701.354H691.354C691.354 216.834 691.103 218.199 690.84 219.014L700.36 222.078ZM701.354 214.727H711.354C711.354 211.143 710.946 207.589 709.868 204.281L700.36 207.376L690.851 210.472C691.099 211.236 691.354 212.582 691.354 214.727H701.354ZM700.36 207.376L709.879 204.313C708.85 201.116 707.148 197.86 704.331 195.264L697.554 202.618L690.777 209.971C690.579 209.789 690.517 209.671 690.547 209.721C690.581 209.778 690.697 209.994 690.84 210.44L700.36 207.376ZM697.554 202.618L704.331 195.264C701.258 192.432 697.4 190.949 693.257 190.949V200.949V210.949C692.945 210.949 692.48 210.892 691.954 210.688C691.426 210.483 691.03 210.204 690.777 209.971L697.554 202.618ZM693.257 200.949V190.949C689.18 190.949 685.284 192.323 682.112 195.136L688.747 202.618L695.382 210.1C695.125 210.328 694.751 210.572 694.287 210.744C693.829 210.914 693.456 210.949 693.257 210.949V200.949ZM688.747 202.618L682.112 195.136C679.183 197.734 677.407 201.033 676.352 204.313L685.871 207.376L695.39 210.44C695.522 210.029 695.627 209.845 695.645 209.815C695.658 209.794 695.583 209.922 695.382 210.1L688.747 202.618ZM685.871 207.376L676.362 204.281C675.285 207.589 674.877 211.143 674.877 214.727H684.877H694.877C694.877 212.582 695.131 211.236 695.38 210.472L685.871 207.376ZM684.877 214.727H674.877C674.877 218.302 675.288 221.838 676.352 225.142L685.871 222.078L695.39 219.014C695.128 218.199 694.877 216.834 694.877 214.727H684.877ZM685.871 222.078L676.352 225.142C677.407 228.421 679.183 231.72 682.112 234.319L688.747 226.837L695.382 219.355C695.583 219.533 695.658 219.66 695.645 219.639C695.627 219.609 695.522 219.426 695.39 219.014L685.871 222.078ZM688.747 226.837L682.112 234.319C685.284 237.131 689.18 238.506 693.257 238.506V228.506V218.506C693.456 218.506 693.829 218.541 694.287 218.71C694.751 218.882 695.125 219.127 695.382 219.355L688.747 226.837ZM738.019 242L728.318 244.425L730.212 252H738.019V242ZM724.383 187.455V177.455H711.575L714.682 189.88L724.383 187.455ZM743.985 187.455L753.813 185.607L752.28 177.455H743.985V187.455ZM750.235 220.693L740.408 222.541L741.94 230.693H750.235V220.693ZM750.661 220.693V230.693H758.784L760.449 222.743L750.661 220.693ZM757.622 187.455V177.455H749.499L747.834 185.405L757.622 187.455ZM776.656 187.455L786.423 185.308L784.696 177.455H776.656V187.455ZM783.9 220.409L774.133 222.556L775.86 230.409H783.9V220.409ZM784.326 220.409V230.409H792.678L794.166 222.19L784.326 220.409ZM790.292 187.455V177.455H781.94L780.452 185.673L790.292 187.455ZM809.894 187.455L819.596 189.88L822.702 177.455H809.894V187.455ZM796.258 242V252H804.066L805.959 244.425L796.258 242ZM775.093 242L765.42 244.536L767.377 252H775.093V242ZM767.423 212.739L777.096 210.203L775.139 202.739H767.423V212.739ZM766.855 212.739V202.739H759.138L757.181 210.203L766.855 212.739ZM759.184 242V252H766.901L768.857 244.536L759.184 242ZM738.019 242L747.721 239.575L734.084 185.029L724.383 187.455L714.682 189.88L728.318 244.425L738.019 242ZM724.383 187.455V197.455H743.985V187.455V177.455H724.383V187.455ZM743.985 187.455L734.158 189.303L740.408 222.541L750.235 220.693L760.063 218.845L753.813 185.607L743.985 187.455ZM750.235 220.693V230.693H750.661V220.693V210.693H750.235V220.693ZM750.661 220.693L760.449 222.743L767.409 189.504L757.622 187.455L747.834 185.405L740.874 218.644L750.661 220.693ZM757.622 187.455V197.455H776.656V187.455V177.455H757.622V187.455ZM776.656 187.455L766.889 189.602L774.133 222.556L783.9 220.409L793.667 218.262L786.423 185.308L776.656 187.455ZM783.9 220.409V230.409H784.326V220.409V210.409H783.9V220.409ZM784.326 220.409L794.166 222.19L800.132 189.236L790.292 187.455L780.452 185.673L774.486 218.628L784.326 220.409ZM790.292 187.455V197.455H809.894V187.455V177.455H790.292V187.455ZM809.894 187.455L800.193 185.029L786.557 239.575L796.258 242L805.959 244.425L819.596 189.88L809.894 187.455ZM796.258 242V232H775.093V242V252H796.258V242ZM775.093 242L784.766 239.464L777.096 210.203L767.423 212.739L757.75 215.274L765.42 244.536L775.093 242ZM767.423 212.739V202.739H766.855V212.739V222.739H767.423V212.739ZM766.855 212.739L757.181 210.203L749.511 239.464L759.184 242L768.857 244.536L776.528 215.274L766.855 212.739ZM759.184 242V232H738.019V242V252H759.184V242ZM835.498 242H825.498V252H835.498V242ZM835.498 169.273V159.273H825.498V169.273H835.498ZM880.988 171.51L877.304 180.807L877.314 180.811L877.324 180.815L880.988 171.51ZM889.546 177.831L881.371 183.589L881.387 183.613L881.404 183.637L889.546 177.831ZM890.683 194.77L881.875 190.035L881.855 190.071L881.836 190.109L890.683 194.77ZM885.782 200.31L891.498 208.515L891.529 208.493L891.56 208.472L885.782 200.31ZM878.396 203.364L876.419 193.561L868.396 195.179V203.364H878.396ZM878.396 204.074H868.396V213.702L878.017 214.067L878.396 204.074ZM886.919 206.453L881.94 215.126L881.97 215.143L882.001 215.16L886.919 206.453ZM893.026 212.455L884.424 217.553L884.434 217.57L884.444 217.588L893.026 212.455ZM892.174 232.021L883.873 226.445L883.859 226.467L883.844 226.489L892.174 232.021ZM883.367 239.337L879.145 230.272V230.272L883.367 239.337ZM855.242 226.233H845.242V236.233H855.242V226.233ZM871.933 224.386L877.896 232.414L877.933 232.387L877.969 232.359L871.933 224.386ZM869.909 211.815L865.932 220.991L865.96 221.003L865.988 221.015L869.909 211.815ZM855.242 210.892V200.892H845.242V210.892H855.242ZM855.242 198.676H845.242V208.676H855.242V198.676ZM867.92 197.859L871.719 207.11V207.11L867.92 197.859ZM871.009 195.516L862.922 189.634L862.91 189.651L862.898 189.668L871.009 195.516ZM869.731 186.567L863.731 194.567L863.769 194.595L863.807 194.623L869.731 186.567ZM855.242 184.756V174.756H845.242V184.756H855.242ZM835.498 242H845.498V169.273H835.498H825.498V242H835.498ZM835.498 169.273V179.273H867.032V169.273V159.273H835.498V169.273ZM867.032 169.273V179.273C871.745 179.273 875.058 179.917 877.304 180.807L880.988 171.51L884.672 162.213C879.39 160.12 873.399 159.273 867.032 159.273V169.273ZM880.988 171.51L877.324 180.815C879.702 181.751 880.807 182.788 881.371 183.589L889.546 177.831L897.722 172.073C894.451 167.428 889.85 164.252 884.652 162.205L880.988 171.51ZM889.546 177.831L881.404 183.637C882.011 184.488 882.458 185.615 882.458 187.455H892.458H902.458C902.458 181.908 900.964 176.619 897.688 172.025L889.546 177.831ZM892.458 187.455H882.458C882.458 188.596 882.221 189.39 881.875 190.035L890.683 194.77L899.49 199.505C901.511 195.746 902.458 191.663 902.458 187.455H892.458ZM890.683 194.77L881.836 190.109C881.437 190.865 880.877 191.53 880.005 192.148L885.782 200.31L891.56 208.472C894.902 206.106 897.609 203.078 899.53 199.431L890.683 194.77ZM885.782 200.31L880.066 192.104C879.21 192.701 878.054 193.231 876.419 193.561L878.396 203.364L880.373 213.166C884.372 212.36 888.141 210.854 891.498 208.515L885.782 200.31ZM878.396 203.364H868.396V204.074H878.396H888.396V203.364H878.396ZM878.396 204.074L878.017 214.067C879.626 214.128 880.872 214.513 881.94 215.126L886.919 206.453L891.897 197.781C887.851 195.458 883.416 194.257 878.774 194.081L878.396 204.074ZM886.919 206.453L882.001 215.16C883.015 215.733 883.789 216.481 884.424 217.553L893.026 212.455L901.629 207.357C899.234 203.314 895.935 200.061 891.836 197.746L886.919 206.453ZM893.026 212.455L884.444 217.588C884.889 218.332 885.299 219.48 885.299 221.403H895.299H905.299C905.299 216.462 904.194 211.644 901.608 207.321L893.026 212.455ZM895.299 221.403H885.299C885.299 223.529 884.776 225.101 883.873 226.445L892.174 232.021L900.475 237.598C903.739 232.739 905.299 227.232 905.299 221.403H895.299ZM892.174 232.021L883.844 226.489C882.929 227.866 881.509 229.17 879.145 230.272L883.367 239.337L887.59 248.401C892.849 245.952 897.3 242.379 900.504 237.554L892.174 232.021ZM883.367 239.337L879.145 230.272C876.949 231.295 873.913 232 869.731 232V242V252C876.107 252 882.163 250.929 887.59 248.401L883.367 239.337ZM869.731 242V232H835.498V242V252H869.731V242ZM855.242 226.233V236.233H864.475V226.233V216.233H855.242V226.233ZM864.475 226.233V236.233C868.736 236.233 873.751 235.493 877.896 232.414L871.933 224.386L865.969 216.359C866.427 216.019 866.678 216.001 866.422 216.064C866.156 216.13 865.546 216.233 864.475 216.233V226.233ZM871.933 224.386L877.969 232.359C882.574 228.872 884.419 223.804 884.419 218.847H874.419H864.419C864.419 218.938 864.404 218.566 864.673 217.966C864.965 217.316 865.424 216.771 865.896 216.414L871.933 224.386ZM874.419 218.847H884.419C884.419 215.584 883.654 212.129 881.593 209.006L873.247 214.514L864.901 220.023C864.672 219.677 864.54 219.347 864.472 219.096C864.408 218.858 864.419 218.756 864.419 218.847H874.419ZM873.247 214.514L881.593 209.006C879.616 206.011 876.879 203.916 873.83 202.616L869.909 211.815L865.988 221.015C865.941 220.995 865.768 220.913 865.539 220.728C865.304 220.538 865.081 220.296 864.901 220.023L873.247 214.514ZM869.909 211.815L873.885 202.64C870.893 201.344 867.748 200.892 864.759 200.892V210.892V220.892C865.796 220.892 866.083 221.056 865.932 220.991L869.909 211.815ZM864.759 210.892V200.892H855.242V210.892V220.892H864.759V210.892ZM855.242 210.892H845.242V226.233H855.242H865.242V210.892H855.242ZM855.242 198.676V208.676H863.339V198.676V188.676H855.242V198.676ZM863.339 198.676V208.676C866.108 208.676 868.967 208.24 871.719 207.11L867.92 197.859L864.121 188.609C864.221 188.568 864.026 188.676 863.339 188.676V198.676ZM867.92 197.859L871.719 207.11C874.521 205.959 877.147 204.102 879.121 201.364L871.009 195.516L862.898 189.668C863.128 189.348 863.391 189.089 863.643 188.898C863.888 188.712 864.069 188.631 864.121 188.609L867.92 197.859ZM871.009 195.516L879.097 201.397C881.286 198.387 882.146 194.975 882.146 191.716H872.146H862.146C862.146 191.614 862.159 191.326 862.281 190.919C862.407 190.499 862.619 190.051 862.922 189.634L871.009 195.516ZM872.146 191.716H882.146C882.146 186.745 880.176 181.835 875.655 178.51L869.731 186.567L863.807 194.623C863.342 194.281 862.833 193.723 862.488 192.988C862.162 192.292 862.146 191.788 862.146 191.716H872.146ZM869.731 186.567L875.731 178.567C872.033 175.793 867.755 174.756 863.623 174.756V184.756V194.756C864.041 194.756 864.192 194.807 864.154 194.796C864.134 194.79 864.077 194.771 863.995 194.73C863.912 194.689 863.821 194.634 863.731 194.567L869.731 186.567ZM863.623 184.756V174.756H855.242V184.756V194.756H863.623V184.756ZM855.242 184.756H845.242V198.676H855.242H865.242V184.756H855.242ZM913.659 239.479L908.761 248.197L908.779 248.208L908.798 248.218L913.659 239.479ZM903.964 229.607L895.131 234.294L895.136 234.305L895.142 234.315L903.964 229.607ZM903.964 200.168L912.786 204.876L912.792 204.866L912.797 204.856L903.964 200.168ZM913.659 190.295L918.519 199.035L918.538 199.024L918.557 199.014L913.659 190.295ZM944.056 190.295L939.158 199.014L939.177 199.024L939.196 199.035L944.056 190.295ZM953.751 200.168L944.918 204.856L944.923 204.866L944.929 204.876L953.751 200.168ZM953.751 229.607L962.573 234.315L962.578 234.305L962.584 234.294L953.751 229.607ZM944.056 239.479L948.917 248.218L948.936 248.208L948.954 248.197L944.056 239.479ZM933.296 226.837L940.073 234.19L940.073 234.19L933.296 226.837ZM936.102 222.078L945.621 225.142V225.142L936.102 222.078ZM936.102 207.376L926.583 210.44L926.588 210.456L926.593 210.472L936.102 207.376ZM933.296 202.618L940.073 195.264L940.073 195.264L933.296 202.618ZM921.613 207.376L931.122 210.472L931.127 210.456L931.132 210.44L921.613 207.376ZM921.613 222.078L931.132 219.014V219.014L921.613 222.078ZM924.49 226.837L917.855 234.319L924.49 226.837ZM928.857 242.994V232.994C924.257 232.994 920.944 232.088 918.519 230.739L913.659 239.479L908.798 248.218C914.801 251.557 921.621 252.994 928.857 252.994V242.994ZM913.659 239.479L918.557 230.76C915.985 229.316 914.125 227.407 912.786 224.898L903.964 229.607L895.142 234.315C898.301 240.234 902.904 244.907 908.761 248.197L913.659 239.479ZM903.964 229.607L912.797 224.919C911.431 222.346 910.59 219.092 910.59 214.869H900.59H890.59C890.59 221.821 891.998 228.392 895.131 234.294L903.964 229.607ZM900.59 214.869H910.59C910.59 210.645 911.432 207.413 912.786 204.876L903.964 200.168L895.142 195.459C891.998 201.35 890.59 207.919 890.59 214.869H900.59ZM903.964 200.168L912.797 204.856C914.136 202.333 915.984 200.445 918.519 199.035L913.659 190.295L908.798 181.556C902.906 184.833 898.29 189.527 895.131 195.48L903.964 200.168ZM913.659 190.295L918.557 199.014C920.974 197.656 924.272 196.744 928.857 196.744V186.744V176.744C921.605 176.744 914.771 178.2 908.761 181.577L913.659 190.295ZM928.857 186.744V196.744C933.443 196.744 936.741 197.656 939.158 199.014L944.056 190.295L948.954 181.577C942.943 178.2 936.109 176.744 928.857 176.744V186.744ZM944.056 190.295L939.196 199.035C941.731 200.445 943.579 202.333 944.918 204.856L953.751 200.168L962.584 195.48C959.425 189.527 954.809 184.833 948.917 181.556L944.056 190.295ZM953.751 200.168L944.929 204.876C946.283 207.413 947.124 210.645 947.124 214.869H957.124H967.124C967.124 207.919 965.717 201.35 962.573 195.459L953.751 200.168ZM957.124 214.869H947.124C947.124 219.092 946.283 222.346 944.918 224.919L953.751 229.607L962.584 234.294C965.717 228.392 967.124 221.821 967.124 214.869H957.124ZM953.751 229.607L944.929 224.898C943.59 227.407 941.729 229.316 939.158 230.76L944.056 239.479L948.954 248.197C954.811 244.907 959.414 240.234 962.573 234.315L953.751 229.607ZM944.056 239.479L939.196 230.739C936.771 232.088 933.458 232.994 928.857 232.994V242.994V252.994C936.094 252.994 942.914 251.557 948.917 248.218L944.056 239.479ZM928.999 228.506V238.506C933.142 238.506 937 237.022 940.073 234.19L933.296 226.837L926.52 219.483C926.772 219.251 927.168 218.972 927.696 218.767C928.222 218.563 928.687 218.506 928.999 218.506V228.506ZM933.296 226.837L940.073 234.19C942.89 231.594 944.592 228.338 945.621 225.142L936.102 222.078L926.583 219.014C926.439 219.46 926.323 219.676 926.289 219.734C926.259 219.784 926.321 219.666 926.52 219.483L933.296 226.837ZM936.102 222.078L945.621 225.142C946.684 221.838 947.096 218.302 947.096 214.727H937.096H927.096C927.096 216.834 926.845 218.199 926.583 219.014L936.102 222.078ZM937.096 214.727H947.096C947.096 211.143 946.688 207.589 945.61 204.281L936.102 207.376L926.593 210.472C926.841 211.236 927.096 212.582 927.096 214.727H937.096ZM936.102 207.376L945.621 204.313C944.592 201.116 942.89 197.86 940.073 195.264L933.296 202.618L926.52 209.971C926.321 209.789 926.259 209.671 926.289 209.721C926.323 209.778 926.439 209.994 926.583 210.44L936.102 207.376ZM933.296 202.618L940.073 195.264C937 192.432 933.142 190.949 928.999 190.949V200.949V210.949C928.687 210.949 928.222 210.892 927.696 210.688C927.168 210.483 926.772 210.204 926.52 209.971L933.296 202.618ZM928.999 200.949V190.949C924.922 190.949 921.026 192.323 917.855 195.136L924.49 202.618L931.124 210.1C930.867 210.328 930.494 210.572 930.029 210.744C929.571 210.914 929.198 210.949 928.999 210.949V200.949ZM924.49 202.618L917.855 195.136C914.925 197.734 913.149 201.033 912.094 204.313L921.613 207.376L931.132 210.44C931.265 210.029 931.369 209.845 931.387 209.815C931.4 209.794 931.325 209.922 931.124 210.1L924.49 202.618ZM921.613 207.376L912.104 204.281C911.027 207.589 910.619 211.143 910.619 214.727H920.619H930.619C930.619 212.582 930.873 211.236 931.122 210.472L921.613 207.376ZM920.619 214.727H910.619C910.619 218.302 911.031 221.838 912.094 225.142L921.613 222.078L931.132 219.014C930.87 218.199 930.619 216.834 930.619 214.727H920.619ZM921.613 222.078L912.094 225.142C913.149 228.421 914.925 231.72 917.855 234.319L924.49 226.837L931.124 219.355C931.325 219.533 931.4 219.66 931.387 219.639C931.369 219.609 931.265 219.426 931.132 219.014L921.613 222.078ZM924.49 226.837L917.855 234.319C921.026 237.131 924.922 238.506 928.999 238.506V228.506V218.506C929.198 218.506 929.571 218.541 930.029 218.71C930.494 218.882 930.867 219.127 931.124 219.355L924.49 226.837ZM980.127 187.455L989.175 183.197L986.473 177.455H980.127V187.455ZM988.081 204.358L979.033 208.616L987.847 227.344L997.041 208.8L988.081 204.358ZM996.462 187.455V177.455H990.259L987.503 183.013L996.462 187.455ZM1015.92 187.455L1024.73 192.182L1032.64 177.455H1015.92V187.455ZM1001.29 214.727L992.48 210L989.882 214.841L992.576 219.63L1001.29 214.727ZM1016.63 242V252H1033.73L1025.35 237.097L1016.63 242ZM997.314 242L988.489 246.702L991.312 252H997.314V242ZM988.081 224.67L996.907 219.968L987.943 203.144L979.196 220.082L988.081 224.67ZM979.133 242V252H985.223L988.018 246.588L979.133 242ZM959.53 242L950.834 237.063L942.354 252H959.53V242ZM975.013 214.727L983.71 219.664L986.422 214.887L983.844 210.036L975.013 214.727ZM960.525 187.455V177.455H943.889L951.694 192.146L960.525 187.455ZM980.127 187.455L971.079 191.713L979.033 208.616L988.081 204.358L997.13 200.1L989.175 183.197L980.127 187.455ZM988.081 204.358L997.041 208.8L1005.42 191.897L996.462 187.455L987.503 183.013L979.122 199.916L988.081 204.358ZM996.462 187.455V197.455H1015.92V187.455V177.455H996.462V187.455ZM1015.92 187.455L1007.11 182.727L992.48 210L1001.29 214.727L1010.1 219.455L1024.73 192.182L1015.92 187.455ZM1001.29 214.727L992.576 219.63L1007.92 246.903L1016.63 242L1025.35 237.097L1010.01 209.825L1001.29 214.727ZM1016.63 242V232H997.314V242V252H1016.63V242ZM997.314 242L1006.14 237.298L996.907 219.968L988.081 224.67L979.256 229.373L988.489 246.702L997.314 242ZM988.081 224.67L979.196 220.082L970.247 237.412L979.133 242L988.018 246.588L996.967 229.259L988.081 224.67ZM979.133 242V232H959.53V242V252H979.133V242ZM959.53 242L968.227 246.937L983.71 219.664L975.013 214.727L966.317 209.79L950.834 237.063L959.53 242ZM975.013 214.727L983.844 210.036L969.356 182.763L960.525 187.455L951.694 192.146L966.182 219.419L975.013 214.727ZM960.525 187.455V197.455H980.127V187.455V177.455H960.525V187.455Z" fill="#262626" mask="url(#path-6-outside-1_50_26)"/>
</g>
<defs>
<filter id="filter0_d_50_26" x="395.882" y="158.278" width="641.849" height="102.716" filterUnits="userSpaceOnUse" color-interpolation-filters="sRGB">
<feFlood flood-opacity="0" result="BackgroundImageFix"/>
<feColorMatrix in="SourceAlpha" type="matrix" values="0 0 0 0 0 0 0 0 0 0 0 0 0 0 0 0 0 0 127 0" result="hardAlpha"/>
<feOffset dy="4"/>
<feGaussianBlur stdDeviation="2"/>
<feComposite in2="hardAlpha" operator="out"/>
<feColorMatrix type="matrix" values="0 0 0 0 0 0 0 0 0 0 0 0 0 0 0 0 0 0 0.25 0"/>
<feBlend mode="normal" in2="BackgroundImageFix" result="effect1_dropShadow_50_26"/>
<feBlend mode="normal" in="SourceGraphic" in2="effect1_dropShadow_50_26" result="shape"/>
</filter>
<linearGradient id="paint0_linear_50_26" x1="555.5" y1="0" x2="555.5" y2="412" gradientUnits="userSpaceOnUse">
<stop stop-color="#535353"/>
<stop offset="1"/>
</linearGradient>
<linearGradient id="paint1_linear_50_26" x1="794.5" y1="94" x2="372.5" y2="564.5" gradientUnits="userSpaceOnUse">
<stop stop-color="white"/>
<stop offset="1"/>
</linearGradient>
<clipPath id="clip0_50_26">
<rect width="169.95" height="169.95" fill="white" transform="translate(155.81 98) rotate(19.1709)"/>
</clipPath>
</defs>
</svg>
