<svg width="518" height="84" viewBox="0 0 518 84" fill="none" xmlns="http://www.w3.org/2000/svg">
<g filter="url(#filter0_d_16_243)">
<path d="M61.768 51.168C61.768 57.056 59.784 61.632 55.816 64.896C52.04 68.288 46.92 69.984 40.456 69.984C38.28 69.984 35.912 69.728 33.352 69.216C30.792 68.704 28.392 67.968 26.152 67.008C25.064 67.328 23.976 67.68 22.888 68.064C21.864 68.448 20.904 68.896 20.008 69.408C18.856 66.336 17.672 63.328 16.456 60.384C15.304 57.44 14.152 54.432 13 51.36C13.448 51.104 13.864 50.88 14.248 50.688C14.632 50.432 15.048 50.208 15.496 50.016C18.632 55.072 21.672 58.688 24.616 60.864C25.576 61.632 26.696 62.336 27.976 62.976C29.32 63.616 30.696 64.16 32.104 64.608C33.512 65.12 34.92 65.504 36.328 65.76C37.736 66.016 39.016 66.144 40.168 66.144C42.6 66.144 44.776 65.824 46.696 65.184C48.616 64.544 50.216 63.648 51.496 62.496C54.184 60 55.528 56.704 55.528 52.608C55.528 51.072 55.176 49.568 54.472 48.096C53.768 46.56 52.84 45.312 51.688 44.352C49.128 42.304 44.104 40 36.616 37.44C30.664 35.328 25.96 32.864 22.504 30.048C17.896 26.528 15.592 22.24 15.592 17.184C15.592 12 17.448 7.84 21.16 4.704C24.744 1.568 29.416 -3.8147e-06 35.176 -3.8147e-06C37.928 -3.8147e-06 40.616 0.383997 43.24 1.152C43.944 1.408 44.616 1.66399 45.256 1.91999C45.96 2.17599 46.6 2.432 47.176 2.688L52.936 0.767998C54.088 3.712 55.24 6.624 56.392 9.50399C57.544 12.384 58.696 15.296 59.848 18.24C59.144 18.56 58.44 18.912 57.736 19.296C55.048 14.688 51.976 11.04 48.52 8.352C44.36 5.27999 39.88 3.74399 35.08 3.74399C33.416 3.74399 31.88 3.99999 30.472 4.512C29.064 4.96 27.784 5.568 26.632 6.33599C25.032 7.424 23.784 8.8 22.888 10.464C21.992 12.128 21.544 14.08 21.544 16.32C21.544 19.968 23.432 23.008 27.208 25.44C29.128 26.592 30.984 27.584 32.776 28.416C34.568 29.184 36.872 30.016 39.688 30.912C43.592 32.192 46.888 33.504 49.576 34.848C52.264 36.192 54.408 37.504 56.008 38.784C59.848 41.856 61.768 45.984 61.768 51.168ZM114.77 68.352H95.7617V65.184C98.3857 65.184 100.242 64.832 101.33 64.128C102.098 63.488 102.482 62.336 102.482 60.672V36.768C102.482 31.008 99.3777 28.128 93.1697 28.128C88.7537 28.128 84.2097 29.984 79.5377 33.696V60.672C79.5377 62.336 79.9537 63.488 80.7857 64.128C81.8737 64.832 83.6657 65.184 86.1617 65.184V68.352H67.3457V65.184C69.7777 65.184 71.5377 64.832 72.6257 64.128C73.3297 63.424 73.6817 62.272 73.6817 60.672V11.616C73.6817 9.824 73.3617 8.64 72.7217 8.064C72.0177 7.424 70.3217 7.104 67.6337 7.104C67.5697 6.784 67.5057 6.496 67.4417 6.24C67.4417 5.92 67.4097 5.6 67.3457 5.28C69.3937 4.448 71.4097 3.64799 73.3937 2.87999C75.4417 2.048 77.4897 1.216 79.5377 0.383997V29.568C85.0417 25.216 90.3217 23.04 95.3777 23.04C99.6017 23.04 102.834 24.128 105.074 26.304C107.25 28.544 108.338 31.712 108.338 35.808V60.672C108.338 62.4 108.69 63.552 109.394 64.128C110.674 64.832 112.466 65.184 114.77 65.184V68.352ZM126.515 25.92C130.355 24.128 134.771 23.232 139.763 23.232C143.795 23.232 147.059 24.288 149.555 26.4C152.243 28.832 153.587 32.224 153.587 36.576V61.44C153.587 61.76 153.587 62.144 153.587 62.592C153.651 63.04 153.715 63.488 153.779 63.936C153.907 64.384 154.067 64.768 154.259 65.088C154.515 65.408 154.803 65.568 155.123 65.568C156.083 65.568 157.459 64.864 159.251 63.456L160.403 64.896C157.587 68.288 155.091 69.984 152.915 69.984C150.099 69.984 148.403 68.192 147.827 64.608C143.859 68.192 138.803 69.984 132.659 69.984C130.547 69.984 128.627 69.76 126.899 69.312C125.235 68.864 123.827 68.16 122.675 67.2C120.307 65.216 119.123 62.432 119.123 58.848C119.123 56.16 120.019 53.76 121.811 51.648C123.667 49.472 126.035 47.68 128.915 46.272C133.843 43.712 140.115 41.952 147.731 40.992V35.04C147.731 32.544 146.963 30.528 145.427 28.992C144.531 28.096 143.475 27.456 142.259 27.072C141.107 26.688 139.859 26.496 138.515 26.496C135.955 26.496 133.779 27.008 131.987 28.032C130.899 28.736 130.035 29.44 129.395 30.144C128.755 30.784 128.435 31.52 128.435 32.352V32.832C128.435 35.968 127.059 37.536 124.307 37.536C121.811 37.536 120.563 36.096 120.563 33.216C120.563 30.208 122.547 27.776 126.515 25.92ZM147.731 44.64C142.099 45.216 136.883 46.816 132.083 49.44C127.731 51.872 125.555 54.976 125.555 58.752C125.555 60.8 126.387 62.464 128.051 63.744C129.715 64.96 131.795 65.568 134.291 65.568C136.595 65.568 138.995 65.12 141.491 64.224C143.539 63.52 145.619 62.304 147.731 60.576V44.64ZM209.709 67.872C207.085 67.872 204.909 67.968 203.181 68.16C202.669 68.224 201.933 68.32 200.973 68.448C200.077 68.576 198.989 68.704 197.709 68.832C197.645 68.32 197.581 67.808 197.517 67.296C197.517 66.784 197.485 66.272 197.421 65.76C194.413 68.576 190.157 69.984 184.653 69.984C179.149 69.984 174.573 68.064 170.925 64.224C166.893 60 164.877 54.112 164.877 46.56C164.877 39.584 166.829 33.856 170.733 29.376C174.445 25.088 179.085 22.944 184.653 22.944C189.773 22.944 194.029 24.192 197.421 26.688V11.328C197.421 9.984 197.005 8.992 196.173 8.352C195.341 7.712 193.421 7.392 190.413 7.392C190.285 7.072 190.189 6.72 190.125 6.33599C190.125 5.952 190.061 5.6 189.933 5.28C192.173 4.512 194.381 3.744 196.557 2.976C198.797 2.144 201.037 1.312 203.277 0.479996V60.096C203.277 61.568 203.629 62.592 204.333 63.168C205.485 64.64 207.277 65.376 209.709 65.376V67.872ZM197.421 31.392C194.541 28.384 190.989 26.88 186.765 26.88C184.013 26.88 181.549 27.52 179.373 28.8C177.197 30.08 175.437 31.904 174.093 34.272C172.237 37.664 171.309 41.792 171.309 46.656C171.309 52.352 172.781 56.96 175.725 60.48C178.669 64.128 182.349 65.952 186.765 65.952C191.117 65.952 194.669 64.384 197.421 61.248V31.392ZM255.76 46.56C255.76 53.728 253.712 59.456 249.616 63.744C245.712 68.032 240.72 70.176 234.64 70.176C228.496 70.176 223.472 68.032 219.568 63.744C215.472 59.456 213.424 53.728 213.424 46.56C213.424 39.392 215.472 33.664 219.568 29.376C223.472 25.088 228.496 22.944 234.64 22.944C240.72 22.944 245.712 25.088 249.616 29.376C253.712 33.664 255.76 39.392 255.76 46.56ZM249.232 46.56C249.232 40.672 247.824 35.84 245.008 32.064C242.384 28.288 238.928 26.4 234.64 26.4C230.416 26.4 226.896 28.288 224.08 32.064C221.328 35.84 219.952 40.672 219.952 46.56C219.952 52.384 221.296 57.216 223.984 61.056C226.736 64.768 230.288 66.624 234.64 66.624C238.8 66.624 242.256 64.768 245.008 61.056C247.824 57.28 249.232 52.448 249.232 46.56ZM305.883 69.696C303.963 64.896 302.011 60.064 300.027 55.2C298.107 50.336 296.187 45.472 294.267 40.608C292.411 45.472 290.555 50.336 288.699 55.2C286.843 60.064 284.987 64.896 283.131 69.696H281.019C278.459 63.104 275.899 56.608 273.339 50.208C270.843 43.744 268.315 37.216 265.755 30.624C265.307 29.216 264.667 28.288 263.835 27.84C262.747 27.264 261.147 26.976 259.035 26.976V23.904H278.043V26.976C275.483 26.976 273.755 27.136 272.859 27.456C272.027 27.712 271.611 28.096 271.611 28.608C271.611 28.864 271.707 29.184 271.899 29.568C272.219 30.208 272.475 30.848 272.667 31.488C272.923 32.064 273.211 32.672 273.531 33.312C275.195 37.6 276.827 41.856 278.427 46.08C280.027 50.24 281.627 54.464 283.227 58.752C284.763 54.72 286.267 50.816 287.739 47.04C289.211 43.2 290.715 39.264 292.251 35.232C291.931 34.528 291.611 33.824 291.291 33.12C291.035 32.416 290.747 31.712 290.427 31.008C289.787 29.216 289.051 28.096 288.219 27.648C287.515 27.264 286.171 27.072 284.187 27.072V23.904H302.907V26.976C299.515 26.976 297.371 27.328 296.475 28.032C296.155 28.352 295.995 28.704 295.995 29.088C295.995 29.152 296.059 29.44 296.187 29.952L307.995 59.328C309.723 54.464 311.419 49.6 313.083 44.736C314.811 39.872 316.539 35.008 318.267 30.144C318.395 29.632 318.459 29.312 318.459 29.184C318.459 28.8 318.331 28.448 318.075 28.128C317.371 27.36 315.451 26.976 312.315 26.976V23.904H328.923V26.976C326.363 26.976 324.603 27.264 323.643 27.84C322.939 28.288 322.331 29.152 321.819 30.432C319.579 37.024 317.307 43.584 315.003 50.112C312.763 56.576 310.523 63.104 308.283 69.696H305.883ZM415.175 49.632C415.175 55.648 412.967 60.32 408.551 63.648C404.455 66.784 398.919 68.352 391.943 68.352H358.823V65.088C362.279 65.088 364.551 64.736 365.639 64.032C366.791 63.008 367.367 61.568 367.367 59.712V10.464C367.367 9.632 367.239 8.992 366.983 8.54399C366.727 7.71199 366.343 7.00799 365.831 6.43199C364.487 5.28 362.151 4.704 358.823 4.704V1.43999H390.311C397.607 1.43999 403.079 2.78399 406.727 5.47199C410.439 8.224 412.295 12.224 412.295 17.472C412.295 20.736 411.079 23.776 408.647 26.592C407.559 27.808 406.311 28.896 404.903 29.856C403.559 30.752 402.055 31.52 400.391 32.16C404.359 33.312 407.527 34.976 409.895 37.152C413.415 40.288 415.175 44.448 415.175 49.632ZM405.671 17.376C405.671 15.456 405.287 13.696 404.519 12.096C403.815 10.496 402.823 9.152 401.543 8.064C400.263 6.97599 398.695 6.17599 396.839 5.664C394.983 5.152 392.967 4.896 390.791 4.896H380.423C378.759 4.896 377.415 5.088 376.391 5.47199C374.471 6.36799 373.511 7.99999 373.511 10.368V30.912H390.887C392.103 30.912 393.287 30.816 394.439 30.624C396.807 30.176 398.983 29.088 400.967 27.36C404.103 24.8 405.671 21.472 405.671 17.376ZM408.551 49.632C408.551 45.344 407.079 41.76 404.135 38.88C401.063 36 397.127 34.56 392.327 34.56H373.511V59.616C373.511 62.112 374.439 63.712 376.295 64.416C377.255 64.736 378.631 64.896 380.423 64.896H391.751C396.615 64.896 400.583 63.648 403.655 61.152C406.919 58.4 408.551 54.56 408.551 49.632ZM463.322 46.56C463.322 53.728 461.274 59.456 457.178 63.744C453.274 68.032 448.282 70.176 442.202 70.176C436.058 70.176 431.034 68.032 427.13 63.744C423.034 59.456 420.986 53.728 420.986 46.56C420.986 39.392 423.034 33.664 427.13 29.376C431.034 25.088 436.058 22.944 442.202 22.944C448.282 22.944 453.274 25.088 457.178 29.376C461.274 33.664 463.322 39.392 463.322 46.56ZM456.794 46.56C456.794 40.672 455.386 35.84 452.57 32.064C449.946 28.288 446.49 26.4 442.202 26.4C437.978 26.4 434.458 28.288 431.642 32.064C428.89 35.84 427.514 40.672 427.514 46.56C427.514 52.384 428.858 57.216 431.546 61.056C434.298 64.768 437.85 66.624 442.202 66.624C446.362 66.624 449.818 64.768 452.57 61.056C455.386 57.28 456.794 52.448 456.794 46.56ZM516.134 26.976C513.766 26.976 511.718 27.296 509.99 27.936C509.67 28.064 509.35 28.224 509.03 28.416C508.774 28.608 508.486 28.8 508.166 28.992C507.654 29.312 507.142 29.792 506.63 30.432L505.67 31.584C505.542 31.776 505.382 31.968 505.19 32.16C504.998 32.352 504.838 32.576 504.71 32.832C503.11 34.752 501.51 36.672 499.91 38.592C498.31 40.448 496.71 42.336 495.11 44.256C497.286 46.944 499.462 49.568 501.638 52.128C503.814 54.624 505.99 57.216 508.166 59.904C508.486 60.352 508.774 60.8 509.03 61.248C509.35 61.632 509.67 61.984 509.99 62.304C510.886 63.2 511.75 63.84 512.582 64.224C513.862 64.928 515.622 65.28 517.862 65.28V68.352H497.798V65.28C501.126 65.28 502.982 65.024 503.366 64.512C503.558 64.32 503.654 64.096 503.654 63.84C503.654 63.52 503.494 63.104 503.174 62.592L501.254 60.672C499.59 58.688 497.958 56.736 496.358 54.816C494.758 52.896 493.158 50.944 491.558 48.96C490.086 50.752 488.614 52.544 487.142 54.336C485.67 56.064 484.198 57.824 482.726 59.616C482.406 60 482.118 60.352 481.862 60.672C481.606 60.992 481.35 61.344 481.094 61.728C480.326 62.624 479.942 63.296 479.942 63.744C479.942 63.936 480.006 64.096 480.134 64.224C480.518 64.928 482.214 65.28 485.222 65.28V68.352H466.982V65.28C469.606 65.28 471.558 64.928 472.838 64.224C474.63 63.264 476.358 61.76 478.022 59.712L489.542 46.272C487.43 43.712 485.318 41.216 483.206 38.784C481.158 36.288 479.078 33.792 476.966 31.296C475.622 29.568 474.598 28.48 473.894 28.032C472.87 27.392 471.078 27.072 468.518 27.072V23.904H487.91V27.072C486.31 27.072 485.094 27.104 484.262 27.168C483.43 27.232 482.886 27.456 482.63 27.84C482.438 28.16 482.406 28.512 482.534 28.896C482.662 29.216 482.854 29.568 483.11 29.952C483.366 30.272 483.654 30.592 483.974 30.912C484.358 31.232 484.678 31.52 484.934 31.776C486.278 33.376 487.622 35.008 488.966 36.672C490.374 38.272 491.75 39.872 493.094 41.472C494.438 39.936 495.75 38.368 497.03 36.768C498.374 35.168 499.718 33.568 501.062 31.968C501.382 31.52 501.702 31.104 502.022 30.72C502.406 30.336 502.758 29.952 503.078 29.568C503.398 29.248 503.558 28.896 503.558 28.512C503.558 28.192 503.462 27.936 503.27 27.744C503.014 27.296 501.446 27.072 498.566 27.072V23.904H516.134V26.976Z" fill="#FF5500"/>
</g>
<defs>
<filter id="filter0_d_16_243" x="0" y="0" width="517.862" height="83.176" filterUnits="userSpaceOnUse" color-interpolation-filters="sRGB">
<feFlood flood-opacity="0" result="BackgroundImageFix"/>
<feColorMatrix in="SourceAlpha" type="matrix" values="0 0 0 0 0 0 0 0 0 0 0 0 0 0 0 0 0 0 127 0" result="hardAlpha"/>
<feOffset dx="-9" dy="9"/>
<feGaussianBlur stdDeviation="2"/>
<feComposite in2="hardAlpha" operator="out"/>
<feColorMatrix type="matrix" values="0 0 0 0 0 0 0 0 0 0 0 0 0 0 0 0 0 0 0.37 0"/>
<feBlend mode="normal" in2="BackgroundImageFix" result="effect1_dropShadow_16_243"/>
<feBlend mode="normal" in="SourceGraphic" in2="effect1_dropShadow_16_243" result="shape"/>
</filter>
</defs>
</svg>
