<svg width="38" height="57" viewBox="0 0 38 57" fill="none" xmlns="http://www.w3.org/2000/svg">
<path d="M0 8C0 5.19974 0 3.79961 0.544967 2.73005C1.02433 1.78924 1.78924 1.02433 2.73005 0.544967C3.79961 0 5.19974 0 8 0H30C32.8003 0 34.2004 0 35.27 0.544967C36.2108 1.02433 36.9757 1.78924 37.455 2.73005C38 3.79961 38 5.19974 38 8V57H0V8Z" fill="#A600FF"/>
<path d="M3 7.8C3 6.11984 3 5.27976 3.32698 4.63803C3.6146 4.07354 4.07354 3.6146 4.63803 3.32698C5.27976 3 6.11984 3 7.8 3H30.2C31.8802 3 32.7202 3 33.362 3.32698C33.9265 3.6146 34.3854 4.07354 34.673 4.63803C35 5.27976 35 6.11984 35 7.8V54H3V7.8Z" fill="url(#paint0_linear_6_7)"/>
<rect x="6" y="27" width="5" height="5" rx="1" fill="white"/>
<rect x="34" y="13" width="2" height="7" rx="1" fill="#D9D9D9"/>
<rect x="34" y="36" width="2" height="7" rx="1" fill="#D9D9D9"/>
<defs>
<linearGradient id="paint0_linear_6_7" x1="19" y1="3" x2="19" y2="54" gradientUnits="userSpaceOnUse">
<stop stop-color="#8000FF"/>
<stop offset="1" stop-color="#4D0099"/>
</linearGradient>
</defs>
</svg>
