<svg width="642" height="103" viewBox="0 0 642 103" fill="none" xmlns="http://www.w3.org/2000/svg">
<g filter="url(#filter0_d_20_162)">
<mask id="path-1-outside-1_20_162" maskUnits="userSpaceOnUse" x="3.11801" y="-0.278442" width="635" height="95" fill="black">
<rect fill="white" x="3.11801" y="-0.278442" width="635" height="95"/>
<path d="M55.0901 33.7216C54.9007 31.3541 54.013 29.5075 52.4268 28.1818C50.8643 26.856 48.485 26.1931 45.289 26.1931C43.253 26.1931 41.584 26.4417 40.2819 26.9389C39.0035 27.4124 38.0565 28.0634 37.441 28.892C36.8255 29.7206 36.5059 30.6676 36.4822 31.7329C36.4348 32.6089 36.5887 33.402 36.9438 34.1122C37.3226 34.7987 37.9145 35.4261 38.7194 35.9943C39.5243 36.5388 40.5542 37.036 41.8089 37.4858C43.0636 37.9356 44.5551 38.338 46.2833 38.6931L52.2492 39.9716C56.2738 40.8238 59.7184 41.9484 62.583 43.3451C65.4476 44.7419 67.7914 46.3873 69.6143 48.2812C71.4372 50.1515 72.7748 52.2585 73.6271 54.6022C74.503 56.946 74.9528 59.5028 74.9765 62.2727C74.9528 67.0549 73.7573 71.1032 71.3899 74.4176C69.0224 77.732 65.637 80.2533 61.2336 81.9815C56.8539 83.7097 51.5863 84.5738 45.431 84.5738C39.11 84.5738 33.5939 83.6387 28.8827 81.7684C24.1952 79.8982 20.5494 77.0217 17.9452 73.1392C15.3648 69.2329 14.0627 64.2377 14.039 58.1534H32.789C32.9074 60.3788 33.4637 62.249 34.458 63.7642C35.4524 65.2793 36.8491 66.4275 38.6484 67.2088C40.4713 67.99 42.6375 68.3806 45.147 68.3806C47.254 68.3806 49.0177 68.1202 50.4381 67.5994C51.8586 67.0786 52.9358 66.3565 53.6697 65.4332C54.4036 64.5099 54.7824 63.4564 54.806 62.2727C54.7824 61.16 54.4154 60.1894 53.7052 59.3608C53.0186 58.5085 51.8823 57.7509 50.2961 57.088C48.7099 56.4015 46.5674 55.7623 43.8685 55.1704L36.6242 53.6079C30.1848 52.2111 25.1067 49.8792 21.3899 46.6122C17.6967 43.3215 15.8619 38.8352 15.8856 33.1534C15.8619 28.5369 17.093 24.5004 19.5788 21.044C22.0882 17.5639 25.5565 14.8532 29.9836 12.9119C34.4344 10.9706 39.5362 9.99996 45.289 9.99996C51.1602 9.99996 56.2383 10.9824 60.5234 12.9474C64.8084 14.9124 68.111 17.6823 70.431 21.2571C72.7748 24.8082 73.9585 28.963 73.9822 33.7216H55.0901ZM102.374 53.0397V83.7216H82.7712V10.9943H101.663V39.5454H102.231C103.463 36.0653 105.51 33.3546 108.375 31.4133C111.24 29.4484 114.684 28.4659 118.709 28.4659C122.568 28.4659 125.918 29.3418 128.758 31.0937C131.623 32.8456 133.837 35.2604 135.399 38.338C136.985 41.4157 137.767 44.9431 137.743 48.9204V83.7216H118.141V53.0397C118.164 50.3409 117.49 48.222 116.116 46.6832C114.767 45.1444 112.838 44.375 110.328 44.375C108.742 44.375 107.345 44.7301 106.138 45.4403C104.954 46.1269 104.031 47.1212 103.368 48.4233C102.729 49.7017 102.397 51.2405 102.374 53.0397ZM162.619 84.5738C159.138 84.5738 156.061 84.0056 153.386 82.8693C150.734 81.7092 148.651 79.9574 147.136 77.6136C145.62 75.2699 144.863 72.2869 144.863 68.6647C144.863 65.6818 145.372 63.1368 146.39 61.0298C147.408 58.8991 148.828 57.1591 150.651 55.8096C152.474 54.4602 154.593 53.4304 157.008 52.7201C159.446 52.0099 162.074 51.5483 164.891 51.3352C167.945 51.0985 170.396 50.8144 172.242 50.4829C174.112 50.1278 175.462 49.6425 176.29 49.027C177.119 48.3878 177.533 47.5473 177.533 46.5056V46.3636C177.533 44.9431 176.989 43.8541 175.9 43.0966C174.811 42.339 173.414 41.9602 171.709 41.9602C169.839 41.9602 168.312 42.3745 167.128 43.2031C165.968 44.008 165.27 45.2509 165.033 46.9318H146.994C147.23 43.6174 148.284 40.5634 150.154 37.7699C152.048 34.9526 154.806 32.7036 158.428 31.0227C162.05 29.3181 166.572 28.4659 171.994 28.4659C175.9 28.4659 179.404 28.9275 182.505 29.8508C185.606 30.7504 188.246 32.017 190.424 33.6505C192.602 35.2604 194.259 37.1543 195.396 39.3324C196.556 41.4867 197.136 43.8305 197.136 46.3636V83.7216H178.812V76.0511H178.386C177.297 78.0871 175.971 79.7324 174.408 80.9872C172.869 82.2419 171.106 83.1534 169.117 83.7216C167.152 84.2897 164.986 84.5738 162.619 84.5738ZM169.011 72.2159C170.502 72.2159 171.899 71.9081 173.201 71.2926C174.527 70.677 175.604 69.7893 176.432 68.6292C177.261 67.4692 177.675 66.0606 177.675 64.4034V59.8579C177.155 60.071 176.598 60.2722 176.006 60.4616C175.438 60.651 174.823 60.8286 174.16 60.9943C173.521 61.16 172.834 61.3139 172.1 61.4559C171.39 61.598 170.644 61.7282 169.863 61.8466C168.348 62.0833 167.105 62.4739 166.134 63.0184C165.187 63.5393 164.477 64.1903 164.003 64.9716C163.554 65.7291 163.329 66.5814 163.329 67.5284C163.329 69.0435 163.861 70.2036 164.927 71.0085C165.992 71.8134 167.353 72.2159 169.011 72.2159ZM226.246 84.4318C222.363 84.4318 218.789 83.4138 215.522 81.3778C212.278 79.3418 209.674 76.2523 207.709 72.1093C205.768 67.9663 204.797 62.7462 204.797 56.4488C204.797 49.8674 205.815 44.517 207.851 40.3977C209.911 36.2784 212.562 33.2599 215.806 31.3423C219.073 29.4247 222.506 28.4659 226.104 28.4659C228.803 28.4659 231.17 28.9394 233.206 29.8863C235.242 30.8096 236.947 32.0525 238.32 33.615C239.693 35.1538 240.735 36.8466 241.445 38.6931H241.729V10.9943H261.331V83.7216H241.871V74.7727H241.445C240.687 76.6193 239.598 78.2765 238.178 79.7443C236.781 81.1884 235.077 82.3366 233.064 83.1889C231.076 84.0175 228.803 84.4318 226.246 84.4318ZM233.49 69.375C235.29 69.375 236.828 68.8541 238.107 67.8125C239.409 66.7471 240.403 65.2556 241.09 63.338C241.8 61.3967 242.155 59.1003 242.155 56.4488C242.155 53.75 241.8 51.4417 241.09 49.5241C240.403 47.5828 239.409 46.1032 238.107 45.0852C236.828 44.0435 235.29 43.5227 233.49 43.5227C231.691 43.5227 230.152 44.0435 228.874 45.0852C227.619 46.1032 226.648 47.5828 225.962 49.5241C225.299 51.4417 224.968 53.75 224.968 56.4488C224.968 59.1477 225.299 61.4678 225.962 63.4091C226.648 65.3267 227.619 66.8063 228.874 67.848C230.152 68.866 231.691 69.375 233.49 69.375ZM297.233 84.7159C291.315 84.7159 286.248 83.544 282.034 81.2003C277.82 78.8328 274.589 75.5421 272.34 71.3281C270.091 67.0904 268.966 62.178 268.966 56.5909C268.966 51.0038 270.091 46.1032 272.34 41.8892C274.589 37.6515 277.82 34.3608 282.034 32.017C286.248 29.6496 291.315 28.4659 297.233 28.4659C303.152 28.4659 308.218 29.6496 312.432 32.017C316.646 34.3608 319.878 37.6515 322.127 41.8892C324.376 46.1032 325.5 51.0038 325.5 56.5909C325.5 62.178 324.376 67.0904 322.127 71.3281C319.878 75.5421 316.646 78.8328 312.432 81.2003C308.218 83.544 303.152 84.7159 297.233 84.7159ZM297.375 70.2272C299.032 70.2272 300.465 69.6709 301.672 68.5582C302.88 67.4455 303.815 65.8593 304.478 63.7997C305.14 61.74 305.472 59.2897 305.472 56.4488C305.472 53.5842 305.14 51.134 304.478 49.098C303.815 47.0383 302.88 45.4521 301.672 44.3395C300.465 43.2268 299.032 42.6704 297.375 42.6704C295.623 42.6704 294.12 43.2268 292.865 44.3395C291.611 45.4521 290.652 47.0383 289.989 49.098C289.326 51.134 288.995 53.5842 288.995 56.4488C288.995 59.2897 289.326 61.74 289.989 63.7997C290.652 65.8593 291.611 67.4455 292.865 68.5582C294.12 69.6709 295.623 70.2272 297.375 70.2272ZM342.137 83.7216L328.501 29.1761H348.103L354.353 62.4147H354.779L361.74 29.1761H380.774L388.018 62.1306H388.444L394.41 29.1761H414.012L400.376 83.7216H379.211L371.541 54.4602H370.973L363.302 83.7216H342.137ZM439.616 83.7216V10.9943H471.15C476.69 10.9943 481.342 11.74 485.106 13.2315C488.894 14.723 491.747 16.83 493.664 19.5525C495.606 22.2751 496.576 25.4829 496.576 29.1761C496.576 31.8513 495.984 34.2897 494.801 36.4914C493.641 38.6931 492.007 40.5397 489.9 42.0312C487.793 43.499 485.331 44.517 482.514 45.0852V45.7954C485.639 45.9138 488.48 46.7069 491.037 48.1747C493.593 49.6188 495.629 51.6193 497.144 54.1761C498.66 56.7092 499.417 59.6922 499.417 63.125C499.417 67.1022 498.376 70.6415 496.292 73.7429C494.233 76.8442 491.297 79.2826 487.485 81.0582C483.674 82.8338 479.128 83.7216 473.849 83.7216H439.616ZM459.36 67.9545H468.593C471.908 67.9545 474.394 67.339 476.051 66.1079C477.708 64.8532 478.537 63.0066 478.537 60.5681C478.537 58.8636 478.146 57.4195 477.365 56.2358C476.583 55.052 475.471 54.1524 474.027 53.5369C472.606 52.9214 470.89 52.6136 468.877 52.6136H459.36V67.9545ZM459.36 40.3977H467.457C469.185 40.3977 470.712 40.1254 472.038 39.5809C473.364 39.0364 474.394 38.2552 475.127 37.2372C475.885 36.1955 476.264 34.9289 476.264 33.4375C476.264 31.1884 475.459 29.472 473.849 28.2883C472.239 27.0809 470.203 26.4772 467.741 26.4772H459.36V40.3977ZM532.975 84.7159C527.057 84.7159 521.991 83.544 517.777 81.2003C513.563 78.8328 510.331 75.5421 508.082 71.3281C505.833 67.0904 504.708 62.178 504.708 56.5909C504.708 51.0038 505.833 46.1032 508.082 41.8892C510.331 37.6515 513.563 34.3608 517.777 32.017C521.991 29.6496 527.057 28.4659 532.975 28.4659C538.894 28.4659 543.96 29.6496 548.174 32.017C552.388 34.3608 555.62 37.6515 557.869 41.8892C560.118 46.1032 561.242 51.0038 561.242 56.5909C561.242 62.178 560.118 67.0904 557.869 71.3281C555.62 75.5421 552.388 78.8328 548.174 81.2003C543.96 83.544 538.894 84.7159 532.975 84.7159ZM533.117 70.2272C534.775 70.2272 536.207 69.6709 537.414 68.5582C538.622 67.4455 539.557 65.8593 540.22 63.7997C540.883 61.74 541.214 59.2897 541.214 56.4488C541.214 53.5842 540.883 51.134 540.22 49.098C539.557 47.0383 538.622 45.4521 537.414 44.3395C536.207 43.2268 534.775 42.6704 533.117 42.6704C531.366 42.6704 529.862 43.2268 528.608 44.3395C527.353 45.4521 526.394 47.0383 525.731 49.098C525.068 51.134 524.737 53.5842 524.737 56.4488C524.737 59.2897 525.068 61.74 525.731 63.7997C526.394 65.8593 527.353 67.4455 528.608 68.5582C529.862 69.6709 531.366 70.2272 533.117 70.2272ZM584.245 29.1761L592.2 46.0795L600.58 29.1761H620.04L605.41 56.4488L620.751 83.7216H601.432L592.2 66.392L583.251 83.7216H563.648L579.131 56.4488L564.643 29.1761H584.245Z"/>
</mask>
<path d="M55.0901 33.7216C54.9007 31.3541 54.013 29.5075 52.4268 28.1818C50.8643 26.856 48.485 26.1931 45.289 26.1931C43.253 26.1931 41.584 26.4417 40.2819 26.9389C39.0035 27.4124 38.0565 28.0634 37.441 28.892C36.8255 29.7206 36.5059 30.6676 36.4822 31.7329C36.4348 32.6089 36.5887 33.402 36.9438 34.1122C37.3226 34.7987 37.9145 35.4261 38.7194 35.9943C39.5243 36.5388 40.5542 37.036 41.8089 37.4858C43.0636 37.9356 44.5551 38.338 46.2833 38.6931L52.2492 39.9716C56.2738 40.8238 59.7184 41.9484 62.583 43.3451C65.4476 44.7419 67.7914 46.3873 69.6143 48.2812C71.4372 50.1515 72.7748 52.2585 73.6271 54.6022C74.503 56.946 74.9528 59.5028 74.9765 62.2727C74.9528 67.0549 73.7573 71.1032 71.3899 74.4176C69.0224 77.732 65.637 80.2533 61.2336 81.9815C56.8539 83.7097 51.5863 84.5738 45.431 84.5738C39.11 84.5738 33.5939 83.6387 28.8827 81.7684C24.1952 79.8982 20.5494 77.0217 17.9452 73.1392C15.3648 69.2329 14.0627 64.2377 14.039 58.1534H32.789C32.9074 60.3788 33.4637 62.249 34.458 63.7642C35.4524 65.2793 36.8491 66.4275 38.6484 67.2088C40.4713 67.99 42.6375 68.3806 45.147 68.3806C47.254 68.3806 49.0177 68.1202 50.4381 67.5994C51.8586 67.0786 52.9358 66.3565 53.6697 65.4332C54.4036 64.5099 54.7824 63.4564 54.806 62.2727C54.7824 61.16 54.4154 60.1894 53.7052 59.3608C53.0186 58.5085 51.8823 57.7509 50.2961 57.088C48.7099 56.4015 46.5674 55.7623 43.8685 55.1704L36.6242 53.6079C30.1848 52.2111 25.1067 49.8792 21.3899 46.6122C17.6967 43.3215 15.8619 38.8352 15.8856 33.1534C15.8619 28.5369 17.093 24.5004 19.5788 21.044C22.0882 17.5639 25.5565 14.8532 29.9836 12.9119C34.4344 10.9706 39.5362 9.99996 45.289 9.99996C51.1602 9.99996 56.2383 10.9824 60.5234 12.9474C64.8084 14.9124 68.111 17.6823 70.431 21.2571C72.7748 24.8082 73.9585 28.963 73.9822 33.7216H55.0901ZM102.374 53.0397V83.7216H82.7712V10.9943H101.663V39.5454H102.231C103.463 36.0653 105.51 33.3546 108.375 31.4133C111.24 29.4484 114.684 28.4659 118.709 28.4659C122.568 28.4659 125.918 29.3418 128.758 31.0937C131.623 32.8456 133.837 35.2604 135.399 38.338C136.985 41.4157 137.767 44.9431 137.743 48.9204V83.7216H118.141V53.0397C118.164 50.3409 117.49 48.222 116.116 46.6832C114.767 45.1444 112.838 44.375 110.328 44.375C108.742 44.375 107.345 44.7301 106.138 45.4403C104.954 46.1269 104.031 47.1212 103.368 48.4233C102.729 49.7017 102.397 51.2405 102.374 53.0397ZM162.619 84.5738C159.138 84.5738 156.061 84.0056 153.386 82.8693C150.734 81.7092 148.651 79.9574 147.136 77.6136C145.62 75.2699 144.863 72.2869 144.863 68.6647C144.863 65.6818 145.372 63.1368 146.39 61.0298C147.408 58.8991 148.828 57.1591 150.651 55.8096C152.474 54.4602 154.593 53.4304 157.008 52.7201C159.446 52.0099 162.074 51.5483 164.891 51.3352C167.945 51.0985 170.396 50.8144 172.242 50.4829C174.112 50.1278 175.462 49.6425 176.29 49.027C177.119 48.3878 177.533 47.5473 177.533 46.5056V46.3636C177.533 44.9431 176.989 43.8541 175.9 43.0966C174.811 42.339 173.414 41.9602 171.709 41.9602C169.839 41.9602 168.312 42.3745 167.128 43.2031C165.968 44.008 165.27 45.2509 165.033 46.9318H146.994C147.23 43.6174 148.284 40.5634 150.154 37.7699C152.048 34.9526 154.806 32.7036 158.428 31.0227C162.05 29.3181 166.572 28.4659 171.994 28.4659C175.9 28.4659 179.404 28.9275 182.505 29.8508C185.606 30.7504 188.246 32.017 190.424 33.6505C192.602 35.2604 194.259 37.1543 195.396 39.3324C196.556 41.4867 197.136 43.8305 197.136 46.3636V83.7216H178.812V76.0511H178.386C177.297 78.0871 175.971 79.7324 174.408 80.9872C172.869 82.2419 171.106 83.1534 169.117 83.7216C167.152 84.2897 164.986 84.5738 162.619 84.5738ZM169.011 72.2159C170.502 72.2159 171.899 71.9081 173.201 71.2926C174.527 70.677 175.604 69.7893 176.432 68.6292C177.261 67.4692 177.675 66.0606 177.675 64.4034V59.8579C177.155 60.071 176.598 60.2722 176.006 60.4616C175.438 60.651 174.823 60.8286 174.16 60.9943C173.521 61.16 172.834 61.3139 172.1 61.4559C171.39 61.598 170.644 61.7282 169.863 61.8466C168.348 62.0833 167.105 62.4739 166.134 63.0184C165.187 63.5393 164.477 64.1903 164.003 64.9716C163.554 65.7291 163.329 66.5814 163.329 67.5284C163.329 69.0435 163.861 70.2036 164.927 71.0085C165.992 71.8134 167.353 72.2159 169.011 72.2159ZM226.246 84.4318C222.363 84.4318 218.789 83.4138 215.522 81.3778C212.278 79.3418 209.674 76.2523 207.709 72.1093C205.768 67.9663 204.797 62.7462 204.797 56.4488C204.797 49.8674 205.815 44.517 207.851 40.3977C209.911 36.2784 212.562 33.2599 215.806 31.3423C219.073 29.4247 222.506 28.4659 226.104 28.4659C228.803 28.4659 231.17 28.9394 233.206 29.8863C235.242 30.8096 236.947 32.0525 238.32 33.615C239.693 35.1538 240.735 36.8466 241.445 38.6931H241.729V10.9943H261.331V83.7216H241.871V74.7727H241.445C240.687 76.6193 239.598 78.2765 238.178 79.7443C236.781 81.1884 235.077 82.3366 233.064 83.1889C231.076 84.0175 228.803 84.4318 226.246 84.4318ZM233.49 69.375C235.29 69.375 236.828 68.8541 238.107 67.8125C239.409 66.7471 240.403 65.2556 241.09 63.338C241.8 61.3967 242.155 59.1003 242.155 56.4488C242.155 53.75 241.8 51.4417 241.09 49.5241C240.403 47.5828 239.409 46.1032 238.107 45.0852C236.828 44.0435 235.29 43.5227 233.49 43.5227C231.691 43.5227 230.152 44.0435 228.874 45.0852C227.619 46.1032 226.648 47.5828 225.962 49.5241C225.299 51.4417 224.968 53.75 224.968 56.4488C224.968 59.1477 225.299 61.4678 225.962 63.4091C226.648 65.3267 227.619 66.8063 228.874 67.848C230.152 68.866 231.691 69.375 233.49 69.375ZM297.233 84.7159C291.315 84.7159 286.248 83.544 282.034 81.2003C277.82 78.8328 274.589 75.5421 272.34 71.3281C270.091 67.0904 268.966 62.178 268.966 56.5909C268.966 51.0038 270.091 46.1032 272.34 41.8892C274.589 37.6515 277.82 34.3608 282.034 32.017C286.248 29.6496 291.315 28.4659 297.233 28.4659C303.152 28.4659 308.218 29.6496 312.432 32.017C316.646 34.3608 319.878 37.6515 322.127 41.8892C324.376 46.1032 325.5 51.0038 325.5 56.5909C325.5 62.178 324.376 67.0904 322.127 71.3281C319.878 75.5421 316.646 78.8328 312.432 81.2003C308.218 83.544 303.152 84.7159 297.233 84.7159ZM297.375 70.2272C299.032 70.2272 300.465 69.6709 301.672 68.5582C302.88 67.4455 303.815 65.8593 304.478 63.7997C305.14 61.74 305.472 59.2897 305.472 56.4488C305.472 53.5842 305.14 51.134 304.478 49.098C303.815 47.0383 302.88 45.4521 301.672 44.3395C300.465 43.2268 299.032 42.6704 297.375 42.6704C295.623 42.6704 294.12 43.2268 292.865 44.3395C291.611 45.4521 290.652 47.0383 289.989 49.098C289.326 51.134 288.995 53.5842 288.995 56.4488C288.995 59.2897 289.326 61.74 289.989 63.7997C290.652 65.8593 291.611 67.4455 292.865 68.5582C294.12 69.6709 295.623 70.2272 297.375 70.2272ZM342.137 83.7216L328.501 29.1761H348.103L354.353 62.4147H354.779L361.74 29.1761H380.774L388.018 62.1306H388.444L394.41 29.1761H414.012L400.376 83.7216H379.211L371.541 54.4602H370.973L363.302 83.7216H342.137ZM439.616 83.7216V10.9943H471.15C476.69 10.9943 481.342 11.74 485.106 13.2315C488.894 14.723 491.747 16.83 493.664 19.5525C495.606 22.2751 496.576 25.4829 496.576 29.1761C496.576 31.8513 495.984 34.2897 494.801 36.4914C493.641 38.6931 492.007 40.5397 489.9 42.0312C487.793 43.499 485.331 44.517 482.514 45.0852V45.7954C485.639 45.9138 488.48 46.7069 491.037 48.1747C493.593 49.6188 495.629 51.6193 497.144 54.1761C498.66 56.7092 499.417 59.6922 499.417 63.125C499.417 67.1022 498.376 70.6415 496.292 73.7429C494.233 76.8442 491.297 79.2826 487.485 81.0582C483.674 82.8338 479.128 83.7216 473.849 83.7216H439.616ZM459.36 67.9545H468.593C471.908 67.9545 474.394 67.339 476.051 66.1079C477.708 64.8532 478.537 63.0066 478.537 60.5681C478.537 58.8636 478.146 57.4195 477.365 56.2358C476.583 55.052 475.471 54.1524 474.027 53.5369C472.606 52.9214 470.89 52.6136 468.877 52.6136H459.36V67.9545ZM459.36 40.3977H467.457C469.185 40.3977 470.712 40.1254 472.038 39.5809C473.364 39.0364 474.394 38.2552 475.127 37.2372C475.885 36.1955 476.264 34.9289 476.264 33.4375C476.264 31.1884 475.459 29.472 473.849 28.2883C472.239 27.0809 470.203 26.4772 467.741 26.4772H459.36V40.3977ZM532.975 84.7159C527.057 84.7159 521.991 83.544 517.777 81.2003C513.563 78.8328 510.331 75.5421 508.082 71.3281C505.833 67.0904 504.708 62.178 504.708 56.5909C504.708 51.0038 505.833 46.1032 508.082 41.8892C510.331 37.6515 513.563 34.3608 517.777 32.017C521.991 29.6496 527.057 28.4659 532.975 28.4659C538.894 28.4659 543.96 29.6496 548.174 32.017C552.388 34.3608 555.62 37.6515 557.869 41.8892C560.118 46.1032 561.242 51.0038 561.242 56.5909C561.242 62.178 560.118 67.0904 557.869 71.3281C555.62 75.5421 552.388 78.8328 548.174 81.2003C543.96 83.544 538.894 84.7159 532.975 84.7159ZM533.117 70.2272C534.775 70.2272 536.207 69.6709 537.414 68.5582C538.622 67.4455 539.557 65.8593 540.22 63.7997C540.883 61.74 541.214 59.2897 541.214 56.4488C541.214 53.5842 540.883 51.134 540.22 49.098C539.557 47.0383 538.622 45.4521 537.414 44.3395C536.207 43.2268 534.775 42.6704 533.117 42.6704C531.366 42.6704 529.862 43.2268 528.608 44.3395C527.353 45.4521 526.394 47.0383 525.731 49.098C525.068 51.134 524.737 53.5842 524.737 56.4488C524.737 59.2897 525.068 61.74 525.731 63.7997C526.394 65.8593 527.353 67.4455 528.608 68.5582C529.862 69.6709 531.366 70.2272 533.117 70.2272ZM584.245 29.1761L592.2 46.0795L600.58 29.1761H620.04L605.41 56.4488L620.751 83.7216H601.432L592.2 66.392L583.251 83.7216H563.648L579.131 56.4488L564.643 29.1761H584.245Z" fill="url(#paint0_linear_20_162)"/>
<path d="M55.0901 33.7216L45.122 34.519L45.8582 43.7216H55.0901V33.7216ZM52.4268 28.1818L45.957 35.8069L45.9853 35.8308L46.0137 35.8546L52.4268 28.1818ZM40.2819 26.9389L43.7551 36.3164L43.8021 36.299L43.8489 36.2811L40.2819 26.9389ZM37.441 28.892L29.4136 22.9288L29.4135 22.9288L37.441 28.892ZM36.4822 31.7329L46.4676 32.2727L46.4762 32.114L46.4797 31.9551L36.4822 31.7329ZM36.9438 34.1122L27.9996 38.5843L28.0902 38.7655L28.1881 38.943L36.9438 34.1122ZM38.7194 35.9943L32.9526 44.164L33.0339 44.2214L33.1163 44.2771L38.7194 35.9943ZM46.2833 38.6931L48.3786 28.9151L48.3374 28.9063L48.2961 28.8978L46.2833 38.6931ZM52.2492 39.9716L50.1539 49.7496L50.1657 49.7521L50.1775 49.7546L52.2492 39.9716ZM62.583 43.3451L58.2003 52.3335L62.583 43.3451ZM69.6143 48.2812L62.4094 55.2159L62.4312 55.2385L62.4532 55.2611L69.6143 48.2812ZM73.6271 54.6022L64.2291 58.0197L64.2443 58.0615L64.2599 58.1031L73.6271 54.6022ZM74.9765 62.2727L84.9764 62.3222L84.9767 62.2547L84.9761 62.1872L74.9765 62.2727ZM71.3899 74.4176L79.5272 80.23V80.23L71.3899 74.4176ZM61.2336 81.9815L57.5802 72.6728L57.5716 72.6761L57.5631 72.6795L61.2336 81.9815ZM28.8827 81.7684L25.1769 91.0564L25.185 91.0596L25.193 91.0628L28.8827 81.7684ZM17.9452 73.1392L9.60148 78.6511L9.62082 78.6804L9.64036 78.7095L17.9452 73.1392ZM14.039 58.1534V48.1534H4.00001L4.03907 58.1923L14.039 58.1534ZM32.789 58.1534L42.7749 57.6222L42.2712 48.1534H32.789V58.1534ZM34.458 63.7642L26.0976 69.2507H26.0976L34.458 63.7642ZM38.6484 67.2088L34.6655 76.3814L34.6873 76.3909L34.7092 76.4002L38.6484 67.2088ZM50.4381 67.5994L53.8807 76.9882H53.8807L50.4381 67.5994ZM53.6697 65.4332L61.4979 71.6556L61.4979 71.6556L53.6697 65.4332ZM54.806 62.2727L64.804 62.4727L64.8082 62.2663L64.8038 62.06L54.806 62.2727ZM53.7052 59.3608L45.9176 65.634L46.0133 65.7528L46.1126 65.8687L53.7052 59.3608ZM50.2961 57.088L46.3239 66.2653L46.3819 66.2904L46.4402 66.3147L50.2961 57.088ZM43.8685 55.1704L46.0106 45.4025L45.9938 45.3988L45.9769 45.3952L43.8685 55.1704ZM36.6242 53.6079L34.5044 63.3807L34.5158 63.3831L36.6242 53.6079ZM21.3899 46.6122L14.7373 54.0783L14.7625 54.1008L14.7879 54.1231L21.3899 46.6122ZM15.8856 33.1534L25.8855 33.195L25.8857 33.1486L25.8855 33.1021L15.8856 33.1534ZM19.5788 21.044L11.4676 15.1951L11.4603 15.2053L19.5788 21.044ZM29.9836 12.9119L25.9856 3.74585L25.9767 3.74976L25.9677 3.7537L29.9836 12.9119ZM60.5234 12.9474L56.3551 22.0373H56.3551L60.5234 12.9474ZM70.431 21.2571L62.0428 26.7011L62.0638 26.7334L62.085 26.7655L70.431 21.2571ZM73.9822 33.7216V43.7216H84.0321L83.9821 33.6718L73.9822 33.7216ZM55.0901 33.7216L65.0583 32.9241C64.6895 28.314 62.7972 23.8166 58.8399 20.509L52.4268 28.1818L46.0137 35.8546C45.7221 35.6109 45.4498 35.2685 45.2697 34.894C45.1024 34.546 45.1101 34.3701 45.122 34.519L55.0901 33.7216ZM52.4268 28.1818L58.8966 20.5567C54.7551 17.0427 49.5945 16.1931 45.289 16.1931V26.1931V36.1931C45.7463 36.1931 46.0964 36.2171 46.3522 36.2475C46.6085 36.278 46.7458 36.312 46.7866 36.3234C46.865 36.3453 46.4804 36.251 45.957 35.8069L52.4268 28.1818ZM45.289 26.1931V16.1931C42.5456 16.1931 39.5521 16.5134 36.7149 17.5967L40.2819 26.9389L43.8489 36.2811C43.7001 36.3379 43.7204 36.3096 43.9833 36.2705C44.2428 36.2318 44.667 36.1931 45.289 36.1931V26.1931ZM40.2819 26.9389L36.8087 17.5614C34.2852 18.4961 31.5009 20.1189 29.4136 22.9288L37.441 28.892L45.4684 34.8553C45.0496 35.419 44.6101 35.7945 44.2782 36.0227C44.1161 36.1341 43.9838 36.2078 43.8953 36.2525C43.8072 36.297 43.757 36.3157 43.7551 36.3164L40.2819 26.9389ZM37.441 28.892L29.4135 22.9288C27.5204 25.4772 26.5528 28.4453 26.4846 31.5107L36.4822 31.7329L46.4797 31.9551C46.4705 32.368 46.3994 32.8737 46.2146 33.4215C46.0287 33.9722 45.7643 34.457 45.4684 34.8552L37.441 28.892ZM36.4822 31.7329L26.4968 31.1932C26.3658 33.6158 26.7892 36.1636 27.9996 38.5843L36.9438 34.1122L45.8881 29.64C46.3882 30.6403 46.5039 31.6019 46.4676 32.2727L36.4822 31.7329ZM36.9438 34.1122L28.1881 38.943C29.4606 41.2495 31.2202 42.9411 32.9526 44.164L38.7194 35.9943L44.4862 27.8246C44.6088 27.9111 45.1846 28.348 45.6996 29.2814L36.9438 34.1122ZM38.7194 35.9943L33.1163 44.2771C34.8163 45.4271 36.6615 46.2636 38.4343 46.8992L41.8089 37.4858L45.1835 28.0724C44.8347 27.9473 44.5943 27.8431 44.443 27.77C44.2896 27.696 44.2618 27.6704 44.3225 27.7114L38.7194 35.9943ZM41.8089 37.4858L38.4343 46.8992C40.249 47.5497 42.2182 48.0668 44.2706 48.4885L46.2833 38.6931L48.2961 28.8978C46.892 28.6093 45.8783 28.3214 45.1835 28.0724L41.8089 37.4858ZM46.2833 38.6931L44.188 48.4712L50.1539 49.7496L52.2492 39.9716L54.3445 30.1935L48.3786 28.9151L46.2833 38.6931ZM52.2492 39.9716L50.1775 49.7546C53.6206 50.4837 56.2474 51.3813 58.2003 52.3335L62.583 43.3451L66.9658 34.3567C63.1895 32.5154 58.9271 31.1639 54.3209 30.1885L52.2492 39.9716ZM62.583 43.3451L58.2003 52.3335C60.228 53.3223 61.5516 54.3247 62.4094 55.2159L69.6143 48.2812L76.8192 41.3465C74.0311 38.4499 70.6672 36.1616 66.9658 34.3567L62.583 43.3451ZM69.6143 48.2812L62.4532 55.2611C63.3341 56.1649 63.8843 57.0714 64.2291 58.0197L73.6271 54.6022L83.025 51.1848C81.6653 47.4455 79.5403 44.1381 76.7754 41.3014L69.6143 48.2812ZM73.6271 54.6022L64.2599 58.1031C64.686 59.2432 64.9621 60.6305 64.9769 62.3582L74.9765 62.2727L84.9761 62.1872C84.9436 58.3751 84.32 54.6487 82.9942 51.1014L73.6271 54.6022ZM74.9765 62.2727L64.9766 62.2232C64.9614 65.3082 64.2198 67.2511 63.2525 68.6052L71.3899 74.4176L79.5272 80.23C83.2948 74.9553 84.9443 68.8016 84.9764 62.3222L74.9765 62.2727ZM71.3899 74.4176L63.2525 68.6052C62.1822 70.1037 60.4794 71.5349 57.5802 72.6728L61.2336 81.9815L64.887 91.2902C70.7946 88.9717 75.8627 85.3603 79.5272 80.23L71.3899 74.4176ZM61.2336 81.9815L57.5631 72.6795C54.6505 73.8288 50.6964 74.5738 45.431 74.5738V84.5738V94.5738C52.4763 94.5738 59.0572 93.5907 64.9041 91.2835L61.2336 81.9815ZM45.431 84.5738V74.5738C40.0724 74.5738 35.8587 73.7786 32.5725 72.474L28.8827 81.7684L25.193 91.0628C31.3291 93.4988 38.1476 94.5738 45.431 94.5738V84.5738ZM28.8827 81.7684L32.5886 72.4804C29.6175 71.295 27.6409 69.6423 26.2501 67.5688L17.9452 73.1392L9.64036 78.7095C13.458 84.4012 18.773 88.5013 25.1769 91.0564L28.8827 81.7684ZM17.9452 73.1392L26.289 67.6272C25.06 65.7668 24.0573 62.8278 24.0389 58.1145L14.039 58.1534L4.03907 58.1923C4.06808 65.6476 5.66949 72.699 9.60148 78.6511L17.9452 73.1392ZM14.039 58.1534V68.1534H32.789V58.1534V48.1534H14.039V58.1534ZM32.789 58.1534L22.8031 58.6845C22.994 62.2731 23.9328 65.952 26.0976 69.2507L34.458 63.7642L42.8185 58.2776C42.895 58.3941 42.9017 58.447 42.88 58.3739C42.8554 58.2915 42.798 58.0574 42.7749 57.6222L32.789 58.1534ZM34.458 63.7642L26.0976 69.2507C28.2492 72.5295 31.2329 74.8909 34.6655 76.3814L38.6484 67.2088L42.6312 58.0362C42.5123 57.9845 42.5238 57.9728 42.6015 58.0367C42.6378 58.0665 42.679 58.1051 42.7204 58.1512C42.7618 58.1973 42.7946 58.2412 42.8185 58.2776L34.458 63.7642ZM38.6484 67.2088L34.7092 76.4002C38.0599 77.8363 41.6295 78.3806 45.147 78.3806V68.3806V58.3806C43.6455 58.3806 42.8826 58.1438 42.5876 58.0173L38.6484 67.2088ZM45.147 68.3806V78.3806C48.0017 78.3806 51.0176 78.038 53.8807 76.9882L50.4381 67.5994L46.9956 58.2106C47.0178 58.2025 46.5062 58.3806 45.147 58.3806V68.3806ZM50.4381 67.5994L53.8807 76.9882C56.546 76.0109 59.3396 74.3709 61.4979 71.6556L53.6697 65.4332L45.8415 59.2108C46.5319 58.3421 47.1712 58.1462 46.9956 58.2106L50.4381 67.5994ZM53.6697 65.4332L61.4979 71.6556C63.6011 69.0097 64.7367 65.8383 64.804 62.4727L54.806 62.2727L44.808 62.0727C44.8167 61.6414 44.8952 61.1201 45.094 60.5672C45.2929 60.0138 45.5663 59.5569 45.8414 59.2108L53.6697 65.4332ZM54.806 62.2727L64.8038 62.06C64.7319 58.6837 63.5461 55.4759 61.2978 52.8529L53.7052 59.3608L46.1126 65.8687C45.7521 65.4481 45.4069 64.9016 45.1592 64.2464C44.9125 63.5938 44.8189 62.9827 44.8083 62.4854L54.806 62.2727ZM53.7052 59.3608L61.4927 53.0875C59.3305 50.4033 56.4813 48.8348 54.152 47.8613L50.2961 57.088L46.4402 66.3147C46.7861 66.4593 46.8722 66.528 46.791 66.4739C46.713 66.4219 46.3481 66.1684 45.9176 65.634L53.7052 59.3608ZM50.2961 57.088L54.2683 47.9108C51.8505 46.8643 49.0125 46.0608 46.0106 45.4025L43.8685 55.1704L41.7265 64.9383C44.1223 65.4637 45.5694 65.9387 46.3239 66.2653L50.2961 57.088ZM43.8685 55.1704L45.9769 45.3952L38.7326 43.8327L36.6242 53.6079L34.5158 63.3831L41.7602 64.9456L43.8685 55.1704ZM36.6242 53.6079L38.744 43.8352C33.4354 42.6837 30.0771 40.9342 27.9918 39.1012L21.3899 46.6122L14.7879 54.1231C20.1363 58.8242 26.9342 61.7386 34.5044 63.3807L36.6242 53.6079ZM21.3899 46.6122L28.0424 39.146C26.8182 38.0553 25.8718 36.4819 25.8855 33.195L15.8856 33.1534L5.88568 33.1117C5.85202 41.1885 8.57509 48.5877 14.7373 54.0783L21.3899 46.6122ZM15.8856 33.1534L25.8855 33.1021C25.8717 30.4103 26.5505 28.4771 27.6973 26.8827L19.5788 21.044L11.4603 15.2053C7.6354 20.5237 5.85218 26.6635 5.88572 33.2047L15.8856 33.1534ZM19.5788 21.044L27.6899 26.8929C29.027 25.0386 30.9968 23.3868 33.9995 22.0701L29.9836 12.9119L25.9677 3.7537C20.1163 6.31957 15.1495 10.0891 11.4676 15.1951L19.5788 21.044ZM29.9836 12.9119L33.9816 22.0779C36.9603 20.7787 40.6616 20 45.289 20V9.99996V-3.8147e-05C38.4107 -3.8147e-05 31.9084 1.16253 25.9856 3.74585L29.9836 12.9119ZM45.289 9.99996V20C50.0649 20 53.6577 20.8003 56.3551 22.0373L60.5234 12.9474L64.6917 3.85755C58.819 1.16457 52.2555 -3.8147e-05 45.289 -3.8147e-05V9.99996ZM60.5234 12.9474L56.3551 22.0373C59.1055 23.2985 60.863 24.8833 62.0428 26.7011L70.431 21.2571L78.8193 15.813C75.3589 10.4813 70.5113 6.52622 64.6917 3.85755L60.5234 12.9474ZM70.431 21.2571L62.085 26.7655C63.2354 28.5086 63.9671 30.7166 63.9823 33.7713L73.9822 33.7216L83.9821 33.6718C83.9499 27.2095 82.3142 21.1079 78.7771 15.7486L70.431 21.2571ZM73.9822 33.7216V23.7216H55.0901V33.7216V43.7216H73.9822V33.7216ZM102.374 53.0397L92.3744 52.9082L92.3735 52.974V53.0397H102.374ZM102.374 83.7216V93.7216H112.374V83.7216H102.374ZM82.7712 83.7216H72.7712V93.7216H82.7712V83.7216ZM82.7712 10.9943V0.994286H72.7712V10.9943H82.7712ZM101.663 10.9943H111.663V0.994286H101.663V10.9943ZM101.663 39.5454H91.6633V49.5454H101.663V39.5454ZM102.231 39.5454V49.5454H109.301L111.659 42.8803L102.231 39.5454ZM108.375 31.4133L113.985 39.6915L114.008 39.6757L114.032 39.6597L108.375 31.4133ZM128.758 31.0937L123.51 39.6054L123.525 39.6151L123.541 39.6248L128.758 31.0937ZM135.399 38.338L126.482 42.865L126.496 42.8921L126.51 42.9192L135.399 38.338ZM137.743 48.9204L127.743 48.8609L127.743 48.8907V48.9204H137.743ZM137.743 83.7216V93.7216H147.743V83.7216H137.743ZM118.141 83.7216H108.141V93.7216H118.141V83.7216ZM118.141 53.0397L108.141 52.952L108.141 52.9959V53.0397H118.141ZM116.116 46.6832L108.598 53.2764L108.626 53.3089L108.655 53.3411L116.116 46.6832ZM106.138 45.4403L111.155 54.0906L111.181 54.0752L111.208 54.0597L106.138 45.4403ZM103.368 48.4233L94.4562 43.8864L94.4398 43.9187L94.4236 43.9511L103.368 48.4233ZM102.374 53.0397H92.3735V83.7216H102.374H112.374V53.0397H102.374ZM102.374 83.7216V73.7216H82.7712V83.7216V93.7216H102.374V83.7216ZM82.7712 83.7216H92.7712V10.9943H82.7712H72.7712V83.7216H82.7712ZM82.7712 10.9943V20.9943H101.663V10.9943V0.994286H82.7712V10.9943ZM101.663 10.9943H91.6633V39.5454H101.663H111.663V10.9943H101.663ZM101.663 39.5454V49.5454H102.231V39.5454V29.5454H101.663V39.5454ZM102.231 39.5454L111.659 42.8803C112.228 41.2705 113.009 40.3526 113.985 39.6915L108.375 31.4133L102.765 23.1352C98.0113 26.3566 94.6966 30.8601 92.8039 36.2105L102.231 39.5454ZM108.375 31.4133L114.032 39.6597C114.978 39.0102 116.374 38.4659 118.709 38.4659V28.4659V18.4659C112.994 18.4659 107.501 19.8865 102.718 23.1669L108.375 31.4133ZM118.709 28.4659V38.4659C121.009 38.4659 122.48 38.9705 123.51 39.6054L128.758 31.0937L134.007 22.582C129.355 19.7131 124.127 18.4659 118.709 18.4659V28.4659ZM128.758 31.0937L123.541 39.6248C124.78 40.3823 125.734 41.3903 126.482 42.865L135.399 38.338L144.316 33.8111C141.939 29.1304 138.466 25.3089 133.976 22.5626L128.758 31.0937ZM135.399 38.338L126.51 42.9192C127.254 44.3619 127.759 46.256 127.743 48.8609L137.743 48.9204L147.743 48.9799C147.775 43.6303 146.717 38.4694 144.288 33.7568L135.399 38.338ZM137.743 48.9204H127.743V83.7216H137.743H147.743V48.9204H137.743ZM137.743 83.7216V73.7216H118.141V83.7216V93.7216H137.743V83.7216ZM118.141 83.7216H128.141V53.0397H118.141H108.141V83.7216H118.141ZM118.141 53.0397L128.14 53.1275C128.179 48.7293 127.064 43.9324 123.578 40.0253L116.116 46.6832L108.655 53.3411C108.506 53.1738 108.384 52.9988 108.29 52.8313C108.197 52.6656 108.147 52.5346 108.124 52.4607C108.08 52.322 108.145 52.4432 108.141 52.952L118.141 53.0397ZM116.116 46.6832L123.635 40.09C119.966 35.9056 115.01 34.375 110.328 34.375V44.375V54.375C110.571 54.375 110.384 54.4126 109.953 54.2407C109.474 54.0497 108.98 53.7123 108.598 53.2764L116.116 46.6832ZM110.328 44.375V34.375C107.2 34.375 104.007 35.092 101.068 36.821L106.138 45.4403L111.208 54.0597C110.975 54.1969 110.745 54.2847 110.555 54.333C110.372 54.3795 110.283 54.375 110.328 54.375V44.375ZM106.138 45.4403L101.121 36.79C98.1549 38.5101 95.9316 40.9883 94.4562 43.8864L103.368 48.4233L112.279 52.9601C112.223 53.0715 112.101 53.2737 111.885 53.5055C111.667 53.7409 111.413 53.9408 111.155 54.0906L106.138 45.4403ZM103.368 48.4233L94.4236 43.9511C92.9585 46.8812 92.4129 49.9807 92.3744 52.9082L102.374 53.0397L112.373 53.1713C112.377 52.8432 112.408 52.6778 112.416 52.6417C112.422 52.611 112.404 52.7123 112.312 52.8954L103.368 48.4233ZM153.386 82.8693L149.377 92.0309L149.427 92.0524L149.476 92.0733L153.386 82.8693ZM147.136 77.6136L138.738 83.0426V83.0426L147.136 77.6136ZM146.39 61.0298L155.394 65.3801L155.403 65.3605L155.413 65.3408L146.39 61.0298ZM150.651 55.8096L156.601 63.847V63.847L150.651 55.8096ZM157.008 52.7201L154.211 43.1191L154.199 43.1228L154.186 43.1265L157.008 52.7201ZM164.891 51.3352L165.645 61.3067L165.655 61.306L165.664 61.3053L164.891 51.3352ZM172.242 50.4829L174.009 60.3256L174.058 60.3168L174.108 60.3074L172.242 50.4829ZM176.29 49.027L182.254 57.0544L182.327 57.0002L182.398 56.9448L176.29 49.027ZM175.9 43.0966L170.189 51.3056V51.3056L175.9 43.0966ZM167.128 43.2031L172.829 51.419L172.846 51.4072L172.863 51.3954L167.128 43.2031ZM165.033 46.9318V56.9318H173.724L174.936 48.3265L165.033 46.9318ZM146.994 46.9318L137.019 46.2193L136.254 56.9318H146.994V46.9318ZM150.154 37.7699L141.855 32.1907L141.85 32.1987L141.844 32.2066L150.154 37.7699ZM158.428 31.0227L162.638 40.0936L162.662 40.0823L162.686 40.0709L158.428 31.0227ZM182.505 29.8508L179.652 39.4351L179.685 39.4451L179.719 39.4549L182.505 29.8508ZM190.424 33.6505L184.424 41.6505L184.452 41.6715L184.48 41.6923L190.424 33.6505ZM195.396 39.3324L186.53 43.958L186.56 44.0159L186.591 44.0733L195.396 39.3324ZM197.136 83.7216V93.7216H207.136V83.7216H197.136ZM178.812 83.7216H168.812V93.7216H178.812V83.7216ZM178.812 76.0511H188.812V66.0511H178.812V76.0511ZM178.386 76.0511V66.0511H172.394L169.568 71.3346L178.386 76.0511ZM174.408 80.9872L168.147 73.19L168.118 73.2134L168.089 73.237L174.408 80.9872ZM169.117 83.7216L166.37 74.1063L166.355 74.1107L166.339 74.1151L169.117 83.7216ZM173.201 71.2926L168.99 62.2225L168.958 62.2371L168.927 62.2519L173.201 71.2926ZM176.432 68.6292L168.295 62.8168V62.8168L176.432 68.6292ZM177.675 59.8579H187.675V44.9626L173.889 50.6025L177.675 59.8579ZM176.006 60.4616L172.959 50.9374L172.901 50.9557L172.844 50.9748L176.006 60.4616ZM174.16 60.9943L171.734 51.2929L171.692 51.3034L171.65 51.3143L174.16 60.9943ZM172.1 61.4559L170.2 51.6381L170.169 51.644L170.139 51.6501L172.1 61.4559ZM169.863 61.8466L168.365 51.9594L168.342 51.9629L168.319 51.9664L169.863 61.8466ZM166.134 63.0184L170.953 71.7806L170.99 71.7604L171.027 71.7399L166.134 63.0184ZM164.003 64.9716L155.452 59.7885L155.428 59.8273L155.405 59.8662L164.003 64.9716ZM164.927 71.0085L170.955 63.0298V63.0298L164.927 71.0085ZM162.619 84.5738V74.5738C160.222 74.5738 158.515 74.1835 157.295 73.6652L153.386 82.8693L149.476 92.0733C153.606 93.8278 158.055 94.5738 162.619 94.5738V84.5738ZM153.386 82.8693L157.394 73.7077C156.47 73.3034 155.942 72.817 155.534 72.1846L147.136 77.6136L138.738 83.0426C141.359 87.0977 144.998 90.1151 149.377 92.0309L153.386 82.8693ZM147.136 77.6136L155.534 72.1846C155.334 71.8758 154.863 70.9265 154.863 68.6647H144.863H134.863C134.863 73.6473 135.907 78.6639 138.738 83.0426L147.136 77.6136ZM144.863 68.6647H154.863C154.863 66.7875 155.186 65.8107 155.394 65.3801L146.39 61.0298L137.386 56.6795C135.558 60.4629 134.863 64.576 134.863 68.6647H144.863ZM146.39 61.0298L155.413 65.3408C155.756 64.6219 156.146 64.1835 156.601 63.847L150.651 55.8096L144.701 47.7722C141.51 50.1346 139.059 53.1763 137.367 56.7188L146.39 61.0298ZM150.651 55.8096L156.601 63.847C157.383 63.2684 158.418 62.729 159.829 62.3138L157.008 52.7201L154.186 43.1265C150.768 44.1317 147.566 45.652 144.701 47.7722L150.651 55.8096ZM157.008 52.7201L159.804 62.3212C161.507 61.8252 163.444 61.4732 165.645 61.3067L164.891 51.3352L164.137 41.3637C160.704 41.6233 157.385 42.1946 154.211 43.1191L157.008 52.7201ZM164.891 51.3352L165.664 61.3053C168.872 61.0566 171.694 60.7411 174.009 60.3256L172.242 50.4829L170.475 40.6402C169.097 40.8876 167.019 41.1403 164.118 41.3651L164.891 51.3352ZM172.242 50.4829L174.108 60.3074C176.413 59.8697 179.577 59.0431 182.254 57.0544L176.29 49.027L170.327 40.9995C170.651 40.7587 170.913 40.614 171.06 40.5394C171.21 40.4638 171.29 40.4366 171.273 40.4427C171.258 40.448 171.179 40.4754 171.021 40.5164C170.866 40.557 170.653 40.6059 170.377 40.6584L172.242 50.4829ZM176.29 49.027L182.398 56.9448C185.668 54.4225 187.533 50.664 187.533 46.5056H177.533H167.533C167.533 45.6664 167.71 44.5982 168.253 43.4957C168.796 42.3947 169.531 41.6115 170.182 41.1091L176.29 49.027ZM177.533 46.5056H187.533V46.3636H177.533H167.533V46.5056H177.533ZM177.533 46.3636H187.533C187.533 41.9428 185.603 37.6652 181.61 34.8875L175.9 43.0966L170.189 51.3056C169.486 50.8166 168.723 50.0373 168.181 48.9536C167.652 47.8957 167.533 46.9476 167.533 46.3636H177.533ZM175.9 43.0966L181.61 34.8875C178.425 32.6716 174.876 31.9602 171.709 31.9602V41.9602V51.9602C171.952 51.9602 171.196 52.0064 170.189 51.3056L175.9 43.0966ZM171.709 41.9602V31.9602C168.389 31.9602 164.692 32.7024 161.394 35.0108L167.128 43.2031L172.863 51.3954C171.933 52.0466 171.29 51.9602 171.709 51.9602V41.9602ZM167.128 43.2031L161.428 34.9872C157.52 37.6985 155.671 41.7008 155.131 45.5371L165.033 46.9318L174.936 48.3265C174.913 48.488 174.817 48.9896 174.453 49.6376C174.068 50.3228 173.506 50.9497 172.829 51.419L167.128 43.2031ZM165.033 46.9318V36.9318H146.994V46.9318V56.9318H165.033V46.9318ZM146.994 46.9318L156.968 47.6443C157.079 46.0853 157.549 44.6997 158.464 43.3331L150.154 37.7699L141.844 32.2066C139.019 36.4271 137.381 41.1495 137.019 46.2193L146.994 46.9318ZM150.154 37.7699L158.453 43.349C159.161 42.2965 160.376 41.1429 162.638 40.0936L158.428 31.0227L154.219 21.9518C149.236 24.2643 144.935 27.6088 141.855 32.1907L150.154 37.7699ZM158.428 31.0227L162.686 40.0709C164.592 39.174 167.55 38.4659 171.994 38.4659V28.4659V18.4659C165.594 18.4659 159.509 19.4623 154.17 21.9745L158.428 31.0227ZM171.994 28.4659V38.4659C175.126 38.4659 177.645 38.8376 179.652 39.4351L182.505 29.8508L185.358 20.2665C181.163 19.0174 176.673 18.4659 171.994 18.4659V28.4659ZM182.505 29.8508L179.719 39.4549C181.872 40.0794 183.373 40.8623 184.424 41.6505L190.424 33.6505L196.424 25.6505C193.119 23.1717 189.341 21.4215 185.291 20.2467L182.505 29.8508ZM190.424 33.6505L184.48 41.6923C185.564 42.4936 186.165 43.2587 186.53 43.958L195.396 39.3324L204.261 34.7067C202.354 31.0499 199.64 28.0271 196.368 25.6088L190.424 33.6505ZM195.396 39.3324L186.591 44.0733C186.938 44.7182 187.136 45.4247 187.136 46.3636H197.136H207.136C207.136 42.2362 206.173 38.2552 204.2 34.5914L195.396 39.3324ZM197.136 46.3636H187.136V83.7216H197.136H207.136V46.3636H197.136ZM197.136 83.7216V73.7216H178.812V83.7216V93.7216H197.136V83.7216ZM178.812 83.7216H188.812V76.0511H178.812H168.812V83.7216H178.812ZM178.812 76.0511V66.0511H178.386V76.0511V86.0511H178.812V76.0511ZM178.386 76.0511L169.568 71.3346C169.019 72.3614 168.51 72.8981 168.147 73.19L174.408 80.9872L180.67 88.7843C183.431 86.5668 185.575 83.8128 187.203 80.7676L178.386 76.0511ZM174.408 80.9872L168.089 73.237C167.646 73.5984 167.109 73.8951 166.37 74.1063L169.117 83.7216L171.864 93.3368C175.102 92.4116 178.093 90.8855 180.728 88.7374L174.408 80.9872ZM169.117 83.7216L166.339 74.1151C165.406 74.385 164.19 74.5738 162.619 74.5738V84.5738V94.5738C165.782 94.5738 168.898 94.1945 171.895 93.328L169.117 83.7216ZM169.011 72.2159V82.2159C171.926 82.2159 174.788 81.6032 177.475 80.3333L173.201 71.2926L168.927 62.2519C168.936 62.2478 168.95 62.2415 168.97 62.2349C168.989 62.2283 169.008 62.223 169.025 62.2193C169.033 62.2175 169.04 62.2163 169.045 62.2155C169.049 62.2147 169.052 62.2145 169.052 62.2145C169.052 62.2145 169.049 62.2148 169.042 62.2152C169.035 62.2155 169.025 62.2159 169.011 62.2159V72.2159ZM173.201 71.2926L177.412 80.3627C180.265 79.0382 182.71 77.0455 184.57 74.4416L176.432 68.6292L168.295 62.8168C168.377 62.7025 168.494 62.5707 168.643 62.4482C168.791 62.3267 168.918 62.2558 168.99 62.2225L173.201 71.2926ZM176.432 68.6292L184.57 74.4416C186.798 71.3216 187.675 67.7951 187.675 64.4034H177.675H167.675C167.675 64.3976 167.677 64.2022 167.771 63.8811C167.869 63.5467 168.041 63.1726 168.295 62.8168L176.432 68.6292ZM177.675 64.4034H187.675V59.8579H177.675H167.675V64.4034H177.675ZM177.675 59.8579L173.889 50.6025C173.634 50.7067 173.326 50.8197 172.959 50.9374L176.006 60.4616L179.054 69.9859C179.87 69.7247 180.675 69.4353 181.462 69.1134L177.675 59.8579ZM176.006 60.4616L172.844 50.9748C172.55 51.0729 172.183 51.1808 171.734 51.2929L174.16 60.9943L176.585 70.6957C177.462 70.4764 178.327 70.2291 179.169 69.9484L176.006 60.4616ZM174.16 60.9943L171.65 51.3143C171.237 51.4215 170.755 51.5306 170.2 51.6381L172.1 61.4559L174 71.2737C174.913 71.0972 175.804 70.8985 176.669 70.6743L174.16 60.9943ZM172.1 61.4559L170.139 51.6501C169.595 51.7588 169.005 51.8624 168.365 51.9594L169.863 61.8466L171.361 71.7337C172.283 71.5939 173.184 71.4371 174.061 71.2617L172.1 61.4559ZM169.863 61.8466L168.319 51.9664C166.041 52.3224 163.562 52.9955 161.242 54.297L166.134 63.0184L171.027 71.7399C170.819 71.8564 170.721 71.8796 170.793 71.857C170.864 71.8346 171.058 71.7812 171.407 71.7267L169.863 61.8466ZM166.134 63.0184L161.315 54.2563C159.114 55.4667 156.988 57.2538 155.452 59.7885L164.003 64.9716L172.555 70.1546C171.966 71.1268 171.26 71.6118 170.953 71.7806L166.134 63.0184ZM164.003 64.9716L155.405 59.8662C153.969 62.2843 153.329 64.9239 153.329 67.5284H163.329H173.329C173.329 68.2389 173.138 69.174 172.602 70.077L164.003 64.9716ZM163.329 67.5284H153.329C153.329 71.6961 154.97 76.0192 158.898 78.9872L164.927 71.0085L170.955 63.0298C171.678 63.5762 172.361 64.37 172.816 65.3618C173.253 66.3127 173.329 67.1115 173.329 67.5284H163.329ZM164.927 71.0085L158.898 78.9872C162.083 81.393 165.712 82.2159 169.011 82.2159V72.2159V62.2159C168.985 62.2159 169.203 62.2124 169.582 62.3244C169.98 62.4422 170.47 62.663 170.955 63.0298L164.927 71.0085ZM215.522 81.3778L210.205 89.8474L210.219 89.856L210.233 89.8647L215.522 81.3778ZM207.709 72.1093L198.654 76.3524L198.664 76.3735L198.674 76.3946L207.709 72.1093ZM207.851 40.3977L198.907 35.9256L198.897 35.9462L198.886 35.9668L207.851 40.3977ZM215.806 31.3423L210.744 22.7181L210.73 22.7262L210.716 22.7343L215.806 31.3423ZM233.206 29.8863L228.989 38.9535L229.032 38.9738L229.076 38.9936L233.206 29.8863ZM238.32 33.615L230.808 40.2162L230.833 40.2446L230.858 40.2729L238.32 33.615ZM241.445 38.6931L232.111 42.2829L234.577 48.6931H241.445V38.6931ZM241.729 38.6931V48.6931H251.729V38.6931H241.729ZM241.729 10.9943V0.994286H231.729V10.9943H241.729ZM261.331 10.9943H271.331V0.994286H261.331V10.9943ZM261.331 83.7216V93.7216H271.331V83.7216H261.331ZM241.871 83.7216H231.871V93.7216H241.871V83.7216ZM241.871 74.7727H251.871V64.7727H241.871V74.7727ZM241.445 74.7727V64.7727H234.739L232.193 70.9771L241.445 74.7727ZM238.178 79.7443L230.992 72.7901L230.99 72.792L238.178 79.7443ZM233.064 83.1889L236.91 92.4197L236.937 92.4084L236.964 92.3971L233.064 83.1889ZM238.107 67.8125L244.424 75.5648L244.431 75.5584L244.439 75.552L238.107 67.8125ZM241.09 63.338L231.699 59.9022L231.687 59.9347L231.675 59.9673L241.09 63.338ZM241.09 49.5241L231.662 52.8583L231.687 52.928L231.712 52.9973L241.09 49.5241ZM238.107 45.0852L231.79 52.8375L231.868 52.9012L231.948 52.9633L238.107 45.0852ZM228.874 45.0852L235.174 52.8508L235.182 52.8442L235.191 52.8375L228.874 45.0852ZM225.962 49.5241L216.534 46.1899L216.522 46.2234L216.511 46.257L225.962 49.5241ZM225.962 63.4091L216.498 66.6405L216.522 66.7103L216.547 66.7798L225.962 63.4091ZM228.874 67.848L222.486 75.5421L222.565 75.6072L222.645 75.6708L228.874 67.848ZM226.246 84.4318V74.4318C224.216 74.4318 222.476 73.929 220.811 72.8909L215.522 81.3778L210.233 89.8647C215.101 92.8985 220.511 94.4318 226.246 94.4318V84.4318ZM215.522 81.3778L220.838 72.9083C219.502 72.0692 218.056 70.59 216.744 67.824L207.709 72.1093L198.674 76.3946C201.292 81.9147 205.055 86.6144 210.205 89.8474L215.522 81.3778ZM207.709 72.1093L216.764 67.8663C215.633 65.4527 214.797 61.7992 214.797 56.4488H204.797H194.797C194.797 63.6931 195.902 70.48 198.654 76.3524L207.709 72.1093ZM204.797 56.4488H214.797C214.797 50.7857 215.69 47.1061 216.816 44.8286L207.851 40.3977L198.886 35.9668C195.94 41.928 194.797 48.9491 194.797 56.4488H204.797ZM207.851 40.3977L216.795 44.8698C218.187 42.0865 219.643 40.6907 220.895 39.9503L215.806 31.3423L210.716 22.7343C205.482 25.8291 201.635 30.4702 198.907 35.9256L207.851 40.3977ZM215.806 31.3423L220.868 39.9665C222.684 38.9003 224.38 38.4659 226.104 38.4659V28.4659V18.4659C220.631 18.4659 215.461 19.9491 210.744 22.7181L215.806 31.3423ZM226.104 28.4659V38.4659C227.636 38.4659 228.514 38.7324 228.989 38.9535L233.206 29.8863L237.424 20.8191C233.827 19.1463 229.97 18.4659 226.104 18.4659V28.4659ZM233.206 29.8863L229.076 38.9936C229.918 39.3754 230.44 39.7975 230.808 40.2162L238.32 33.615L245.832 27.0139C243.453 24.3075 240.566 22.2439 237.336 20.779L233.206 29.8863ZM238.32 33.615L230.858 40.2729C231.462 40.9492 231.853 41.6112 232.111 42.2829L241.445 38.6931L250.778 35.1034C249.616 32.0819 247.924 29.3585 245.781 26.9571L238.32 33.615ZM241.445 38.6931V48.6931H241.729V38.6931V28.6931H241.445V38.6931ZM241.729 38.6931H251.729V10.9943H241.729H231.729V38.6931H241.729ZM241.729 10.9943V20.9943H261.331V10.9943V0.994286H241.729V10.9943ZM261.331 10.9943H251.331V83.7216H261.331H271.331V10.9943H261.331ZM261.331 83.7216V73.7216H241.871V83.7216V93.7216H261.331V83.7216ZM241.871 83.7216H251.871V74.7727H241.871H231.871V83.7216H241.871ZM241.871 74.7727V64.7727H241.445V74.7727V84.7727H241.871V74.7727ZM241.445 74.7727L232.193 70.9771C231.929 71.6216 231.551 72.2127 230.992 72.7901L238.178 79.7443L245.364 86.6985C247.646 84.3402 249.446 81.617 250.697 78.5683L241.445 74.7727ZM238.178 79.7443L230.99 72.792C230.606 73.1892 230.05 73.6057 229.164 73.9807L233.064 83.1889L236.964 92.3971C240.103 91.0675 242.956 89.1876 245.366 86.6965L238.178 79.7443ZM233.064 83.1889L229.218 73.9581C228.653 74.1934 227.725 74.4318 226.246 74.4318V84.4318V94.4318C229.881 94.4318 233.498 93.8416 236.91 92.4197L233.064 83.1889ZM233.49 69.375V79.375C237.367 79.375 241.195 78.1958 244.424 75.5648L238.107 67.8125L231.79 60.0601C232.063 59.8381 232.409 59.6405 232.788 59.5122C233.156 59.3876 233.416 59.375 233.49 59.375V69.375ZM238.107 67.8125L244.439 75.552C247.416 73.1166 249.335 69.9747 250.505 66.7088L241.09 63.338L231.675 59.9673C231.57 60.261 231.497 60.3649 231.509 60.3479C231.515 60.3389 231.539 60.3036 231.586 60.2515C231.633 60.199 231.696 60.1371 231.774 60.0729L238.107 67.8125ZM241.09 63.338L250.481 66.7738C251.69 63.4701 252.155 59.957 252.155 56.4488H242.155H232.155C232.155 58.2437 231.91 59.3234 231.699 59.9022L241.09 63.338ZM242.155 56.4488H252.155C252.155 52.9222 251.697 49.3724 250.467 46.051L241.09 49.5241L231.712 52.9973C231.903 53.5111 232.155 54.5778 232.155 56.4488H242.155ZM241.09 49.5241L250.518 46.1899C249.352 42.8942 247.398 39.6556 244.266 37.2071L238.107 45.0852L231.948 52.9633C231.832 52.8725 231.737 52.7829 231.664 52.7035C231.592 52.6248 231.549 52.565 231.529 52.536C231.492 52.4805 231.557 52.5604 231.662 52.8583L241.09 49.5241ZM238.107 45.0852L244.424 37.3328C241.195 34.7019 237.367 33.5227 233.49 33.5227V43.5227V53.5227C233.416 53.5227 233.156 53.5101 232.788 53.3855C232.409 53.2571 232.063 53.0595 231.79 52.8375L238.107 45.0852ZM233.49 43.5227V33.5227C229.614 33.5227 225.786 34.7019 222.557 37.3328L228.874 45.0852L235.191 52.8375C234.918 53.0595 234.572 53.2571 234.193 53.3855C233.825 53.5101 233.565 53.5227 233.49 53.5227V43.5227ZM228.874 45.0852L222.573 37.3196C219.545 39.777 217.669 42.982 216.534 46.1899L225.962 49.5241L235.39 52.8583C235.508 52.5247 235.586 52.413 235.566 52.4435C235.555 52.4606 235.519 52.5128 235.452 52.5877C235.385 52.6632 235.293 52.7545 235.174 52.8508L228.874 45.0852ZM225.962 49.5241L216.511 46.257C215.387 49.5081 214.968 52.9825 214.968 56.4488H224.968H234.968C234.968 54.5175 235.211 53.3754 235.413 52.7912L225.962 49.5241ZM224.968 56.4488H214.968C214.968 59.9204 215.388 63.3892 216.498 66.6405L225.962 63.4091L235.425 60.1776C235.21 59.5463 234.968 58.375 234.968 56.4488H224.968ZM225.962 63.4091L216.547 66.7798C217.689 69.9678 219.549 73.1039 222.486 75.5421L228.874 67.848L235.261 60.1539C235.357 60.2332 235.431 60.3074 235.483 60.3672C235.536 60.4265 235.562 60.465 235.566 60.4719C235.574 60.4832 235.493 60.3625 235.377 60.0383L225.962 63.4091ZM228.874 67.848L222.645 75.6708C225.874 78.2427 229.671 79.375 233.49 79.375V69.375V59.375C233.541 59.375 233.779 59.3838 234.127 59.4991C234.487 59.6182 234.827 59.8054 235.103 60.0252L228.874 67.848ZM282.034 81.2002L277.136 89.9186L277.155 89.9291L277.174 89.9395L282.034 81.2002ZM272.34 71.3281L263.507 76.016L263.512 76.0263L263.518 76.0365L272.34 71.3281ZM272.34 41.8892L281.162 46.5976L281.167 46.5874L281.173 46.5771L272.34 41.8892ZM282.034 32.017L286.895 40.7563L286.914 40.7459L286.932 40.7354L282.034 32.017ZM312.432 32.017L307.534 40.7354L307.553 40.7459L307.572 40.7563L312.432 32.017ZM322.127 41.8892L313.294 46.5771L313.299 46.5874L313.305 46.5976L322.127 41.8892ZM322.127 71.3281L330.949 76.0365L330.954 76.0263L330.96 76.016L322.127 71.3281ZM312.432 81.2002L317.293 89.9395L317.311 89.9291L317.33 89.9186L312.432 81.2002ZM301.672 68.5582L308.449 75.9118V75.9118L301.672 68.5582ZM304.478 63.7997L313.997 66.8633V66.8633L304.478 63.7997ZM304.478 49.098L294.958 52.1616L294.964 52.1777L294.969 52.1938L304.478 49.098ZM301.672 44.3395L308.449 36.9859V36.9859L301.672 44.3395ZM289.989 49.098L299.498 52.1938L299.503 52.1777L299.508 52.1616L289.989 49.098ZM289.989 63.7997L299.508 60.7361V60.736L289.989 63.7997ZM292.865 68.5582L286.23 76.0401L292.865 68.5582ZM297.233 84.7159V74.7159C292.632 74.7159 289.32 73.8097 286.895 72.461L282.034 81.2002L277.174 89.9395C283.177 93.2783 289.997 94.7159 297.233 94.7159V84.7159ZM282.034 81.2002L286.932 72.4819C284.361 71.0374 282.501 69.1288 281.162 66.6196L272.34 71.3281L263.518 76.0365C266.677 81.9554 271.28 86.6282 277.136 89.9186L282.034 81.2002ZM272.34 71.3281L281.173 66.6401C279.807 64.0672 278.966 60.8134 278.966 56.5909H268.966H258.966C258.966 63.5426 260.374 70.1136 263.507 76.016L272.34 71.3281ZM268.966 56.5909H278.966C278.966 52.3668 279.808 49.1348 281.162 46.5976L272.34 41.8892L263.518 37.1807C260.374 43.0716 258.966 49.6407 258.966 56.5909H268.966ZM272.34 41.8892L281.173 46.5771C282.512 44.0543 284.359 42.1665 286.895 40.7563L282.034 32.017L277.174 23.2778C271.281 26.555 266.666 31.2487 263.507 37.2012L272.34 41.8892ZM282.034 32.017L286.932 40.7354C289.349 39.3774 292.648 38.4659 297.233 38.4659V28.4659V18.4659C289.981 18.4659 283.147 19.9217 277.136 23.2986L282.034 32.017ZM297.233 28.4659V38.4659C301.818 38.4659 305.117 39.3774 307.534 40.7354L312.432 32.017L317.33 23.2986C311.319 19.9217 304.485 18.4659 297.233 18.4659V28.4659ZM312.432 32.017L307.572 40.7563C310.107 42.1665 311.955 44.0543 313.294 46.5771L322.127 41.8892L330.96 37.2012C327.801 31.2487 323.185 26.555 317.293 23.2778L312.432 32.017ZM322.127 41.8892L313.305 46.5976C314.659 49.1348 315.5 52.3668 315.5 56.5909H325.5H335.5C335.5 49.6407 334.093 43.0716 330.949 37.1807L322.127 41.8892ZM325.5 56.5909H315.5C315.5 60.8134 314.659 64.0672 313.294 66.6401L322.127 71.3281L330.96 76.016C334.092 70.1136 335.5 63.5426 335.5 56.5909H325.5ZM322.127 71.3281L313.305 66.6196C311.965 69.1288 310.105 71.0374 307.534 72.4819L312.432 81.2002L317.33 89.9186C323.187 86.6282 327.79 81.9554 330.949 76.0365L322.127 71.3281ZM312.432 81.2002L307.572 72.461C305.147 73.8097 301.834 74.7159 297.233 74.7159V84.7159V94.7159C304.47 94.7159 311.29 93.2783 317.293 89.9395L312.432 81.2002ZM297.375 70.2272V80.2272C301.518 80.2272 305.376 78.7437 308.449 75.9118L301.672 68.5582L294.895 61.2046C295.148 60.9721 295.544 60.6935 296.072 60.4885C296.598 60.2841 297.063 60.2272 297.375 60.2272V70.2272ZM301.672 68.5582L308.449 75.9118C311.266 73.3157 312.968 70.0597 313.997 66.8633L304.478 63.7997L294.958 60.736C294.815 61.1817 294.699 61.3977 294.665 61.4554C294.635 61.5053 294.697 61.3875 294.895 61.2047L301.672 68.5582ZM304.478 63.7997L313.997 66.8633C315.06 63.5593 315.472 60.0238 315.472 56.4488H305.472H295.472C295.472 58.5557 295.221 59.9207 294.958 60.736L304.478 63.7997ZM305.472 56.4488H315.472C315.472 52.8648 315.064 49.3109 313.986 46.0021L304.478 49.098L294.969 52.1938C295.217 52.9571 295.472 54.3037 295.472 56.4488H305.472ZM304.478 49.098L313.997 46.0343C312.968 42.8379 311.266 39.5819 308.449 36.9859L301.672 44.3395L294.895 51.693C294.697 51.5101 294.635 51.3923 294.665 51.4422C294.699 51.4999 294.815 51.716 294.958 52.1616L304.478 49.098ZM301.672 44.3395L308.449 36.9859C305.376 34.154 301.518 32.6704 297.375 32.6704V42.6704V52.6704C297.063 52.6704 296.598 52.6135 296.072 52.4092C295.544 52.2042 295.148 51.9256 294.895 51.693L301.672 44.3395ZM297.375 42.6704V32.6704C293.298 32.6704 289.402 34.045 286.23 36.8576L292.865 44.3395L299.5 51.8213C299.243 52.0493 298.869 52.294 298.405 52.4661C297.947 52.6356 297.574 52.6704 297.375 52.6704V42.6704ZM292.865 44.3395L286.23 36.8576C283.301 39.4558 281.525 42.7549 280.47 46.0343L289.989 49.098L299.508 52.1616C299.64 51.7502 299.745 51.5667 299.763 51.5367C299.776 51.5159 299.701 51.6431 299.5 51.8213L292.865 44.3395ZM289.989 49.098L280.48 46.0021C279.403 49.3109 278.995 52.8648 278.995 56.4488H288.995H298.995C298.995 54.3037 299.249 52.9571 299.498 52.1938L289.989 49.098ZM288.995 56.4488H278.995C278.995 60.0238 279.406 63.5593 280.47 66.8633L289.989 63.7997L299.508 60.736C299.246 59.9207 298.995 58.5557 298.995 56.4488H288.995ZM289.989 63.7997L280.47 66.8633C281.525 70.1428 283.301 73.4419 286.23 76.0401L292.865 68.5582L299.5 61.0763C299.701 61.2546 299.776 61.3818 299.763 61.3609C299.745 61.3309 299.64 61.1474 299.508 60.7361L289.989 63.7997ZM292.865 68.5582L286.23 76.0401C289.402 78.8526 293.298 80.2272 297.375 80.2272V70.2272V60.2272C297.574 60.2272 297.947 60.2621 298.405 60.4316C298.869 60.6036 299.243 60.8483 299.5 61.0763L292.865 68.5582ZM342.137 83.7216L332.436 86.1469L334.33 93.7216H342.137V83.7216ZM328.501 29.1761V19.1761H315.693L318.8 31.6015L328.501 29.1761ZM348.103 29.1761L357.931 27.3281L356.398 19.1761H348.103V29.1761ZM354.353 62.4147L344.526 64.2627L346.058 72.4147H354.353V62.4147ZM354.779 62.4147V72.4147H362.902L364.567 64.4643L354.779 62.4147ZM361.74 29.1761V19.1761H353.617L351.952 27.1265L361.74 29.1761ZM380.774 29.1761L390.541 27.0291L388.814 19.1761H380.774V29.1761ZM388.018 62.1306L378.251 64.2777L379.978 72.1306H388.018V62.1306ZM388.444 62.1306V72.1306H396.796L398.284 63.912L388.444 62.1306ZM394.41 29.1761V19.1761H386.058L384.57 27.3947L394.41 29.1761ZM414.012 29.1761L423.714 31.6015L426.82 19.1761H414.012V29.1761ZM400.376 83.7216V93.7216H408.184L410.077 86.1469L400.376 83.7216ZM379.211 83.7216L369.538 86.2572L371.495 93.7216H379.211V83.7216ZM371.541 54.4602L381.214 51.9245L379.257 44.4602H371.541V54.4602ZM370.973 54.4602V44.4602H363.256L361.299 51.9245L370.973 54.4602ZM363.302 83.7216V93.7216H371.019L372.975 86.2572L363.302 83.7216ZM342.137 83.7216L351.839 81.2962L338.202 26.7507L328.501 29.1761L318.8 31.6015L332.436 86.1469L342.137 83.7216ZM328.501 29.1761V39.1761H348.103V29.1761V19.1761H328.501V29.1761ZM348.103 29.1761L338.276 31.0241L344.526 64.2627L354.353 62.4147L364.181 60.5668L357.931 27.3281L348.103 29.1761ZM354.353 62.4147V72.4147H354.779V62.4147V52.4147H354.353V62.4147ZM354.779 62.4147L364.567 64.4643L371.527 31.2257L361.74 29.1761L351.952 27.1265L344.992 60.3652L354.779 62.4147ZM361.74 29.1761V39.1761H380.774V29.1761V19.1761H361.74V29.1761ZM380.774 29.1761L371.007 31.3231L378.251 64.2777L388.018 62.1306L397.785 59.9836L390.541 27.0291L380.774 29.1761ZM388.018 62.1306V72.1306H388.444V62.1306V52.1306H388.018V62.1306ZM388.444 62.1306L398.284 63.912L404.25 30.9575L394.41 29.1761L384.57 27.3947L378.604 60.3493L388.444 62.1306ZM394.41 29.1761V39.1761H414.012V29.1761V19.1761H394.41V29.1761ZM414.012 29.1761L404.311 26.7507L390.675 81.2962L400.376 83.7216L410.077 86.1469L423.714 31.6015L414.012 29.1761ZM400.376 83.7216V73.7216H379.211V83.7216V93.7216H400.376V83.7216ZM379.211 83.7216L388.884 81.1859L381.214 51.9245L371.541 54.4602L361.868 56.9959L369.538 86.2572L379.211 83.7216ZM371.541 54.4602V44.4602H370.973V54.4602V64.4602H371.541V54.4602ZM370.973 54.4602L361.299 51.9245L353.629 81.1859L363.302 83.7216L372.975 86.2572L380.646 56.9959L370.973 54.4602ZM363.302 83.7216V73.7216H342.137V83.7216V93.7216H363.302V83.7216ZM439.616 83.7216H429.616V93.7216H439.616V83.7216ZM439.616 10.9943V0.994286H429.616V10.9943H439.616ZM485.106 13.2315L481.422 22.5283L481.432 22.5323L481.442 22.5362L485.106 13.2315ZM493.664 19.5525L485.489 25.311L485.505 25.3346L485.522 25.3582L493.664 19.5525ZM494.801 36.4914L485.993 31.7561L485.973 31.793L485.954 31.8301L494.801 36.4914ZM489.9 42.0312L495.616 50.2365L495.647 50.215L495.678 50.1933L489.9 42.0312ZM482.514 45.0852L480.537 35.2826L472.514 36.9007V45.0852H482.514ZM482.514 45.7954H472.514V55.4238L482.135 55.7883L482.514 45.7954ZM491.037 48.1747L486.058 56.8472L486.088 56.8646L486.119 56.8818L491.037 48.1747ZM497.144 54.1761L488.542 59.2741L488.552 59.2917L488.562 59.3093L497.144 54.1761ZM496.292 73.7429L487.991 68.1666L487.977 68.1886L487.962 68.2105L496.292 73.7429ZM487.485 81.0582L483.263 71.9935V71.9935L487.485 81.0582ZM459.36 67.9545H449.36V77.9545H459.36V67.9545ZM476.051 66.1079L482.014 74.1354L482.051 74.1081L482.087 74.0805L476.051 66.1079ZM474.027 53.5369L470.051 62.7124L470.078 62.7244L470.106 62.7361L474.027 53.5369ZM459.36 52.6136V42.6136H449.36V52.6136H459.36ZM459.36 40.3977H449.36V50.3977H459.36V40.3977ZM472.038 39.5809L475.837 48.8311V48.8311L472.038 39.5809ZM475.127 37.2372L467.04 31.3555L467.028 31.3723L467.016 31.3892L475.127 37.2372ZM473.849 28.2883L467.849 36.2883L467.887 36.3168L467.925 36.3448L473.849 28.2883ZM459.36 26.4772V16.4772H449.36V26.4772H459.36ZM439.616 83.7216H449.616V10.9943H439.616H429.616V83.7216H439.616ZM439.616 10.9943V20.9943H471.15V10.9943V0.994286H439.616V10.9943ZM471.15 10.9943V20.9943C475.863 20.9943 479.176 21.6382 481.422 22.5283L485.106 13.2315L488.79 3.93468C483.508 1.8418 477.517 0.994286 471.15 0.994286V10.9943ZM485.106 13.2315L481.442 22.5362C483.82 23.4723 484.925 24.5099 485.489 25.311L493.664 19.5525L501.84 13.7941C498.569 9.15005 493.968 5.97369 488.77 3.92681L485.106 13.2315ZM493.664 19.5525L485.522 25.3582C486.129 26.2094 486.576 27.3364 486.576 29.1761H496.576H506.576C506.576 23.6294 505.082 18.3407 501.806 13.7468L493.664 19.5525ZM496.576 29.1761H486.576C486.576 30.3179 486.339 31.1117 485.993 31.7561L494.801 36.4914L503.608 41.2268C505.629 37.4678 506.576 33.3847 506.576 29.1761H496.576ZM494.801 36.4914L485.954 31.8301C485.555 32.5869 484.995 33.2518 484.123 33.8692L489.9 42.0312L495.678 50.1933C499.02 47.8277 501.727 44.7994 503.648 41.1528L494.801 36.4914ZM489.9 42.0312L484.184 33.8259C483.328 34.4225 482.172 34.9528 480.537 35.2826L482.514 45.0852L484.491 54.8878C488.49 54.0812 492.259 52.5755 495.616 50.2365L489.9 42.0312ZM482.514 45.0852H472.514V45.7954H482.514H492.514V45.0852H482.514ZM482.514 45.7954L482.135 55.7883C483.744 55.8492 484.99 56.2343 486.058 56.8472L491.037 48.1747L496.015 39.5022C491.969 37.1795 487.534 35.9784 482.892 35.8026L482.514 45.7954ZM491.037 48.1747L486.119 56.8818C487.133 57.455 487.907 58.2027 488.542 59.2741L497.144 54.1761L505.747 49.0781C503.352 45.0358 500.053 41.7827 495.954 39.4676L491.037 48.1747ZM497.144 54.1761L488.562 59.3093C489.007 60.0532 489.417 61.2013 489.417 63.125H499.417H509.417C509.417 58.1831 508.312 53.3653 505.726 49.0429L497.144 54.1761ZM499.417 63.125H489.417C489.417 65.2509 488.894 66.8226 487.991 68.1666L496.292 73.7429L504.593 79.3191C507.857 74.4605 509.417 68.9536 509.417 63.125H499.417ZM496.292 73.7429L487.962 68.2105C487.047 69.5876 485.627 70.8919 483.263 71.9935L487.485 81.0582L491.708 90.1229C496.967 87.6733 501.418 84.1008 504.622 79.2752L496.292 73.7429ZM487.485 81.0582L483.263 71.9935C481.067 73.0165 478.031 73.7216 473.849 73.7216V83.7216V93.7216C480.225 93.7216 486.281 92.651 491.708 90.1229L487.485 81.0582ZM473.849 83.7216V73.7216H439.616V83.7216V93.7216H473.849V83.7216ZM459.36 67.9545V77.9545H468.593V67.9545V57.9545H459.36V67.9545ZM468.593 67.9545V77.9545C472.854 77.9545 477.869 77.2147 482.014 74.1354L476.051 66.1079L470.087 58.0805C470.545 57.7406 470.796 57.7225 470.54 57.786C470.274 57.8518 469.664 57.9545 468.593 57.9545V67.9545ZM476.051 66.1079L482.087 74.0805C486.692 70.5939 488.537 65.5254 488.537 60.5681H478.537H468.537C468.537 60.6598 468.522 60.2881 468.791 59.688C469.083 59.0373 469.542 58.4928 470.014 58.1353L476.051 66.1079ZM478.537 60.5681H488.537C488.537 57.3057 487.772 53.8506 485.711 50.7273L477.365 56.2358L469.019 61.7442C468.79 61.3984 468.658 61.0682 468.59 60.8177C468.526 60.5798 468.537 60.4775 468.537 60.5681H478.537ZM477.365 56.2358L485.711 50.7273C483.734 47.733 480.997 45.6372 477.948 44.3377L474.027 53.5369L470.106 62.7361C470.059 62.7161 469.886 62.6346 469.657 62.4496C469.422 62.2595 469.199 62.0172 469.019 61.7442L477.365 56.2358ZM474.027 53.5369L478.003 44.3613C475.012 43.0652 471.866 42.6136 468.877 42.6136V52.6136V62.6136C469.914 62.6136 470.201 62.7776 470.051 62.7124L474.027 53.5369ZM468.877 52.6136V42.6136H459.36V52.6136V62.6136H468.877V52.6136ZM459.36 52.6136H449.36V67.9545H459.36H469.36V52.6136H459.36ZM459.36 40.3977V50.3977H467.457V40.3977V30.3977H459.36V40.3977ZM467.457 40.3977V50.3977C470.226 50.3977 473.085 49.9614 475.837 48.8311L472.038 39.5809L468.239 30.3307C468.339 30.2895 468.144 30.3977 467.457 30.3977V40.3977ZM472.038 39.5809L475.837 48.8311C478.639 47.6804 481.265 45.8235 483.239 43.0852L475.127 37.2372L467.016 31.3892C467.246 31.0691 467.509 30.8107 467.761 30.6197C468.006 30.434 468.187 30.3521 468.239 30.3307L472.038 39.5809ZM475.127 37.2372L483.215 43.1189C485.404 40.1081 486.264 36.6965 486.264 33.4375H476.264H466.264C466.264 33.3352 466.277 33.0475 466.399 32.6407C466.525 32.2204 466.737 31.7727 467.04 31.3555L475.127 37.2372ZM476.264 33.4375H486.264C486.264 28.467 484.294 23.5565 479.773 20.2318L473.849 28.2883L467.925 36.3448C467.46 36.003 466.951 35.445 466.606 34.7093C466.28 34.0139 466.264 33.51 466.264 33.4375H476.264ZM473.849 28.2883L479.849 20.2883C476.151 17.5145 471.873 16.4772 467.741 16.4772V26.4772V36.4772C468.159 36.4772 468.31 36.5287 468.272 36.5174C468.252 36.5116 468.195 36.4927 468.113 36.4518C468.03 36.4106 467.939 36.3558 467.849 36.2883L473.849 28.2883ZM467.741 26.4772V16.4772H459.36V26.4772V36.4772H467.741V26.4772ZM459.36 26.4772H449.36V40.3977H459.36H469.36V26.4772H459.36ZM517.777 81.2002L512.879 89.9186L512.897 89.9291L512.916 89.9395L517.777 81.2002ZM508.082 71.3281L499.249 76.016L499.254 76.0263L499.26 76.0365L508.082 71.3281ZM508.082 41.8892L516.904 46.5976L516.91 46.5874L516.915 46.5771L508.082 41.8892ZM517.777 32.017L522.637 40.7563L522.656 40.7459L522.675 40.7354L517.777 32.017ZM548.174 32.017L543.276 40.7354L543.295 40.7459L543.314 40.7563L548.174 32.017ZM557.869 41.8892L549.036 46.5771L549.041 46.5874L549.047 46.5976L557.869 41.8892ZM557.869 71.3281L566.691 76.0365L566.697 76.0263L566.702 76.016L557.869 71.3281ZM548.174 81.2002L553.035 89.9395L553.054 89.9291L553.072 89.9186L548.174 81.2002ZM537.414 68.5582L544.191 75.9118L544.191 75.9118L537.414 68.5582ZM540.22 63.7997L549.739 66.8633V66.8633L540.22 63.7997ZM540.22 49.098L530.701 52.1616L530.706 52.1777L530.711 52.1938L540.22 49.098ZM537.414 44.3395L544.191 36.9859L544.191 36.9859L537.414 44.3395ZM525.731 49.098L535.24 52.1938L535.245 52.1777L535.25 52.1616L525.731 49.098ZM525.731 63.7997L535.25 60.7361V60.736L525.731 63.7997ZM528.608 68.5582L521.973 76.0401L528.608 68.5582ZM532.975 84.7159V74.7159C528.375 74.7159 525.062 73.8097 522.637 72.461L517.777 81.2002L512.916 89.9395C518.919 93.2783 525.739 94.7159 532.975 94.7159V84.7159ZM517.777 81.2002L522.675 72.4819C520.103 71.0374 518.243 69.1288 516.904 66.6196L508.082 71.3281L499.26 76.0365C502.419 81.9554 507.022 86.6282 512.879 89.9186L517.777 81.2002ZM508.082 71.3281L516.915 66.6401C515.549 64.0672 514.708 60.8134 514.708 56.5909H504.708H494.708C494.708 63.5426 496.116 70.1136 499.249 76.016L508.082 71.3281ZM504.708 56.5909H514.708C514.708 52.3668 515.55 49.1348 516.904 46.5976L508.082 41.8892L499.26 37.1807C496.116 43.0716 494.708 49.6407 494.708 56.5909H504.708ZM508.082 41.8892L516.915 46.5771C518.254 44.0543 520.102 42.1665 522.637 40.7563L517.777 32.017L512.916 23.2778C507.024 26.555 502.408 31.2487 499.249 37.2012L508.082 41.8892ZM517.777 32.017L522.675 40.7354C525.092 39.3774 528.39 38.4659 532.975 38.4659V28.4659V18.4659C525.723 18.4659 518.889 19.9217 512.879 23.2986L517.777 32.017ZM532.975 28.4659V38.4659C537.561 38.4659 540.859 39.3774 543.276 40.7354L548.174 32.017L553.072 23.2986C547.061 19.9217 540.227 18.4659 532.975 18.4659V28.4659ZM548.174 32.017L543.314 40.7563C545.849 42.1665 547.697 44.0543 549.036 46.5771L557.869 41.8892L566.702 37.2012C563.543 31.2487 558.927 26.555 553.035 23.2778L548.174 32.017ZM557.869 41.8892L549.047 46.5976C550.401 49.1348 551.242 52.3668 551.242 56.5909H561.242H571.242C571.242 49.6407 569.835 43.0716 566.691 37.1807L557.869 41.8892ZM561.242 56.5909H551.242C551.242 60.8134 550.401 64.0672 549.036 66.6401L557.869 71.3281L566.702 76.016C569.835 70.1136 571.242 63.5426 571.242 56.5909H561.242ZM557.869 71.3281L549.047 66.6196C547.708 69.1288 545.847 71.0374 543.276 72.4819L548.174 81.2002L553.072 89.9186C558.929 86.6282 563.532 81.9554 566.691 76.0365L557.869 71.3281ZM548.174 81.2002L543.314 72.461C540.889 73.8097 537.576 74.7159 532.975 74.7159V84.7159V94.7159C540.212 94.7159 547.032 93.2783 553.035 89.9395L548.174 81.2002ZM533.117 70.2272V80.2272C537.26 80.2272 541.118 78.7437 544.191 75.9118L537.414 68.5582L530.638 61.2046C530.89 60.9721 531.286 60.6935 531.814 60.4885C532.34 60.2841 532.805 60.2272 533.117 60.2272V70.2272ZM537.414 68.5582L544.191 75.9118C547.008 73.3157 548.71 70.0597 549.739 66.8633L540.22 63.7997L530.701 60.736C530.557 61.1817 530.441 61.3977 530.407 61.4554C530.377 61.5053 530.439 61.3875 530.638 61.2047L537.414 68.5582ZM540.22 63.7997L549.739 66.8633C550.802 63.5593 551.214 60.0238 551.214 56.4488H541.214H531.214C531.214 58.5557 530.963 59.9207 530.701 60.736L540.22 63.7997ZM541.214 56.4488H551.214C551.214 52.8648 550.806 49.3109 549.728 46.0021L540.22 49.098L530.711 52.1938C530.96 52.9571 531.214 54.3037 531.214 56.4488H541.214ZM540.22 49.098L549.739 46.0343C548.71 42.8379 547.008 39.5819 544.191 36.9859L537.414 44.3395L530.638 51.693C530.439 51.5101 530.377 51.3923 530.407 51.4422C530.441 51.4999 530.557 51.716 530.701 52.1616L540.22 49.098ZM537.414 44.3395L544.191 36.9859C541.118 34.154 537.26 32.6704 533.117 32.6704V42.6704V52.6704C532.805 52.6704 532.34 52.6135 531.814 52.4092C531.286 52.2042 530.89 51.9256 530.638 51.693L537.414 44.3395ZM533.117 42.6704V32.6704C529.04 32.6704 525.144 34.045 521.973 36.8576L528.608 44.3395L535.242 51.8213C534.985 52.0493 534.612 52.294 534.147 52.4661C533.689 52.6356 533.316 52.6704 533.117 52.6704V42.6704ZM528.608 44.3395L521.973 36.8576C519.043 39.4558 517.267 42.7549 516.212 46.0343L525.731 49.098L535.25 52.1616C535.383 51.7502 535.487 51.5667 535.505 51.5367C535.518 51.5159 535.443 51.6431 535.242 51.8213L528.608 44.3395ZM525.731 49.098L516.222 46.0021C515.145 49.3109 514.737 52.8648 514.737 56.4488H524.737H534.737C534.737 54.3037 534.991 52.9571 535.24 52.1938L525.731 49.098ZM524.737 56.4488H514.737C514.737 60.0238 515.149 63.5593 516.212 66.8633L525.731 63.7997L535.25 60.736C534.988 59.9207 534.737 58.5557 534.737 56.4488H524.737ZM525.731 63.7997L516.212 66.8633C517.267 70.1428 519.043 73.4419 521.973 76.0401L528.608 68.5582L535.242 61.0763C535.443 61.2546 535.518 61.3818 535.505 61.3609C535.487 61.3309 535.383 61.1474 535.25 60.7361L525.731 63.7997ZM528.608 68.5582L521.973 76.0401C525.144 78.8526 529.04 80.2272 533.117 80.2272V70.2272V60.2272C533.316 60.2272 533.689 60.2621 534.147 60.4316C534.612 60.6036 534.985 60.8483 535.242 61.0763L528.608 68.5582ZM584.245 29.1761L593.293 24.9181L590.591 19.1761H584.245V29.1761ZM592.199 46.0795L583.151 50.3375L591.965 69.0657L601.159 50.5215L592.199 46.0795ZM600.58 29.1761V19.1761H594.377L591.621 24.7341L600.58 29.1761ZM620.04 29.1761L628.853 33.9034L636.753 19.1761H620.04V29.1761ZM605.41 56.4488L596.598 51.7215L594 56.5629L596.694 61.3514L605.41 56.4488ZM620.751 83.7216V93.7216H637.849L629.466 78.8189L620.751 83.7216ZM601.432 83.7216L592.607 88.4237L595.43 93.7216H601.432V83.7216ZM592.199 66.392L601.025 61.6899L592.061 44.8653L583.314 61.8037L592.199 66.392ZM583.251 83.7216V93.7216H589.341L592.136 88.3098L583.251 83.7216ZM563.648 83.7216L554.952 78.7846L546.472 93.7216H563.648V83.7216ZM579.131 56.4488L587.828 61.3858L590.54 56.6086L587.962 51.7573L579.131 56.4488ZM564.643 29.1761V19.1761H548.007L555.812 33.8677L564.643 29.1761ZM584.245 29.1761L575.197 33.4341L583.151 50.3375L592.199 46.0795L601.248 41.8215L593.293 24.9181L584.245 29.1761ZM592.199 46.0795L601.159 50.5215L609.539 33.6181L600.58 29.1761L591.621 24.7341L583.24 41.6375L592.199 46.0795ZM600.58 29.1761V39.1761H620.04V29.1761V19.1761H600.58V29.1761ZM620.04 29.1761L611.228 24.4488L596.598 51.7215L605.41 56.4488L614.222 61.1761L628.853 33.9034L620.04 29.1761ZM605.41 56.4488L596.694 61.3514L612.035 88.6242L620.751 83.7216L629.466 78.8189L614.126 51.5462L605.41 56.4488ZM620.751 83.7216V73.7216H601.432V83.7216V93.7216H620.751V83.7216ZM601.432 83.7216L610.258 79.0194L601.025 61.6899L592.199 66.392L583.374 71.0941L592.607 88.4237L601.432 83.7216ZM592.199 66.392L583.314 61.8037L574.365 79.1333L583.251 83.7216L592.136 88.3098L601.085 70.9803L592.199 66.392ZM583.251 83.7216V73.7216H563.648V83.7216V93.7216H583.251V83.7216ZM563.648 83.7216L572.345 88.6585L587.828 61.3858L579.131 56.4488L570.435 51.5118L554.952 78.7846L563.648 83.7216ZM579.131 56.4488L587.962 51.7573L573.474 24.4846L564.643 29.1761L555.812 33.8677L570.3 61.1404L579.131 56.4488ZM564.643 29.1761V39.1761H584.245V29.1761V19.1761H564.643V29.1761Z" fill="#262626" mask="url(#path-1-outside-1_20_162)"/>
</g>
<defs>
<filter id="filter0_d_20_162" x="0" y="0" width="641.849" height="102.716" filterUnits="userSpaceOnUse" color-interpolation-filters="sRGB">
<feFlood flood-opacity="0" result="BackgroundImageFix"/>
<feColorMatrix in="SourceAlpha" type="matrix" values="0 0 0 0 0 0 0 0 0 0 0 0 0 0 0 0 0 0 127 0" result="hardAlpha"/>
<feOffset dy="4"/>
<feGaussianBlur stdDeviation="2"/>
<feComposite in2="hardAlpha" operator="out"/>
<feColorMatrix type="matrix" values="0 0 0 0 0 0 0 0 0 0 0 0 0 0 0 0 0 0 0.25 0"/>
<feBlend mode="normal" in2="BackgroundImageFix" result="effect1_dropShadow_20_162"/>
<feBlend mode="normal" in="SourceGraphic" in2="effect1_dropShadow_20_162" result="shape"/>
</filter>
<linearGradient id="paint0_linear_20_162" x1="398.618" y1="-64.2784" x2="-23.382" y2="406.222" gradientUnits="userSpaceOnUse">
<stop stop-color="white"/>
<stop offset="1"/>
</linearGradient>
</defs>
</svg>
