<svg width="62" height="64" viewBox="0 0 62 64" fill="none" xmlns="http://www.w3.org/2000/svg">
<path d="M0 8C0 5.19974 0 3.79961 0.544967 2.73005C1.02433 1.78924 1.78924 1.02433 2.73005 0.544967C3.79961 0 5.19974 0 8 0H30C32.8003 0 34.2004 0 35.27 0.544967C36.2108 1.02433 36.9757 1.78924 37.455 2.73005C38 3.79961 38 5.19974 38 8V57H0V8Z" fill="#A600FF"/>
<path d="M3 7.8C3 6.11984 3 5.27976 3.32698 4.63803C3.6146 4.07354 4.07354 3.6146 4.63803 3.32698C5.27976 3 6.11984 3 7.8 3H30.2C31.8802 3 32.7202 3 33.362 3.32698C33.9265 3.6146 34.3854 4.07354 34.673 4.63803C35 5.27976 35 6.11984 35 7.8V54H3V7.8Z" fill="url(#paint0_linear_6_23)"/>
<path d="M61.5152 15.879C61.5152 14.662 61.5152 14.0535 61.3143 13.5326C61.1369 13.0724 60.8487 12.6631 60.4754 12.3408C60.0527 11.976 59.4798 11.7708 58.3342 11.3603L41.419 5.29983C39.2581 4.52561 38.1776 4.1385 37.3149 4.34088C36.5599 4.51797 35.9029 4.98051 35.4815 5.63148C35 6.37542 35 7.52313 35 9.81855V54L61.5152 63.5V15.879Z" fill="url(#paint1_linear_6_23)"/>
<path d="M58 38.6904C58 38.2633 58 38.0497 57.9272 37.8696C57.863 37.7105 57.759 37.5707 57.6251 37.4635C57.4734 37.342 57.2689 37.2807 56.8598 37.1579L55.0598 36.6179C54.3617 36.4085 54.0126 36.3038 53.7359 36.3795C53.4937 36.4459 53.2852 36.601 53.152 36.814C53 37.0572 53 37.4216 53 38.1504V39.8096C53 40.2367 53 40.4503 53.0728 40.6304C53.137 40.7895 53.241 40.9293 53.3749 41.0365C53.5266 41.158 53.7311 41.2193 54.1402 41.3421L55.9402 41.8821C56.6383 42.0915 56.9874 42.1962 57.2641 42.1205C57.5063 42.0541 57.7148 41.899 57.848 41.686C58 41.4428 58 41.0784 58 40.3496V38.6904Z" fill="white"/>
<rect x="34" y="13" width="2" height="7" rx="1" fill="#D9D9D9"/>
<rect x="34" y="36" width="2" height="7" rx="1" fill="#D9D9D9"/>
<defs>
<linearGradient id="paint0_linear_6_23" x1="19" y1="3" x2="19" y2="54" gradientUnits="userSpaceOnUse">
<stop stop-color="#440385"/>
<stop offset="1" stop-color="#1A0132"/>
</linearGradient>
<linearGradient id="paint1_linear_6_23" x1="51" y1="3" x2="51" y2="54" gradientUnits="userSpaceOnUse">
<stop stop-color="#8000FF"/>
<stop offset="1" stop-color="#4D0099"/>
</linearGradient>
</defs>
</svg>
