<svg width="16" height="16" viewBox="0 0 16 16" fill="none" xmlns="http://www.w3.org/2000/svg">
<path d="M9.74805 0.5L10.0117 2.62207L10.0479 2.91895L10.3271 3.02637C10.4725 3.08257 10.6083 3.14943 10.7344 3.22656C10.875 3.31262 11.0126 3.4053 11.1475 3.50391L11.376 3.6709L11.6377 3.56055L13.5977 2.73242L15.3467 5.76855L13.6475 7.0625L13.4141 7.24023L13.4551 7.53027C13.4653 7.60231 13.4697 7.66929 13.4697 7.73047V8.26953C13.4697 8.30481 13.4646 8.34922 13.4492 8.40332L13.3564 8.73145L13.6279 8.9375L15.3271 10.2305L13.5781 13.2656L11.6387 12.4404L11.377 12.3291L11.1475 12.4961C11.0155 12.5926 10.8773 12.6836 10.7324 12.7686C10.5912 12.8513 10.4517 12.921 10.3145 12.9785L10.0469 13.0908L10.0117 13.3779L9.74805 15.5H6.25195L5.98828 13.3779L5.95215 13.0811L5.67285 12.9736L5.46191 12.8818C5.39412 12.8485 5.32867 12.812 5.26562 12.7734C5.12496 12.6874 4.98745 12.5947 4.85254 12.4961L4.62402 12.3291L4.3623 12.4395L2.40137 13.2666L0.652344 10.2305L2.35254 8.9375L2.58594 8.75977L2.54492 8.46973C2.53468 8.39769 2.53027 8.33071 2.53027 8.26953V7.73047C2.53027 7.66929 2.53468 7.60231 2.54492 7.53027L2.58594 7.24023L2.35254 7.0625L0.652344 5.76855L2.40137 2.73242L4.3623 3.56055L4.62402 3.6709L4.85254 3.50391C4.98453 3.40744 5.12269 3.3164 5.26758 3.23145C5.4088 3.14866 5.54832 3.07896 5.68555 3.02148L5.95312 2.90918L5.98828 2.62207L6.25195 0.5H9.74805ZM8.04004 4.7002C7.12638 4.7002 6.33666 5.02536 5.70312 5.66992C5.07312 6.31099 4.75391 7.09695 4.75391 8C4.75391 8.90304 5.07312 9.68901 5.70312 10.3301C6.33666 10.9746 7.12638 11.2998 8.04004 11.2998C8.94269 11.2997 9.7268 10.9735 10.3643 10.333C11.0017 9.69235 11.3262 8.90509 11.3262 8C11.3262 7.09491 11.0017 6.30765 10.3643 5.66699C9.7268 5.02646 8.94269 4.70025 8.04004 4.7002Z" fill="#FE5805" stroke="#FE5805"/>
</svg>
