<svg width="50" height="49" viewBox="0 0 50 49" fill="none" xmlns="http://www.w3.org/2000/svg">
<g filter="url(#filter0_f_6_24)">
<path d="M22.9675 11.382C23.5662 9.53934 26.173 9.53934 26.7717 11.382L28.9109 17.9656C29.1786 18.7896 29.9465 19.3475 30.813 19.3475H37.7354C39.6728 19.3475 40.4784 21.8268 38.9109 22.9656L33.3106 27.0344C32.6096 27.5437 32.3163 28.4465 32.5841 29.2705L34.7232 35.8541C35.3219 37.6967 33.2129 39.229 31.6455 38.0902L26.0452 34.0213C25.3442 33.512 24.395 33.512 23.694 34.0213L18.0937 38.0902C16.5263 39.229 14.4173 37.6967 15.016 35.8541L17.1551 29.2705C17.4229 28.4465 17.1296 27.5437 16.4286 27.0344L10.8283 22.9656C9.26084 21.8268 10.0664 19.3475 12.0038 19.3475H18.9262C19.7927 19.3475 20.5606 18.7896 20.8283 17.9656L22.9675 11.382Z" fill="#FFE100"/>
</g>
<path d="M22.9675 14.382C23.5662 12.5393 26.173 12.5393 26.7717 14.382L28.2373 18.8926C28.5051 19.7167 29.273 20.2746 30.1394 20.2746L34.8822 20.2746C36.8196 20.2746 37.6252 22.7538 36.0578 23.8926L32.2208 26.6803C31.5198 27.1896 31.2265 28.0924 31.4942 28.9164L32.9598 33.4271C33.5585 35.2697 31.4496 36.8019 29.8822 35.6631L26.0452 32.8754C25.3442 32.3661 24.395 32.3661 23.694 32.8754L19.857 35.6631C18.2896 36.8019 16.1807 35.2697 16.7794 33.4271L18.245 28.9164C18.5127 28.0924 18.2194 27.1896 17.5184 26.6803L13.6814 23.8926C12.114 22.7538 12.9196 20.2746 14.857 20.2746L19.5998 20.2746C20.4662 20.2746 21.2341 19.7167 21.5019 18.8926L22.9675 14.382Z" fill="#FFEE70"/>
<defs>
<filter id="filter0_f_6_24" x="0" y="0" width="49.7392" height="48.4812" filterUnits="userSpaceOnUse" color-interpolation-filters="sRGB">
<feFlood flood-opacity="0" result="BackgroundImageFix"/>
<feBlend mode="normal" in="SourceGraphic" in2="BackgroundImageFix" result="shape"/>
<feGaussianBlur stdDeviation="5" result="effect1_foregroundBlur_6_24"/>
</filter>
</defs>
</svg>
